<?xml version="1.0" encoding="UTF-8" standalone="no"?>
<svg
   xmlns:dc="http://purl.org/dc/elements/1.1/"
   xmlns:cc="http://creativecommons.org/ns#"
   xmlns:rdf="http://www.w3.org/1999/02/22-rdf-syntax-ns#"
   xmlns:svg="http://www.w3.org/2000/svg"
   xmlns="http://www.w3.org/2000/svg"
   xmlns:sodipodi="http://sodipodi.sourceforge.net/DTD/sodipodi-0.dtd"
   xmlns:inkscape="http://www.inkscape.org/namespaces/inkscape"
   version="1.1"
   viewBox="0 0 450 338"
   id="svg1452"
   sodipodi:docname="bluecode.svg"
   inkscape:version="1.0.1 (0767f8302a, 2020-10-17)">
  <defs
     id="defs1456">
    <marker
       style="overflow:visible"
       id="Arrow1Lstart"
       refX="0.0"
       refY="0.0"
       orient="auto"
       inkscape:stockid="Arrow1Lstart"
       inkscape:isstock="true">
      <path
         transform="scale(0.8) translate(12.5,0)"
         style="fill-rule:evenodd;stroke:#000000;stroke-width:1.0pt"
         d="M 0.0,0.0 L 5.0,-5.0 L -12.5,0.0 L 5.0,5.0 L 0.0,0.0 z "
         id="path2614" />
    </marker>
  </defs>
  <sodipodi:namedview
     pagecolor="#ffffff"
     bordercolor="#666666"
     borderopacity="1"
     objecttolerance="10"
     gridtolerance="10"
     guidetolerance="10"
     inkscape:pageopacity="0"
     inkscape:pageshadow="2"
     inkscape:window-width="1848"
     inkscape:window-height="1016"
     id="namedview1454"
     showgrid="false"
     showborder="true"
     inkscape:zoom="1.8033315"
     inkscape:cx="232.11464"
     inkscape:cy="199.41744"
     inkscape:window-x="72"
     inkscape:window-y="27"
     inkscape:window-maximized="1"
     inkscape:current-layer="svg1452"
     inkscape:document-rotation="0"
     inkscape:showpageshadow="false" />
  <metadata
     id="metadata1438">
    <rdf:RDF>
      <cc:Work
         rdf:about="">
        <dc:format>image/svg+xml</dc:format>
        <dc:type
           rdf:resource="http://purl.org/dc/dcmitype/StillImage" />
        <dc:title />
      </cc:Work>
    </rdf:RDF>
  </metadata>
  <g
     id="g3595"
     style="stroke:none"
     transform="matrix(1.1348173,0,0,1.1348173,6.915151,18.834653)">
    <rect
       style="fill:#ffffff;fill-opacity:1;stroke:none;stroke-width:0.821346;stroke-miterlimit:4;stroke-dasharray:none;stroke-opacity:1"
       id="rect3480"
       width="395.05981"
       height="264.63348"
       x="-5.5137215"
       y="0.40757796" />
    <g
       id="g3504"
       transform="translate(-99.304696,27.793334)"
       style="stroke:none;stroke-opacity:1">
      <g
         id="g1450"
         style="fill:#033c5b;fill-opacity:1;stroke:none;stroke-width:1;stroke-miterlimit:4;stroke-dasharray:none;stroke-opacity:1"
         transform="translate(361.49356,279.0051)">
        <g
           transform="translate(-12.285,-2.1091)"
           fill="#033c5b"
           id="g1448"
           style="fill:#033c5b;fill-opacity:1;stroke:none;stroke-width:1;stroke-miterlimit:4;stroke-dasharray:none;stroke-opacity:1">
          <path
             d="m -234.55626,-49.305079 c -0.4125,-0.43195 -0.75,-11.285 -0.75,-24.119 v -23.333 l 13.75,0.002 c 16.131,0.002 19.591,1.1252 22.629,7.3461 1.604,3.2844 1.7095,4.4136 0.7207,7.7138 -0.63708,2.1264 -2.138,4.5524 -3.3355,5.3911 -2.1484,1.5048 -2.1514,1.5445 -0.2207,3.0044 1.0761,0.81368 2.197,1.4937 2.4909,1.5112 0.29392,0.0175 1.3064,1.3387 2.25,2.9361 2.2619,3.829 2.1677,8.8421 -0.24039,12.791 -3.5545,5.8295 -5.5724,6.4811 -21.792,7.0365 -8.1138,0.2774 -15.09,0.15132 -15.502,-0.28063 z m 27.027,-9.0087 c 2.6966,-1.8888 2.9944,-6.9329 0.56752,-9.6146 -1.3515,-1.4934 -3.1855,-1.8287 -10,-1.8287 h -8.345 v 13 h 7.7775 c 5.4208,0 8.451,-0.47171 10,-1.5567 z m -2.2827,-20.08 c 2.7468,-1.054 3.803,-5.2601 2.0087,-7.9986 -1.415,-2.1595 -2.2427,-2.365 -9.5266,-2.365 h -7.977 v 11 h 6.9182 c 3.805,0 7.6645,-0.28637 8.5766,-0.63638 z m 19.964,28.389 c -0.27384,-0.71363 -0.37651,-11.412 -0.22816,-23.775 l 0.26974,-22.477 h 9 l 0.54228,39.5 h 24.078 l -0.31036,3.75 -0.31037,3.75 -16.272,0.27488 c -12.613,0.21306 -16.384,-0.0169 -16.77,-1.0226 z m 43.782,-0.74685 c -6.6299,-4.0423 -7.233,-6.3134 -7.2371,-27.255 l -0.004,-18.75 h 9 v 17.277 c 0,19.281 0.46773,20.929 6.4052,22.569 4.3176,1.1921 8.012,0.4545 10.285,-2.0535 1.5768,-1.7399 1.8502,-4.3012 2.123,-19.895 l 0.31313,-17.898 h 9.0267 l -0.32646,19.297 c -0.36086,21.331 -0.77086,22.869 -7.1308,26.747 -4.583,2.7945 -17.846,2.7717 -22.455,-0.0386 z m 37.759,-22.005 v -24 h 35.120999 l -0.31036,3.75 -0.31037,3.75 -25.5,0.55975 v 10.94 h 24 v 6.9365 l -23.5,0.56347 -0.59138,13.5 h 26.091 v 8 h -34.999999 z m 61.906999,21.672 c -2.8946,-1.5287 -5.437,-3.9902 -7.4073,-7.1716 -2.7881,-4.5019 -2.9998,-5.5204 -2.9972,-14.422 0.003,-10.944 1.9569,-16.09 7.738,-20.382 11.025,-8.185201 27.345,-4.8576 31.628,6.4488 0.95347,2.517 0.80629,2.6944 -3.0471,3.6725 -3.9372,0.99937 -4.152,0.91944 -7.7804,-2.8948 -4.1713,-4.3849 -7.9144,-5.0737 -13.074,-2.4056 -4.3792,2.2646 -6.2894,6.8157 -6.2954,14.999 -0.008,10.968 4.3222,16.994 12.055,16.775 3.6808,-0.10434 6.8367,-2.613 9.8563,-7.8351 0.98052,-1.6956 1.4762,-1.7546 5.25,-0.6239 2.292,0.6867 4.1673,1.4734 4.1673,1.7482 0,1.4488 -4.1177,8.2106 -6.1527,10.103 -5.3837,5.0077 -16.479,5.9295 -23.94,1.989 z m 45.59300046,0.92716 c -3.65509996,-1.6109 -8.13589996,-6.0089 -10.26900046,-10.079 -0.90561,-1.7281 -1.7731,-6.5074 -2.0272,-11.169 -0.38873,-7.1306 -0.13215,-8.8295 2.055,-13.607 4.9714005,-10.859 16.8060005,-15.456001 28.851,-11.206 7.8479,2.7689 12.202,8.3706 13.979,17.986 2.1395,11.574 -2.4507,22.868 -11.064,27.225 -5.1723,2.6161 -16.5019995,3.0632 -21.52499954,0.84952 z m 17.23599954,-8.2324 c 3.7085,-2.3135 5.4675,-6.0338 6.0022,-12.695 0.89953,-11.206 -4.461,-18.68 -13.3889995,-18.668 -3.9392,0.005 -8.91540004,3.268 -10.984,7.202 -2.6542,5.0483 -2.3912,15.398 0.51056,20.093 1.25809996,2.0356 2.36319996,3.7079 2.4559,3.7162 0.0926,0.008 1.9684,0.65281 4.1684,1.4323 4.2549,1.5075 7.6040995,1.1855 11.2359995,-1.0802 z m 21.264,-14.234 v -24.133 h 12.288 c 10.761,0 12.84,0.27966 16.729,2.25 6.5839,3.3359 9.985,10.363 9.9775,20.614 -0.007,9.2684 -1.2431,14.089 -4.652,18.141 -4.4492,5.2876 -7.6004,6.2789 -21.592,6.7925 l -12.75,0.46807 z m 26.532,12.625 c 4.7953,-5.5749 4.4755,-20.904 -0.54069,-25.92 -2.582,-2.582 -3.4745,-2.8374 -9.9144,-2.8374 h -7.0769 v 32.219 l 7.608,-0.38419 c 6.7788,-0.34231 7.8604,-0.67763 9.924,-3.0767 z m 18.468,-12.758 v -24 h 35.000001 v 8 H 91.588039 l 0.60452,10.5 23.500001,0.56347 v 6.8731 l -23.500001,0.56347 -0.59138,13.5 h 27.091001 v 8 H 82.692179 Z m 44.807001,-12.75 c -2.302,-2.6803 -2.8441,-5.0221 -1.799,-7.771 2.0606,-5.4198 9.7683,-5.7462 12.467,-0.52789 2.4866,4.8084 -0.62923,10.049 -5.9747,10.049 -1.7989,0 -3.8455,-0.76316 -4.693,-1.75 z m 8.613,-1.1616 c 2.4664,-2.7253 1.6964,-7.181 -1.5547,-8.9974 -2.3598,-1.3184 -2.9076,-1.2932 -5.25,0.24151 -4.7035,3.0819 -2.7116,10.667 2.8012,10.667 1.2505,0 3.0521,-0.8602 4.0035,-1.9116 z m -371.42,-114.590001 v -90.5 h 21 v 181 h -21 z m 37,0 v -90.5 h 30 v 181 h -30 z m 44,0 v -90.5 h 19 v 181 h -19 z m 46,0 v -90.5 h 20.999999 v 181 h -20.999999 z m 43.999999,0 v -90.5 h 12 v 181 h -12 z m 35,0 v -90.5 h 22.0000005 v 181 H -29.306961 Z m 48,0 v -90.5 h 18 v 181 h -18 z m 34,0 v -90.5 h 30 v 181 h -30 z m 45,0 v -90.5 h 21.000001 v 181 H 97.693039 Z"
             id="path1442"
             style="fill:#033c5b;fill-opacity:1;stroke:none;stroke-width:1;stroke-miterlimit:4;stroke-dasharray:none;stroke-opacity:1" />
        </g>
      </g>
      <text
         xml:space="preserve"
         style="font-style:normal;font-weight:normal;font-size:11.6445px;line-height:1.25;font-family:sans-serif;fill:#033c5b;fill-opacity:1;stroke:none;stroke-width:1;stroke-miterlimit:4;stroke-dasharray:none;stroke-opacity:1"
         x="477.44223"
         y="190.49033"
         id="text2610"><tspan
           sodipodi:role="line"
           id="tspan2608"
           x="477.44223"
           y="190.49033"
           style="fill:#033c5b;fill-opacity:1;stroke:none;stroke-width:1;stroke-miterlimit:4;stroke-dasharray:none;stroke-opacity:1">R</tspan></text>
    </g>
  </g>
</svg>
