<?xml version="1.0" encoding="UTF-8" standalone="no"?>
<svg
   xmlns:dc="http://purl.org/dc/elements/1.1/"
   xmlns:cc="http://creativecommons.org/ns#"
   xmlns:rdf="http://www.w3.org/1999/02/22-rdf-syntax-ns#"
   xmlns:svg="http://www.w3.org/2000/svg"
   xmlns="http://www.w3.org/2000/svg"
   xmlns:sodipodi="http://sodipodi.sourceforge.net/DTD/sodipodi-0.dtd"
   xmlns:inkscape="http://www.inkscape.org/namespaces/inkscape"
   version="1.1"
   id="Ebene_1"
   x="0px"
   y="0px"
   viewBox="0 0 594.99997 288.00001"
   xml:space="preserve"
   sodipodi:docname="Greisslomat_Vektorlogo_final.svg"
   width="595"
   height="288"
   inkscape:version="1.0.1 (0767f8302a, 2020-10-17)"
   inkscape:export-filename="/home/ralph/workspace/pdftest/Greisslomat_Logo.png"
   inkscape:export-xdpi="96"
   inkscape:export-ydpi="96"><metadata
   id="metadata172"><rdf:RDF><cc:Work
       rdf:about=""><dc:format>image/svg+xml</dc:format><dc:type
         rdf:resource="http://purl.org/dc/dcmitype/StillImage" /><dc:title /></cc:Work></rdf:RDF></metadata><defs
   id="defs170" /><sodipodi:namedview
   pagecolor="#ffffff"
   bordercolor="#666666"
   borderopacity="1"
   objecttolerance="10"
   gridtolerance="10"
   guidetolerance="10"
   inkscape:pageopacity="0"
   inkscape:pageshadow="2"
   inkscape:window-width="1848"
   inkscape:window-height="1016"
   id="namedview168"
   showgrid="false"
   inkscape:zoom="1.5572788"
   inkscape:cx="273.97329"
   inkscape:cy="163.75951"
   inkscape:window-x="72"
   inkscape:window-y="280"
   inkscape:window-maximized="1"
   inkscape:current-layer="Ebene_1"
   inkscape:document-rotation="0" />
<style
   type="text/css"
   id="style2">
	.st0{fill-rule:evenodd;clip-rule:evenodd;fill:#FFFFFF;}
	.st1{fill:none;}
	.st2{fill:#1F264A;}
	.st3{fill:#D9D9D9;}
	.st4{fill:#BC181D;stroke:#1F264A;stroke-width:3.0189;stroke-linecap:round;stroke-linejoin:round;stroke-miterlimit:10;}
	.st5{fill:#E52629;stroke:#1F264A;stroke-width:3.0189;stroke-linecap:round;stroke-linejoin:round;stroke-miterlimit:10;}
	.st6{fill:#AEB4B4;stroke:#1F264A;stroke-width:3.0189;stroke-linecap:round;stroke-linejoin:round;stroke-miterlimit:10;}
	.st7{fill:#F1F2F2;stroke:#1F264A;stroke-width:3.0189;stroke-linecap:round;stroke-linejoin:round;stroke-miterlimit:10;}
	.st8{fill:#233468;}
	.st9{fill:#243988;}
	.st10{fill:url(#SVGID_1_);}
	.st11{fill:url(#SVGID_2_);}
	.st12{fill:url(#SVGID_3_);}
	.st13{fill:#FFFFFF;}
</style>
<g
   id="g6"
   transform="matrix(1.2088374,0,0,1.2088374,-62.164186,-61.630785)">
	<path
   class="st0"
   d="m 495.43,195.27 h -108.9 c 2.62,-6.8 4.35,-13.98 5.06,-21.43 9.76,-0.51 15.57,-8.67 15.57,-16.58 0,-8.93 -6.4,-16.03 -14.82,-16.76 l -3.92,1.76 c -3.86,-12.6 -10.71,-24.04 -19.79,-33.64 v -3.43 c 9.07,-1.8 15.92,-9.82 15.92,-19.41 V 79.9 l -0.01,-1.37 -0.22,-0.77 c -0.1,-0.49 -0.24,-0.97 -0.4,-1.4 -0.15,-0.43 -0.33,-0.84 -0.58,-1.31 -0.36,-0.68 -0.79,-1.32 -1.34,-1.99 0,0 -0.07,-0.08 -0.14,-0.15 l -0.53,-0.65 -22.5,-17.51 c -1.85,-1.44 -4.15,-2.23 -6.49,-2.23 h -85.77 c -2.34,0 -4.65,0.79 -6.49,2.23 l -22.48,17.51 -0.49,0.59 c -0.06,0.07 -0.12,0.13 -0.17,0.19 -0.55,0.64 -1.02,1.34 -1.34,1.97 -0.22,0.42 -0.41,0.83 -0.57,1.28 -0.17,0.46 -0.31,0.93 -0.41,1.41 l -0.25,0.83 v 7.25 c 0,4.24 1.37,8.3 3.79,11.62 -22,16.01 -36.12,40.8 -36.12,68.63 0,40.8 30.36,75.08 71.41,84.72 l 23.54,37.96 23.54,-37.96 c 2.5,-0.59 4.95,-1.27 7.36,-2.03 4.36,-1.32 8.23,-2.77 11.94,-4.65 5.86,-2.73 11.36,-6.01 16.44,-9.75 l 136.42,0.23 c 4.73,0 7.94,-5.12 7.94,-9.85 l 0.17,-20.86 c 0.04,-4.37 -0.98,-8.57 -5.37,-8.57 z m 1.23,29.45 c 0,2.7 -1.72,5.85 -3.93,5.85 l -136.42,-0.23 h -1.32 l -1.06,0.78 c -4.89,3.61 -10.19,6.75 -15.76,9.34 l -0.06,0.03 -0.06,0.03 c -3.27,1.65 -6.86,3.05 -11.29,4.39 l -0.03,0.01 -0.03,0.01 c -2.33,0.74 -4.71,1.4 -7.07,1.95 l -1.61,0.38 -0.87,1.41 -20.14,32.48 -20.14,-32.48 -0.87,-1.41 -1.61,-0.38 c -40.23,-9.45 -68.33,-42.69 -68.33,-80.83 0,-25.61 12.57,-49.45 34.47,-65.39 l 3.23,-2.35 -2.35,-3.23 c -1.98,-2.72 -3.03,-5.93 -3.03,-9.27 v -6.67 l 0.08,-0.28 0.04,-0.15 0.03,-0.15 c 0.06,-0.29 0.15,-0.59 0.25,-0.86 0.1,-0.27 0.21,-0.53 0.36,-0.8 l 0.02,-0.03 0.02,-0.03 c 0.18,-0.35 0.48,-0.79 0.82,-1.18 l 0.09,-0.1 0.06,-0.07 0.06,-0.07 0.21,-0.25 22.14,-17.24 c 1.14,-0.89 2.58,-1.38 4.03,-1.38 h 85.77 c 1.45,0 2.88,0.49 4.03,1.38 l 22.14,17.24 0.24,0.3 0.06,0.07 0.06,0.07 0.09,0.1 c 0.35,0.41 0.61,0.81 0.82,1.21 0.16,0.31 0.27,0.55 0.37,0.85 0.09,0.26 0.18,0.55 0.24,0.84 l 0.03,0.15 0.04,0.15 0.07,0.24 v 0.79 5.88 c 0,7.51 -5.34,14.02 -12.7,15.48 l -3.22,0.64 v 3.28 3.43 1.59 l 1.09,1.16 c 8.76,9.25 15.28,20.34 18.87,32.07 l 1.33,4.34 4.14,-1.86 2.9,-1.3 c 5.88,0.99 10.2,6.26 10.2,12.65 0,5.8 -4.13,12.18 -11.78,12.58 l -3.44,0.18 -0.33,3.43 c -0.67,6.96 -2.29,13.82 -4.82,20.38 l -2.1,5.44 h 5.83 108.9 c 0.55,0 0.59,0.08 0.77,0.44 0.24,0.47 0.63,1.63 0.63,4.11 z"
   id="path4" />
</g>
<g
   id="g26"
   transform="matrix(1.2088374,0,0,1.2088374,-62.164186,-61.630785)">
	<g
   id="g24">
		<path
   class="st1"
   d="M 346.38,101.4 H 272.5 c -2.34,0 -4.25,1.91 -4.25,4.25 v 22.26 c 0,2.34 1.91,4.25 4.25,4.25 h 73.88 c 2.34,0 4.25,-1.91 4.25,-4.25 v -22.26 c 0,-2.33 -1.91,-4.25 -4.25,-4.25 z"
   id="path8" />
		<g
   id="g22">
			<path
   class="st1"
   d="M 346.38,101.4 H 272.5 c -2.34,0 -4.25,1.91 -4.25,4.25 v 21.69 c 0,2.65 2.17,4.81 4.81,4.81 h 73.32 c 2.34,0 4.25,-1.91 4.25,-4.25 v -22.26 c 0,-2.32 -1.91,-4.24 -4.25,-4.24 z"
   id="path10" />
			<g
   id="g20">
				<path
   class="st2"
   d="m 496.2,199.72 c -0.18,-0.37 -0.22,-0.44 -0.77,-0.44 h -108.9 -5.83 l 2.1,-5.44 c 2.53,-6.56 4.15,-13.41 4.82,-20.38 l 0.33,-3.43 3.44,-0.18 c 7.65,-0.4 11.78,-6.78 11.78,-12.58 0,-6.39 -4.32,-11.66 -10.2,-12.65 l -2.9,1.3 -4.14,1.86 -1.33,-4.34 c -3.59,-11.73 -10.12,-22.81 -18.87,-32.07 l -1.09,-1.16 v -1.59 -3.43 -3.28 l 3.22,-0.64 c 7.36,-1.46 12.7,-7.97 12.7,-15.48 v -5.88 -0.79 l -0.07,-0.24 -0.04,-0.15 -0.03,-0.15 c -0.06,-0.29 -0.14,-0.58 -0.24,-0.84 -0.11,-0.3 -0.22,-0.55 -0.37,-0.85 -0.21,-0.41 -0.48,-0.8 -0.82,-1.21 l -0.09,-0.1 -0.06,-0.07 -0.06,-0.07 -0.24,-0.3 L 356.4,57.9 c -1.15,-0.89 -2.58,-1.38 -4.03,-1.38 H 266.6 c -1.46,0 -2.89,0.49 -4.03,1.38 l -22.14,17.24 -0.21,0.25 -0.06,0.07 -0.06,0.07 -0.09,0.1 c -0.34,0.4 -0.64,0.83 -0.82,1.18 l -0.02,0.03 -0.02,0.03 c -0.14,0.27 -0.26,0.52 -0.36,0.8 -0.1,0.28 -0.19,0.57 -0.25,0.86 l -0.03,0.15 -0.04,0.15 -0.08,0.28 v 6.67 c 0,3.34 1.05,6.55 3.03,9.27 l 2.35,3.23 -3.23,2.35 c -21.91,15.95 -34.47,39.78 -34.47,65.39 0,38.14 28.1,71.38 68.33,80.83 l 1.61,0.38 0.87,1.41 20.14,32.48 20.14,-32.48 0.87,-1.41 1.61,-0.38 c 2.36,-0.55 4.73,-1.21 7.07,-1.95 l 0.03,-0.01 0.03,-0.01 c 4.44,-1.34 8.03,-2.74 11.29,-4.39 l 0.06,-0.03 0.06,-0.03 c 5.57,-2.6 10.87,-5.74 15.76,-9.34 l 1.06,-0.78 h 1.32 l 136.42,0.23 c 2.21,0 3.93,-3.14 3.93,-5.85 l 0.17,-20.89 c 0,-2.45 -0.4,-3.61 -0.64,-4.08 z M 359.02,164.44 H 346.68 259.91 V 85.46 h 99.11 z"
   id="path12" />
				<g
   id="g18">
					<path
   class="st1"
   d="M 346.38,101.4 H 272.5 c -2.34,0 -4.25,1.91 -4.25,4.25 v 21.69 c 0,2.65 2.17,4.81 4.81,4.81 h 73.32 c 2.34,0 4.25,-1.91 4.25,-4.25 v -22.26 c 0,-2.32 -1.91,-4.24 -4.25,-4.24 z"
   id="path14" />
					<path
   class="st3"
   d="m 259.91,85.46 v 78.98 h 86.77 12.34 V 85.46 Z m 90.72,42.45 c 0,2.34 -1.91,4.25 -4.25,4.25 h -73.32 c -2.65,0 -4.81,-2.17 -4.81,-4.81 v -21.69 c 0,-2.34 1.91,-4.25 4.25,-4.25 h 73.88 c 2.34,0 4.25,1.91 4.25,4.25 z"
   id="path16" />
				</g>
			</g>
		</g>
	</g>
</g>
<path
   class="st4"
   d="m 245.086,52.809847 v 0 c -6.15298,0 -11.14548,-4.992498 -11.14548,-11.14548 v -7.071699 h 22.27888 v 7.071699 c 0,6.16507 -4.98041,11.14548 -11.1334,11.14548 z"
   id="path28" />
<polygon
   class="st5"
   points="278.84,62.76 263.38,79.6 244.95,79.6 266.58,62.76 "
   id="polygon30"
   transform="matrix(1.2088374,0,0,1.2088374,-62.164186,-61.630785)" />
<path
   class="st6"
   d="m 267.36488,52.809847 v 0 c -6.15299,0 -11.14548,-4.992498 -11.14548,-11.14548 v -7.071699 h 22.27887 v 7.071699 c 0.0121,6.16507 -4.98041,11.14548 -11.13339,11.14548 z"
   id="path32" />
<polygon
   class="st7"
   points="291.09,62.76 281.82,79.6 263.38,79.6 278.84,62.76 "
   id="polygon34"
   transform="matrix(1.2088374,0,0,1.2088374,-62.164186,-61.630785)" />
<path
   class="st4"
   d="m 289.64375,52.809847 v 0 c -6.15298,0 -11.14548,-4.992498 -11.14548,-11.14548 v -7.071699 h 22.27887 v 7.071699 c 0.0121,6.16507 -4.98041,11.14548 -11.13339,11.14548 z"
   id="path36" />
<polygon
   class="st5"
   points="303.34,62.76 300.25,79.6 281.82,79.6 291.09,62.76 "
   id="polygon38"
   transform="matrix(1.2088374,0,0,1.2088374,-62.164186,-61.630785)" />
<path
   class="st6"
   d="m 311.93471,52.809847 v 0 c -6.15298,0 -11.14548,-4.992498 -11.14548,-11.14548 v -7.071699 h 22.27887 v 7.071699 c 0,6.16507 -4.98041,11.14548 -11.13339,11.14548 z"
   id="path40" />
<polygon
   class="st7"
   points="315.59,62.76 318.68,79.6 300.25,79.6 303.34,62.76 "
   id="polygon42"
   transform="matrix(1.2088374,0,0,1.2088374,-62.164186,-61.630785)" />
<path
   class="st4"
   d="m 334.21358,52.809847 v 0 c -6.15298,0 -11.14548,-4.992498 -11.14548,-11.14548 v -7.071699 h 22.27887 v 7.071699 c 0.0121,6.16507 -4.98041,11.14548 -11.13339,11.14548 z"
   id="path44" />
<polygon
   class="st5"
   points="327.85,62.76 337.12,79.6 318.68,79.6 315.59,62.76 "
   id="polygon46"
   transform="matrix(1.2088374,0,0,1.2088374,-62.164186,-61.630785)" />
<path
   class="st6"
   d="m 356.49245,52.809847 v 0 c -6.15298,0 -11.14548,-4.992498 -11.14548,-11.14548 v -7.071699 h 22.27888 v 7.071699 c 0.0121,6.16507 -4.96833,11.14548 -11.1334,11.14548 z"
   id="path48" />
<polygon
   class="st7"
   points="340.1,62.76 355.55,79.6 337.12,79.6 327.85,62.76 "
   id="polygon50"
   transform="matrix(1.2088374,0,0,1.2088374,-62.164186,-61.630785)" />
<path
   class="st4"
   d="m 378.78342,52.809847 v 0 c -6.15299,0 -11.14549,-4.992498 -11.14549,-11.14548 v -7.071699 h 22.27888 v 7.071699 c 0.0121,6.16507 -4.98041,11.14548 -11.13339,11.14548 z"
   id="path52" />
<polygon
   class="st5"
   points="352.35,62.76 373.99,79.6 355.55,79.6 340.1,62.76 "
   id="polygon54"
   transform="matrix(1.2088374,0,0,1.2088374,-62.164186,-61.630785)" />
<path
   class="st8"
   d="m 530.03314,182.42139 h -84.18343 c -0.2055,-0.0242 -0.411,-0.0604 -0.62859,-0.0604 h -56.63403 c 0.24176,-0.38683 0.78574,-0.90663 0.78574,-0.90663 6.05628,-13.26095 10.84327,-29.19342 10.84327,-43.83244 0,-0.30221 -0.0121,-0.61651 -0.0121,-0.9429 -4.59358,18.86995 -12.48729,33.83536 -21.67445,45.66988 H 245.086 c -2.82868,0 -5.13755,2.30888 -5.13755,5.13756 v 21.8316 c 0,2.82868 2.30887,5.13756 5.13755,5.13756 h 95.06297 c -14.19175,7.5915 -25.08337,9.97291 -25.08337,9.97291 l -18.18092,51.93165 24.78117,-39.96416 c 17.4677,-4.02543 27.27137,-9.61026 40.38726,-21.9404 h 83.15592 80.00085 c 2.51439,0 8.26845,0.84618 8.26845,-4.56941 0,0 0.33848,-16.64569 0.33848,-18.74906 v -4.93206 c 0.0121,-2.0792 -1.68029,-3.78366 -3.78367,-3.78366 z"
   id="path56"
   style="stroke-width:1.20884" />
<path
   class="st2"
   d="m 588.37164,114.6177 c 0,-0.0121 -0.0121,-0.0121 -0.0121,-0.0242 -0.66486,-1.17257 -1.43852,-2.23634 -2.33306,-3.19133 -0.0604,-0.83409 -0.16924,-1.66819 -0.33847,-2.50229 -1.07587,-5.69362 -4.29138,-10.43227 -9.06628,-13.34556 -3.26386,-1.99459 -6.90246,-3.13089 -10.8191,-3.38475 -3.14297,-0.2055 -6.35848,0.14506 -9.58608,1.0396 -3.16715,0.88245 -6.0321,2.17591 -8.41351,3.79575 -2.18799,1.46269 -4.2551,3.14298 -6.14089,5.00459 -0.0121,0.0121 -0.0121,0.0121 -0.0242,0.0242 -1.11213,0.21759 -2.22426,0.49563 -3.3243,0.84619 -3.37266,1.07587 -6.40684,2.55065 -9.00584,4.38808 -0.9308,0.66486 -1.80117,1.3539 -2.599,2.09129 -2.88912,-1.36599 -5.93539,-2.30888 -9.11463,-2.82868 -4.33973,-0.71321 -8.78825,-0.78575 -13.21259,-0.21759 -4.09796,0.5198 -8.17174,1.51105 -12.10047,2.94956 -3.67486,1.34181 -7.08378,2.90121 -10.14214,4.65403 -2.88912,1.63193 -5.65736,3.43309 -8.28054,5.37932 -1.48687,-2.73197 -3.57816,-5.18591 -6.21342,-7.32555 -0.0725,-0.0604 -0.14506,-0.12089 -0.21759,-0.18133 -3.75949,-2.9133 -7.9058,-4.72655 -12.35432,-5.39141 -3.86828,-0.58024 -7.76074,-0.38683 -11.56857,0.58024 -3.13089,0.79783 -6.17716,2.03085 -9.06628,3.65069 -0.16924,0.0967 -0.33848,0.19341 -0.50771,0.29012 -0.25386,-0.18133 -0.50772,-0.35056 -0.77366,-0.53189 -3.96499,-2.63527 -8.26845,-4.08587 -12.7895,-4.32764 -3.49354,-0.18132 -6.9629,0.21759 -10.31138,1.18466 -2.69571,0.77366 -5.29471,1.90997 -7.74865,3.34848 -1.52313,-0.6165 -3.10671,-1.07586 -4.75073,-1.37807 -4.49688,-0.80992 -9.1509,-0.3143 -13.44227,1.42643 -1.7649,0.71321 -3.39683,1.66819 -4.85953,2.8045 -0.48353,0.0363 -0.95498,0.0725 -1.41434,0.0967 -2.13964,0.12088 -4.43643,0.0725 -6.87828,-0.15715 -1.20884,-0.96707 -2.5023,-1.84952 -3.86828,-2.63527 -2.90121,-1.69237 -5.97166,-2.84077 -9.16299,-3.40892 -1.28137,-0.47145 -2.63526,-0.84619 -4.02543,-1.11213 -2.05502,-0.38683 -4.18257,-0.54398 -6.34639,-0.48354 -1.68029,0.0484 -3.36057,0.20551 -5.00459,0.44727 -0.16924,0.0242 -0.33847,0.0484 -0.49562,0.0846 0.0242,-0.74948 0.0121,-1.51104 -0.0242,-2.26052 -0.36265,-6.32222 -3.40892,-11.96749 -8.58275,-15.89621 -0.0967,-0.0725 -0.2055,-0.15715 -0.3022,-0.22968 -5.48813,-3.94081 -11.96749,-5.35515 -18.25345,-3.98917 -4.38808,0.95499 -8.6311,2.99792 -12.60817,6.09254 -1.43852,1.11213 -2.84077,2.34515 -4.23093,3.68696 -1.23302,-5.34306 -3.71113,-10.11797 -7.32556,-14.13131 -4.5694,-5.13756 -9.71905,-8.32889 -15.30388,-9.477285 -5.33097,-1.087954 -10.83118,-0.531889 -15.89621,1.63193 -4.11005,1.752814 -7.95415,4.424345 -11.45978,7.966235 -2.69571,2.71989 -5.23426,5.74198 -7.56732,8.99375 -1.25719,1.75282 -2.45394,3.5419 -3.59025,5.34306 -2.0792,-0.96707 -4.31555,-1.6561 -6.6486,-2.00667 -4.43644,-0.66486 -8.87287,-0.16923 -13.20051,1.45061 -5.74197,2.15173 -10.17841,6.38266 -12.48729,11.90705 -0.0242,0.0604 -0.0483,0.10879 -0.0725,0.16923 -1.26928,3.1188 -1.74072,5.94748 -1.80116,8.40142 -0.90663,0.72531 -1.77699,1.51105 -2.56274,2.38141 -3.16715,-3.67486 -7.18049,-6.4431 -11.97958,-8.25636 -5.12547,-1.92205 -10.48062,-2.62317 -15.83577,-2.0792 -4.14631,0.38683 -8.15965,1.36599 -11.93122,2.90121 -3.34848,1.3539 -6.56399,3.04627 -9.5619,5.01668 -2.9133,1.92205 -5.64527,4.09796 -8.13548,6.46728 -0.74948,0.71321 -1.47478,1.42643 -2.17591,2.15173 -1.43851,-1.8737 -3.14297,-3.55398 -5.0892,-5.02876 -2.44185,-1.84953 -5.198,-3.37266 -8.20801,-4.53314 -0.14506,-0.0605 -0.30221,-0.12089 -0.44727,-0.16924 -0.48353,-0.6286 -1.01542,-1.23302 -1.57149,-1.81326 -2.90121,-2.98583 -6.58816,-5.02876 -10.95206,-6.10463 1.68028,-1.6561 3.07044,-3.68695 4.01334,-6.06836 1.71655,-4.30346 1.9704,-8.9454 0.74948,-13.41809 -0.0484,-0.15715 -0.0846,-0.3143 -0.13298,-0.47145 -1.30554,-4.19467 -3.25177,-7.92997 -5.8145,-11.121305 -2.40559,-2.997916 -5.18592,-5.512298 -8.28054,-7.494791 -2.85286,-1.825345 -5.887037,-3.239684 -9.054191,-4.206754 -3.215507,-0.991247 -6.39475,-1.498959 -9.453108,-1.523135 -5.681536,-0.120884 -11.52022,0.906628 -17.322639,3.094623 -5.185913,1.946228 -10.33556,4.666112 -15.31597,8.087122 -4.714465,3.23968 -9.368489,7.12005 -13.829099,11.53231 -4.388079,4.32764 -8.522303,9.11463 -12.281787,14.20384 -3.711131,5.01667 -7.095876,10.29929 -10.093792,15.72697 -3.058359,5.54856 -5.621094,11.19384 -7.6156756,16.79075 -1.6319304,4.56941 -2.9374748,9.53773 -3.8682795,14.77199 -0.9791583,5.46395 -1.3780746,10.92789 -1.1846606,16.23469 0.2055023,5.72989 1.2088373,11.27845 2.9979166,16.50063 2.00667,5.87495 5.1496471,11.08504 9.3443131,15.48521 3.807837,4.00125 8.075033,6.79366 12.692792,8.30471 3.916633,1.28137 7.942061,1.78908 11.96749,1.52313 1.740725,5.06503 5.149647,9.07837 9.622345,11.31472 0.132972,0.0725 0.278033,0.13297 0.423093,0.2055 2.490205,1.16049 5.089205,1.72864 7.664029,1.72864 2.357233,0 4.690289,-0.48353 6.902461,-1.46269 3.106712,-1.36599 5.838685,-3.61443 7.942062,-6.52772 1.305544,-1.83744 2.393498,-3.94081 3.239684,-6.29805 0.483535,-1.35389 0.918716,-2.71988 1.305544,-4.06169 0.06044,-0.19341 0.108795,-0.38683 0.157149,-0.59233 1.438516,-5.9233 3.106712,-11.81034 4.968321,-17.63694 2.103377,-0.58024 4.279285,-1.51104 6.672783,-2.84076 0.640683,1.10004 1.353897,2.16381 2.163818,3.19133 4.049606,5.16173 9.852021,8.46186 16.754491,9.5619 5.24635,0.84619 10.38391,0.39892 15.2797,-1.34181 3.88037,-1.37807 7.55523,-3.34848 10.90371,-5.83868 3.3243,2.63526 7.37391,4.6782 11.9554,6.03209 4.29138,1.31764 8.66737,1.89788 13.01918,1.74073 3.81993,-0.13297 7.63985,-0.70113 11.35098,-1.69237 3.5419,-0.9429 6.99917,-2.23635 10.27512,-3.81993 0.39892,-0.19341 0.80992,-0.39891 1.20884,-0.59233 2.41767,1.81326 5.28262,3.2276 8.55857,4.23093 4.20675,1.37808 8.36515,1.86161 12.37849,1.45061 0.0967,0.47144 0.19342,0.9308 0.30221,1.40225 1.34181,5.69362 4.60567,10.43226 9.41684,13.69613 0.0846,0.0604 0.16924,0.10879 0.24177,0.16923 3.49354,2.27262 7.39809,3.42101 11.3389,3.42101 2.6957,0 5.4035,-0.53189 8.0025,-1.61984 4.82326,-2.00667 8.71572,-5.59692 11.15757,-10.27512 0.97916,0.13298 1.9704,0.21759 2.96165,0.26595 4.29137,0.21759 8.61901,-0.29012 12.88621,-1.51105 3.96498,-1.13631 7.85744,-2.87703 11.56857,-5.17382 1.46269,-0.90663 2.90121,-1.89788 4.29137,-2.96165 4.23093,2.67153 8.92122,4.06169 13.9379,4.13422 4.76282,0.0846 9.5619,-1.07587 14.26428,-3.38475 2.52647,-1.2451 5.01667,-2.85285 7.43435,-4.81117 0.37474,0.26595 0.74948,0.53189 1.1363,0.78575 4.52106,2.98582 9.68279,4.89579 15.35224,5.68153 5.91121,0.82201 11.90705,0.1088 17.782,-2.06711 3.1188,-1.1484 6.10463,-2.67153 8.88495,-4.55732 1.2451,1.22093 2.67153,2.33306 4.25511,3.28804 4.75073,2.93748 10.15423,4.02543 15.64235,3.14298 4.53314,-0.72531 8.60693,-2.67153 11.90705,-5.64527 1.34181,1.14839 2.93748,2.23635 4.85953,3.19133 3.39683,1.75281 6.99917,2.599 10.7103,2.4902 3.25177,-0.0846 6.32222,-0.77365 9.11463,-2.05502 2.96165,-1.3539 5.52439,-3.28804 7.62776,-5.76616 0.20551,-0.25385 0.41101,-0.50771 0.61651,-0.76156 2.82868,3.13089 6.52772,5.50021 11.00042,7.04752 5.01668,1.78908 10.02126,2.20008 14.8687,1.20884 3.83202,-0.77366 7.49479,-2.16382 10.86745,-4.1584 0.30221,-0.18133 0.60442,-0.36266 0.90663,-0.55607 2.68362,1.98249 6.29804,3.75948 11.09712,4.70238 5.86286,1.18466 11.38725,0.67695 16.4281,-1.49896 1.36599,-0.59233 2.69571,-1.26928 3.97708,-2.04294 2.34514,1.5594 4.98041,2.73198 7.88162,3.49354 3.31221,0.87037 6.81784,1.11213 10.396,0.7374 0.0604,-0.0121 0.12088,-0.0121 0.16924,-0.0242 4.83535,-0.56815 9.70696,-2.42976 14.45769,-5.53648 0.70113,0.53189 1.43852,1.02752 2.20008,1.49896 5.37933,3.37266 11.59275,4.81117 17.9875,4.1584 5.34307,-0.54397 10.2993,-2.16382 14.79617,-4.85952 3.20342,-1.94623 6.12881,-4.29138 8.70363,-6.96291 2.27262,-2.35723 4.36391,-4.94414 6.22551,-7.6882 1.61985,-2.3935 3.17925,-4.90788 4.62985,-7.47062 1.2451,-2.21217 2.46603,-4.40017 3.67487,-6.58816 2.75615,-4.79909 2.8045,-9.16299 2.35723,-11.97958 -0.29012,-1.78908 -0.8341,-3.49354 -1.63193,-5.06503 2.71988,-1.78908 4.9925,-4.08587 6.76949,-6.82993 0.12088,-0.18132 0.24177,-0.37474 0.35056,-0.56815 3.0221,-5.3068 3.07045,-11.66528 0.0484,-17.04461 z"
   id="path58"
   style="stroke-width:1.20884" />
<g
   id="g111"
   transform="matrix(1.2088374,0,0,1.2088374,-62.164186,-61.630785)">
	<path
   class="st1"
   d="m 331.93,173.81 c -1.15,1.61 -2.08,3.27 -2.8,4.95 0.87,-0.82 1.72,-1.72 2.54,-2.68 0.03,-0.03 0.05,-0.06 0.08,-0.09 1.06,-1.18 2.04,-2.44 2.93,-3.74 0.85,-1.25 1.61,-2.53 2.25,-3.83 0.07,-0.16 0.14,-0.33 0.21,-0.5 -0.52,0.46 -1.03,0.94 -1.51,1.45 -1.41,1.45 -2.65,2.94 -3.7,4.44 z"
   id="path60" />
	<path
   class="st1"
   d="m 241.61,156.34 c 0.24,-0.51 0.47,-0.99 0.71,-1.49 -0.28,0.1 -0.56,0.2 -0.84,0.28 -0.07,0.02 -0.13,0.02 -0.2,0.04 0.13,0.38 0.25,0.77 0.33,1.17 z"
   id="path62" />
	<path
   class="st1"
   d="m 486.88,168.08 c 0.01,-0.01 0.03,-0.02 0.04,-0.04 0.13,-0.11 0.26,-0.22 0.4,-0.32 0.49,-1.02 1.02,-2.07 1.59,-3.14 0.81,-1.54 1.71,-3.21 2.69,-4.94 0.19,-0.33 0.38,-0.67 0.58,-1.02 -0.23,-0.16 -0.45,-0.33 -0.65,-0.5 -0.04,-0.04 -0.08,-0.07 -0.13,-0.11 -0.38,-0.35 -0.71,-0.72 -0.99,-1.12 -0.04,1.12 -0.31,2.22 -0.82,3.24 -0.75,1.5 -1.91,2.71 -3.47,3.61 -0.14,0.08 -0.28,0.16 -0.42,0.23 0.74,1.24 1.14,2.63 1.18,4.11 z"
   id="path64" />
	<path
   class="st1"
   d="m 235.45,170.64 c -0.08,0.1 -0.17,0.21 -0.25,0.31 0.07,-0.06 0.14,-0.13 0.21,-0.19 0.01,-0.04 0.03,-0.08 0.04,-0.12 z"
   id="path66" />
	<path
   class="st9"
   d="m 531.46,149.57 c 0,0 0,-0.01 0,0 -0.73,-1.29 -1.84,-2.23 -3.21,-2.77 0.37,-1.39 0.42,-2.84 0.14,-4.29 -0.49,-2.59 -1.86,-4.63 -3.96,-5.92 -1.63,-0.99 -3.46,-1.56 -5.44,-1.69 -1.75,-0.11 -3.55,0.09 -5.39,0.59 -1.82,0.5 -3.42,1.22 -4.73,2.12 -1.42,0.95 -2.75,2.04 -3.98,3.24 -0.6,0.59 -1.18,1.19 -1.74,1.8 -1.36,0.08 -2.73,0.33 -4.08,0.76 -2.04,0.64 -3.83,1.51 -5.33,2.58 -1.76,1.25 -3.05,2.72 -3.82,4.35 -0.35,0.74 -0.56,1.51 -0.64,2.26 -0.51,-0.8 -1.24,-1.63 -2.31,-2.4 -2.62,-1.82 -5.51,-3 -8.61,-3.5 -2.86,-0.47 -5.79,-0.52 -8.72,-0.14 -2.83,0.36 -5.64,1.05 -8.35,2.03 -2.64,0.96 -5.08,2.08 -7.2,3.3 -4.61,2.59 -8.78,5.77 -12.38,9.44 -1.7,1.73 -3.3,3.62 -4.78,5.63 -0.32,0.19 -0.63,0.42 -0.93,0.67 0.37,-0.79 0.72,-1.61 1.04,-2.45 0.64,-1.67 1,-3.38 1.09,-5.11 0.09,-1.87 -0.2,-3.7 -0.86,-5.43 -0.72,-1.89 -2.01,-3.59 -3.89,-5.1 -2.05,-1.59 -4.29,-2.58 -6.65,-2.93 -2.18,-0.33 -4.38,-0.22 -6.53,0.33 -1.94,0.49 -3.84,1.26 -5.65,2.27 -1.75,0.98 -3.34,2.1 -4.71,3.33 -0.08,0.07 -0.16,0.15 -0.24,0.22 -0.98,-1.53 -2.36,-2.89 -4.13,-4.06 -2.12,-1.41 -4.38,-2.18 -6.72,-2.3 -2.03,-0.1 -4.05,0.13 -6,0.69 -1.9,0.55 -3.73,1.4 -5.43,2.51 -0.97,0.63 -1.89,1.29 -2.75,1.98 -1.61,-1.39 -3.51,-2.29 -5.65,-2.67 -2.32,-0.42 -4.63,-0.17 -6.87,0.74 -1.42,0.58 -2.62,1.46 -3.57,2.6 -1.42,0.16 -2.78,0.28 -4.07,0.36 -2.89,0.17 -6.05,0.02 -9.4,-0.44 -1.13,-1.11 -2.4,-2.08 -3.81,-2.9 -1.82,-1.06 -3.74,-1.73 -5.74,-1.99 -0.85,-0.37 -1.75,-0.64 -2.71,-0.83 -1.16,-0.22 -2.37,-0.31 -3.6,-0.27 -1.09,0.03 -2.17,0.13 -3.22,0.29 -1.12,0.17 -2.08,0.39 -2.94,0.68 -2.47,0.75 -4.82,1.8 -6.98,3.14 -2.06,1.28 -3.99,2.7 -5.7,4.22 -3.69,3.19 -6.79,6.96 -9.23,11.19 -0.11,0.19 -0.21,0.37 -0.31,0.56 -0.51,0.32 -1.04,0.75 -1.55,1.3 -2.32,2.55 -4.65,5.15 -6.92,7.73 -0.12,0.14 -0.25,0.28 -0.37,0.42 0.01,-0.03 0.03,-0.06 0.05,-0.09 1.64,-3.02 3.69,-6.65 6.11,-10.79 0.89,-0.62 1.92,-1.43 3.11,-2.45 1.59,-1.36 3.27,-2.98 4.99,-4.8 1.76,-1.86 3.44,-3.86 4.99,-5.96 1.66,-2.23 3,-4.47 3.98,-6.67 1.13,-2.54 1.64,-5.04 1.51,-7.43 -0.17,-2.99 -1.58,-5.57 -4.08,-7.46 -0.03,-0.02 -0.06,-0.05 -0.09,-0.07 -2.79,-2 -5.9,-2.71 -8.99,-2.03 -2.5,0.54 -4.97,1.75 -7.35,3.6 -2.11,1.64 -4.17,3.69 -6.13,6.1 -1.84,2.27 -3.55,4.6 -5.07,6.93 -1.48,2.27 -2.82,4.42 -3.97,6.39 -1.16,1.99 -2.01,3.46 -2.58,4.5 -1.85,3.17 -3.59,6.43 -5.17,9.7 -0.1,0.21 -0.2,0.42 -0.29,0.63 -0.48,0.65 -1.01,1.38 -1.59,2.21 -0.69,0.99 -1.4,1.98 -2.11,2.97 -0.28,-1.69 -0.69,-3.36 -1.25,-5 1.11,-1.04 2.18,-2.17 3.19,-3.36 1.79,-2.1 3.37,-4.41 4.69,-6.82 1.25,-2.26 2.36,-4.81 3.29,-7.58 0.95,-2.82 1.57,-5.74 1.86,-8.67 0.29,-3.05 0.12,-6.07 -0.5,-8.99 -0.7,-3.25 -2.17,-6.14 -4.37,-8.59 -2.66,-2.99 -5.51,-4.81 -8.47,-5.42 -2.91,-0.6 -5.8,-0.3 -8.59,0.89 -2.47,1.05 -4.84,2.71 -7.03,4.92 -1.95,1.97 -3.79,4.16 -5.48,6.52 -1.66,2.31 -3.18,4.68 -4.53,7.05 -1.01,1.77 -1.92,3.43 -2.75,4.98 -0.45,-1.13 -1.13,-2.16 -2.05,-3.03 -1.8,-1.7 -4,-2.76 -6.51,-3.14 -2.36,-0.35 -4.75,-0.08 -7.09,0.8 -2.79,1.05 -4.85,2.99 -5.97,5.68 -1.02,2.52 -1.21,4.88 -0.55,7.01 0.12,0.4 0.29,0.78 0.45,1.16 -0.35,0.1 -0.7,0.22 -1.05,0.35 -2.74,1.05 -4.76,3.11 -5.83,5.91 -0.08,0.21 -0.26,0.58 -0.63,1.11 -0.42,0.6 -0.91,1.24 -1.45,1.88 -0.61,0.73 -1.22,1.44 -1.83,2.14 -0.68,0.78 -1.29,1.52 -1.8,2.17 -0.06,0.08 -0.12,0.15 -0.19,0.23 0.02,-0.26 0.04,-0.53 0.06,-0.8 0.14,-3.02 -0.74,-5.93 -2.61,-8.65 -1.9,-2.8 -4.57,-4.85 -7.92,-6.11 -3.12,-1.17 -6.38,-1.6 -9.67,-1.27 -2.68,0.25 -5.28,0.88 -7.71,1.87 -2.31,0.93 -4.52,2.1 -6.57,3.45 -2.03,1.34 -3.93,2.85 -5.66,4.5 -1.65,1.57 -3.17,3.19 -4.57,4.85 -1.4,1.73 -2.73,3.68 -3.94,5.79 -0.18,0.32 -0.36,0.64 -0.54,0.98 -0.17,0.12 -0.33,0.25 -0.49,0.38 l -1.33,1.13 c -0.04,0.04 -0.08,0.07 -0.12,0.11 l -0.96,0.88 c 0.63,-1.59 1.02,-3.23 1.16,-4.89 0.19,-2.47 -0.24,-4.7 -1.29,-6.63 -0.93,-1.7 -2.23,-3.19 -3.87,-4.43 -1.45,-1.1 -3.11,-2.01 -4.94,-2.72 -0.84,-0.33 -1.71,-0.63 -2.59,-0.92 -0.45,-0.9 -1.06,-1.75 -1.82,-2.53 -1.53,-1.57 -3.59,-2.62 -6.13,-3.12 -0.05,-0.01 -0.1,-0.02 -0.15,-0.03 -1.94,-0.31 -3.89,-0.22 -5.81,0.29 -1.81,0.48 -3.49,1.24 -5,2.27 -1.57,1.06 -2.89,2.38 -3.92,3.92 -0.01,0.01 -0.02,0.03 -0.03,0.04 -1.75,-4.01 -4.83,-5.13 -6.65,-5.43 -2.21,-0.41 -5.53,-0.27 -8.98,2.63 -2.06,1.73 -3.97,3.95 -5.68,6.6 -1.6,2.48 -3.04,5.17 -4.29,8 -1.18,2.68 -2.15,5.06 -2.87,7.08 -1.58,4.05 -2.99,8.38 -4.17,12.91 -0.63,0.34 -1.35,0.71 -2.14,1.12 -1.36,0.7 -2.8,1.24 -4.28,1.59 -1.3,0.31 -2.52,0.39 -3.64,0.24 -0.02,0 -0.04,-0.01 -0.05,-0.01 -0.03,-0.04 -0.07,-0.12 -0.13,-0.24 -0.52,-1.05 -0.74,-2.19 -0.66,-3.51 0.1,-1.76 0.43,-3.58 0.96,-5.39 0.56,-1.92 1.25,-3.75 2.05,-5.46 0.85,-1.82 1.64,-3.35 2.37,-4.63 2.5,-4.59 5.56,-9.18 9.08,-13.65 3.47,-4.4 7.29,-8.27 11.35,-11.5 3.96,-3.15 8.13,-5.55 12.39,-7.13 3.93,-1.46 7.69,-1.75 11.47,-0.89 3.32,0.78 6.28,-0.78 7.55,-3.96 0.8,-2 0.92,-4.14 0.35,-6.22 -0.01,-0.05 -0.03,-0.1 -0.04,-0.14 -0.79,-2.55 -1.96,-4.79 -3.46,-6.68 -1.46,-1.82 -3.14,-3.35 -4.99,-4.53 -1.78,-1.13 -3.66,-2.01 -5.61,-2.61 -1.97,-0.6 -3.88,-0.91 -5.68,-0.92 -3.74,-0.09 -7.62,0.6 -11.52,2.06 -3.71,1.39 -7.42,3.36 -11.02,5.83 -3.53,2.42 -7.02,5.34 -10.39,8.67 -3.34,3.3 -6.5,6.96 -9.39,10.86 -2.86,3.87 -5.49,7.96 -7.8,12.15 -2.33,4.23 -4.28,8.52 -5.8,12.77 -1.21,3.38 -2.17,7.08 -2.87,10.99 -0.71,3.99 -1,7.96 -0.87,11.81 0.14,3.98 0.84,7.83 2.07,11.43 1.3,3.8 3.33,7.17 6.03,10.01 2.27,2.38 4.73,4.01 7.32,4.86 2.46,0.8 4.98,1.09 7.49,0.86 2.07,-0.19 4.16,-0.74 6.22,-1.63 0.02,0.46 0.04,0.91 0.06,1.36 0.12,1.96 0.44,3.77 0.97,5.36 0.99,2.98 2.82,4.42 4.18,5.11 0.04,0.02 0.08,0.04 0.13,0.06 1.02,0.47 2.08,0.71 3.11,0.71 0.9,0 1.79,-0.18 2.61,-0.55 1.34,-0.59 2.48,-1.53 3.4,-2.83 0.67,-0.95 1.24,-2.07 1.7,-3.34 0.34,-0.97 0.66,-1.94 0.93,-2.9 0.02,-0.06 0.03,-0.12 0.05,-0.18 1.63,-6.73 3.6,-13.41 5.87,-19.98 0.71,0.15 1.53,0.2 2.5,0.06 1.7,-0.26 3.64,-1.07 6.09,-2.56 2.13,-1.3 4.42,-3.08 6.85,-5.32 0.23,-0.21 0.46,-0.43 0.69,-0.65 -0.12,0.76 -0.18,1.51 -0.18,2.25 0,3.31 1.05,6.33 3.12,8.97 2.16,2.75 5.2,4.46 9.03,5.06 3.06,0.49 6.04,0.24 8.85,-0.76 2.52,-0.89 4.89,-2.17 7.06,-3.79 1.85,-1.38 3.57,-2.92 5.11,-4.58 0.89,1.49 2.04,2.87 3.43,4.12 2.09,1.88 4.84,3.34 8.13,4.31 2.73,0.84 5.5,1.21 8.25,1.11 2.59,-0.09 5.17,-0.48 7.68,-1.15 2.46,-0.66 4.86,-1.55 7.14,-2.65 2.05,-0.99 3.99,-2.08 5.84,-3.29 0.19,0.33 0.4,0.66 0.62,0.99 1.55,2.26 4,3.9 7.28,4.9 2.71,0.9 5.34,1.17 7.8,0.8 2.29,-0.34 4.49,-1.07 6.53,-2.16 0.35,-0.18 0.69,-0.38 1.02,-0.58 -0.12,1.11 -0.21,2.2 -0.26,3.26 -0.15,2.23 0.03,4.44 0.54,6.59 0.66,2.81 2.26,5.15 4.7,6.8 1.62,1.06 3.4,1.59 5.19,1.59 1.23,0 2.47,-0.25 3.69,-0.75 2.77,-1.15 4.83,-3.32 5.98,-6.35 0.51,-1.4 0.91,-2.85 1.19,-4.33 2.51,1.07 5.14,1.68 7.84,1.82 2.71,0.14 5.45,-0.19 8.15,-0.96 2.61,-0.75 5.18,-1.9 7.66,-3.43 2.42,-1.49 4.72,-3.32 6.83,-5.44 0.24,-0.24 0.48,-0.48 0.71,-0.72 0.97,1.32 2.2,2.48 3.67,3.45 2.42,1.65 5.12,2.5 8.01,2.54 2.7,0.04 5.51,-0.64 8.3,-2.01 2.62,-1.29 5.21,-3.24 7.72,-5.8 0.61,-0.62 1.21,-1.29 1.81,-1.99 1.4,1.93 3.14,3.59 5.19,4.94 2.77,1.83 5.98,3.01 9.52,3.5 3.62,0.5 7.32,0.06 11,-1.31 2.25,-0.83 4.38,-1.96 6.34,-3.37 1.83,-1.31 3.55,-2.79 5.1,-4.38 0.36,-0.37 0.71,-0.74 1.06,-1.12 0.02,0.36 0.04,0.71 0.08,1.07 0.24,2.17 1.29,5.22 4.94,7.42 2.34,1.46 5.01,2 7.72,1.57 2.69,-0.43 4.94,-1.63 6.75,-3.62 1.03,-1.16 1.75,-2.51 2.15,-4.02 0.11,-0.42 0.38,-1.24 1.06,-2.82 0.53,-1.25 1.45,-2.94 2.71,-5.02 0.31,-0.51 0.66,-1.05 1.06,-1.63 -0.59,1.66 -0.95,3.36 -1.07,5.05 -0.14,2 0.16,3.92 0.89,5.71 0.9,2.18 2.58,3.88 5,5.06 1.67,0.87 3.39,1.29 5.2,1.24 1.64,-0.04 3.17,-0.38 4.54,-1.01 1.42,-0.65 2.64,-1.57 3.62,-2.74 1.1,-1.3 1.79,-2.78 2.05,-4.41 0.01,-0.06 0.02,-0.12 0.02,-0.18 0.06,-0.48 0.2,-0.92 0.45,-1.38 0.46,-0.83 0.98,-1.68 1.54,-2.54 1.33,-1.91 2.79,-3.79 4.36,-5.59 0.35,-0.4 0.71,-0.8 1.07,-1.21 -0.2,0.65 -0.37,1.31 -0.5,1.98 -0.43,2.1 -0.45,4.19 -0.05,6.21 0.43,2.18 1.38,4.17 2.83,5.92 1.5,1.81 3.62,3.2 6.22,4.08 2.85,1.03 5.64,1.27 8.29,0.74 2.33,-0.47 4.55,-1.32 6.61,-2.53 1.94,-1.14 3.75,-2.54 5.39,-4.15 0.08,-0.08 0.15,-0.15 0.23,-0.22 0.36,0.7 0.77,1.38 1.25,2.03 1.81,2.48 4.67,4.12 8.48,4.88 3.29,0.66 6.32,0.41 9.02,-0.76 2.36,-1.02 4.52,-2.49 6.41,-4.37 0.16,-0.16 0.31,-0.31 0.47,-0.47 0.78,1.23 1.74,2.3 2.87,3.2 1.42,1.13 3.12,1.96 5.04,2.47 1.84,0.48 3.81,0.62 5.9,0.4 2.97,-0.35 6.05,-1.6 9.15,-3.7 1.6,-1.09 3.15,-2.29 4.64,-3.6 1.08,2.02 2.73,3.73 4.9,5.04 3.05,1.93 6.45,2.72 10.09,2.35 3.28,-0.33 6.31,-1.32 9.03,-2.95 2.09,-1.27 3.99,-2.79 5.65,-4.52 1.58,-1.64 3.03,-3.44 4.33,-5.35 1.23,-1.8 2.4,-3.7 3.49,-5.63 1.03,-1.83 2.05,-3.65 3.05,-5.46 0.96,-1.65 1.31,-3.31 1.05,-4.93 -0.3,-1.92 -1.34,-3.48 -2.92,-4.41 -0.99,-0.58 -2.66,-1.16 -4.94,-0.61 -1.58,0.38 -3.02,1.32 -4.26,2.77 -0.79,0.88 -1.71,1.88 -2.76,3 -1.05,1.12 -2.18,2.28 -3.34,3.42 -0.33,0.32 -0.66,0.64 -1,0.96 0.81,-1.55 1.67,-3.13 2.56,-4.71 1.27,-2.24 2.56,-4.38 3.82,-6.34 0.65,-1.02 1.25,-1.93 1.77,-2.73 0.65,0 1.31,-0.02 1.98,-0.04 1.75,-0.06 3.47,-0.29 5.13,-0.67 1.74,-0.4 3.39,-1.01 4.89,-1.8 1.84,-0.97 3.34,-2.33 4.45,-4.05 0.04,-0.06 0.07,-0.11 0.11,-0.17 1.24,-2.16 1.25,-4.51 0.09,-6.58 z m -41.86,10.56 c 0.51,-1.02 0.78,-2.12 0.82,-3.24 0.28,0.4 0.61,0.77 0.99,1.12 0.04,0.04 0.08,0.08 0.13,0.11 0.21,0.18 0.43,0.35 0.65,0.5 -0.2,0.35 -0.39,0.69 -0.58,1.02 -0.98,1.74 -1.88,3.4 -2.69,4.94 -0.56,1.07 -1.09,2.12 -1.59,3.14 -0.14,0.1 -0.27,0.21 -0.4,0.32 -0.01,0.01 -0.03,0.02 -0.04,0.04 -0.05,-1.48 -0.45,-2.88 -1.18,-4.11 0.14,-0.07 0.28,-0.15 0.42,-0.23 1.55,-0.9 2.72,-2.11 3.47,-3.61 z M 231.85,142.87 c 0.63,-1.49 1.75,-2.54 3.38,-3.16 1.63,-0.61 3.24,-0.8 4.84,-0.56 1.6,0.24 2.96,0.89 4.09,1.96 1.13,1.07 1.5,2.53 1.13,4.39 -0.25,1.49 -0.85,2.66 -1.79,3.52 -0.94,0.85 -2.01,1.44 -3.2,1.76 -0.72,0.19 -1.47,0.28 -2.23,0.28 -0.49,0 -0.98,-0.03 -1.49,-0.12 -1.29,-0.21 -2.38,-0.66 -3.29,-1.36 -0.27,-0.21 -0.51,-0.44 -0.73,-0.69 -0.52,-0.57 -0.91,-1.25 -1.15,-2.03 -0.33,-1.11 -0.19,-2.45 0.44,-3.99 z m 10.47,11.97 c -0.24,0.5 -0.47,0.99 -0.71,1.49 -0.08,-0.4 -0.2,-0.79 -0.33,-1.17 0.07,-0.02 0.13,-0.02 0.2,-0.04 0.28,-0.07 0.56,-0.18 0.84,-0.28 z M 114.3,181.56 c -1.02,2.58 -1.99,5.18 -2.91,7.79 -2.53,7.16 -4.7,14.43 -6.49,21.82 -0.25,0.88 -0.53,1.75 -0.85,2.63 -0.31,0.88 -0.69,1.62 -1.13,2.24 -0.44,0.61 -0.96,1.05 -1.55,1.32 -0.6,0.26 -1.27,0.22 -2.02,-0.13 -0.88,-0.44 -1.52,-1.27 -1.93,-2.5 -0.41,-1.23 -0.66,-2.63 -0.75,-4.21 -0.09,-1.58 -0.11,-3.18 -0.05,-4.8 0.06,-1.62 0.16,-3.05 0.28,-4.28 -1.82,1.32 -3.7,2.46 -5.64,3.42 -1.94,0.97 -3.87,1.54 -5.78,1.71 -1.91,0.18 -3.81,-0.04 -5.69,-0.66 -1.88,-0.61 -3.7,-1.84 -5.45,-3.69 -2.26,-2.37 -3.93,-5.15 -5.03,-8.36 -1.1,-3.2 -1.71,-6.58 -1.83,-10.13 -0.13,-3.55 0.14,-7.17 0.8,-10.86 0.66,-3.69 1.55,-7.11 2.68,-10.27 1.44,-4.04 3.27,-8.07 5.5,-12.11 2.22,-4.03 4.71,-7.92 7.47,-11.65 2.76,-3.73 5.73,-7.17 8.93,-10.33 3.2,-3.16 6.45,-5.88 9.78,-8.16 3.32,-2.28 6.67,-4.06 10.06,-5.33 3.38,-1.27 6.67,-1.86 9.87,-1.78 1.38,0 2.85,0.24 4.42,0.72 1.57,0.48 3.07,1.18 4.51,2.1 1.44,0.92 2.74,2.11 3.9,3.55 1.16,1.45 2.05,3.18 2.68,5.2 0.31,1.14 0.25,2.26 -0.19,3.36 -0.44,1.1 -1.22,1.51 -2.35,1.25 -4.64,-1.05 -9.32,-0.7 -14.05,1.05 -4.73,1.76 -9.28,4.37 -13.63,7.83 -4.36,3.47 -8.38,7.55 -12.08,12.24 -3.7,4.69 -6.86,9.45 -9.49,14.28 -0.75,1.32 -1.58,2.94 -2.49,4.87 -0.91,1.93 -1.68,3.97 -2.3,6.12 -0.63,2.15 -1,4.28 -1.13,6.38 -0.13,2.11 0.25,4.04 1.13,5.79 0.75,1.58 1.96,2.48 3.62,2.7 1.66,0.22 3.42,0.11 5.26,-0.33 1.85,-0.44 3.62,-1.1 5.31,-1.97 1.69,-0.88 3.01,-1.58 3.95,-2.11 1.25,-5.09 2.76,-9.87 4.51,-14.35 0.69,-1.93 1.61,-4.21 2.77,-6.84 1.16,-2.63 2.47,-5.09 3.95,-7.37 1.47,-2.28 3.07,-4.15 4.79,-5.59 1.72,-1.45 3.49,-1.99 5.31,-1.65 1.69,0.26 2.88,1.43 3.57,3.49 0.69,2.06 0.69,4.37 0,6.91 -0.44,1.84 -1.05,3.69 -1.83,5.53 -0.78,1.84 -1.65,3.66 -2.58,5.46 -0.43,0.82 -0.87,1.61 -1.31,2.4 -0.54,0.95 -1.09,1.89 -1.65,2.8 -1.03,1.69 -1.99,3.18 -2.87,4.5 z m 413.24,-27.82 c -0.69,1.07 -1.61,1.91 -2.77,2.52 -1.16,0.61 -2.43,1.08 -3.81,1.4 -1.38,0.32 -2.81,0.51 -4.28,0.56 -1.47,0.05 -2.87,0.05 -4.18,0 -0.82,1.17 -1.88,2.78 -3.2,4.83 -1.32,2.05 -2.63,4.23 -3.95,6.55 -1.32,2.32 -2.55,4.63 -3.71,6.95 -1.16,2.32 -1.96,4.3 -2.4,5.95 -0.56,1.7 -0.55,2.81 0.05,3.32 0.59,0.51 1.8,0.25 3.62,-0.76 1.38,-0.75 2.74,-1.68 4.09,-2.8 1.35,-1.12 2.63,-2.28 3.85,-3.48 1.22,-1.2 2.38,-2.38 3.48,-3.56 1.1,-1.17 2.05,-2.21 2.87,-3.12 0.63,-0.74 1.27,-1.2 1.93,-1.36 0.66,-0.16 1.19,-0.12 1.6,0.12 0.41,0.24 0.66,0.65 0.75,1.24 0.09,0.59 -0.08,1.25 -0.52,2 -1,1.81 -2.02,3.64 -3.06,5.47 -1.03,1.84 -2.13,3.61 -3.29,5.31 -1.16,1.7 -2.44,3.29 -3.85,4.75 -1.41,1.47 -2.99,2.73 -4.75,3.8 -2.13,1.28 -4.51,2.05 -7.15,2.32 -2.63,0.27 -5.05,-0.29 -7.24,-1.68 -1.75,-1.06 -2.96,-2.38 -3.62,-3.95 -0.66,-1.57 -0.99,-3.24 -0.99,-4.99 0,-0.57 0.03,-1.14 0.08,-1.71 -0.9,1.12 -1.86,2.22 -2.9,3.3 -2.19,2.29 -4.54,4.29 -7.05,5.99 -2.51,1.7 -4.89,2.69 -7.14,2.96 -1.5,0.16 -2.91,0.07 -4.23,-0.28 -1.32,-0.35 -2.44,-0.89 -3.38,-1.64 -0.94,-0.75 -1.69,-1.66 -2.26,-2.76 -0.56,-1.09 -0.85,-2.28 -0.85,-3.56 0,-1.01 0.11,-2.02 0.33,-3.04 0.22,-1.01 0.52,-2.02 0.89,-3.04 -1.07,1.54 -2.19,3.22 -3.38,5.03 -1.19,1.81 -2.54,3.46 -4.04,4.95 -1.5,1.49 -3.18,2.64 -5.03,3.44 -1.85,0.8 -3.96,0.96 -6.34,0.48 -2.69,-0.53 -4.61,-1.57 -5.73,-3.12 -1.13,-1.54 -1.77,-3.29 -1.93,-5.23 -0.11,-1.41 -0.02,-2.84 0.26,-4.3 -0.05,0.06 -0.11,0.13 -0.16,0.19 -0.97,1.12 -1.87,2.16 -2.68,3.12 -1.13,1.23 -2.38,2.52 -3.76,3.88 -1.38,1.36 -2.88,2.52 -4.51,3.48 -1.63,0.96 -3.37,1.63 -5.22,2 -1.85,0.37 -3.81,0.19 -5.88,-0.56 -1.88,-0.64 -3.31,-1.54 -4.28,-2.72 -0.97,-1.17 -1.6,-2.48 -1.88,-3.91 -0.28,-1.43 -0.27,-2.92 0.05,-4.44 0.31,-1.52 0.81,-2.97 1.5,-4.35 0.94,-1.92 2.04,-3.77 3.29,-5.55 1.25,-1.78 2.6,-3.53 4.04,-5.23 3.13,-3.62 4.43,-5.72 3.9,-6.31 -0.53,-0.58 -2.49,0.29 -5.88,2.64 -1.82,1.23 -3.54,2.57 -5.17,4.04 -1.63,1.46 -3.2,2.94 -4.7,4.43 -1.88,1.86 -3.67,3.77 -5.36,5.71 -1.69,1.94 -3.26,3.95 -4.7,6.03 -0.63,0.96 -1.21,1.92 -1.74,2.88 -0.53,0.96 -0.86,1.97 -0.99,3.04 -0.13,0.8 -0.47,1.53 -1.03,2.2 -0.56,0.67 -1.26,1.19 -2.07,1.56 -0.82,0.37 -1.74,0.57 -2.77,0.6 -1.03,0.03 -2.05,-0.23 -3.05,-0.76 -1.44,-0.69 -2.4,-1.61 -2.87,-2.76 -0.47,-1.14 -0.66,-2.37 -0.56,-3.68 0.09,-1.3 0.38,-2.61 0.85,-3.91 0.47,-1.3 0.95,-2.46 1.46,-3.48 1.06,-1.92 2.26,-3.8 3.57,-5.63 1.32,-1.84 2.66,-3.66 4.04,-5.47 1.88,-2.56 2.98,-4.33 3.29,-5.31 0.31,-0.98 0.13,-1.45 -0.56,-1.4 -0.69,0.05 -1.74,0.51 -3.15,1.36 -1.41,0.85 -2.87,1.85 -4.37,3 -1.5,1.15 -2.91,2.3 -4.23,3.48 -1.32,1.17 -2.26,2.08 -2.82,2.72 -2.88,3.46 -5.02,6.33 -6.39,8.59 -1.38,2.26 -2.38,4.13 -3.01,5.59 -0.63,1.46 -1.05,2.61 -1.27,3.44 -0.22,0.83 -0.61,1.56 -1.18,2.2 -1.07,1.17 -2.43,1.89 -4.09,2.16 -1.66,0.27 -3.21,-0.05 -4.65,-0.96 -1.69,-1.01 -2.63,-2.37 -2.82,-4.07 -0.19,-1.7 0.02,-3.49 0.61,-5.35 0.6,-1.86 1.4,-3.66 2.4,-5.39 1,-1.73 1.85,-3.16 2.54,-4.28 1.13,-1.76 2.32,-3.48 3.57,-5.15 1.25,-1.68 2.54,-3.37 3.85,-5.07 0.41,-0.53 0.84,-1.09 1.29,-1.66 -0.13,0.04 -0.26,0.09 -0.39,0.14 -3.79,1.23 -7.51,2 -11.14,2.32 -0.25,2.24 -0.83,4.46 -1.74,6.67 -0.91,2.21 -1.9,4.25 -2.96,6.11 -0.88,1.55 -1.9,3.09 -3.06,4.63 -1.16,1.55 -2.43,3.02 -3.81,4.44 -1.38,1.41 -2.88,2.7 -4.51,3.88 -1.63,1.17 -3.38,2.1 -5.26,2.8 -3.01,1.12 -5.96,1.48 -8.84,1.08 -2.88,-0.4 -5.44,-1.33 -7.66,-2.8 -2.23,-1.46 -3.95,-3.36 -5.17,-5.67 -0.82,-1.56 -1.25,-3.2 -1.35,-4.92 0,0.01 -0.01,0.02 -0.01,0.02 -1.94,3.27 -3.99,6.02 -6.16,8.23 -2.16,2.21 -4.32,3.85 -6.49,4.91 -2.16,1.06 -4.25,1.58 -6.25,1.55 -2.01,-0.03 -3.85,-0.62 -5.55,-1.77 -1.57,-1.03 -2.69,-2.28 -3.38,-3.75 -0.69,-1.46 -1.08,-3.02 -1.18,-4.65 -0.01,-0.13 0,-0.26 -0.01,-0.39 -1.7,2.41 -3.54,4.61 -5.53,6.6 -1.88,1.88 -3.89,3.48 -6.02,4.79 -2.13,1.32 -4.31,2.29 -6.53,2.93 -2.23,0.64 -4.45,0.9 -6.67,0.79 -2.23,-0.11 -4.37,-0.62 -6.44,-1.52 -1.82,-0.83 -3.42,-2.1 -4.79,-3.84 -0.44,1.81 -0.77,3.63 -0.99,5.47 -0.22,1.84 -0.64,3.63 -1.27,5.36 -0.69,1.8 -1.85,3.05 -3.48,3.72 -1.63,0.68 -3.2,0.53 -4.7,-0.45 -1.44,-0.98 -2.37,-2.33 -2.77,-4.06 -0.41,-1.73 -0.55,-3.5 -0.42,-5.3 0.13,-2.86 0.55,-5.92 1.27,-9.19 0.51,-2.33 1.13,-4.7 1.85,-7.1 -0.89,0.96 -1.66,1.78 -2.28,2.44 -1.19,1.28 -2.46,2.54 -3.81,3.8 -1.35,1.25 -2.82,2.3 -4.42,3.16 -1.6,0.85 -3.29,1.41 -5.08,1.68 -1.79,0.27 -3.71,0.05 -5.78,-0.64 -2.32,-0.69 -3.96,-1.74 -4.94,-3.16 -0.97,-1.41 -1.5,-2.96 -1.6,-4.63 -0.03,-0.57 -0.01,-1.15 0.03,-1.73 -1.53,1.41 -3.14,2.73 -4.87,3.93 -1.76,1.17 -3.65,2.25 -5.69,3.24 -2.04,0.99 -4.15,1.77 -6.34,2.36 -2.19,0.59 -4.42,0.92 -6.67,1 -2.25,0.08 -4.51,-0.23 -6.77,-0.92 -2.69,-0.8 -4.84,-1.92 -6.44,-3.36 -1.6,-1.44 -2.74,-3.05 -3.43,-4.84 -0.67,-1.72 -0.96,-3.58 -0.89,-5.55 -0.48,0.64 -0.85,1.12 -1.08,1.44 -1.13,1.44 -2.43,2.98 -3.9,4.63 -1.47,1.65 -3.12,3.16 -4.94,4.52 -1.82,1.36 -3.78,2.41 -5.88,3.16 -2.1,0.74 -4.31,0.93 -6.63,0.56 -2.7,-0.43 -4.76,-1.56 -6.2,-3.4 -1.44,-1.84 -2.16,-3.9 -2.16,-6.19 0,-1.81 0.55,-3.74 1.65,-5.79 1.1,-2.05 2.29,-4.01 3.57,-5.87 1.28,-1.86 2.47,-3.54 3.57,-5.03 1.1,-1.49 1.64,-2.64 1.64,-3.44 0,-0.43 -0.41,-0.69 -1.22,-0.8 -0.82,-0.11 -1.47,-0.21 -1.97,-0.32 -1.13,1.39 -2.34,2.81 -3.62,4.28 -1.29,1.46 -2.59,2.9 -3.9,4.31 -1.32,1.41 -2.65,2.78 -4,4.11 -1.35,1.33 -2.62,2.56 -3.81,3.68 -2.19,2.02 -4.23,3.61 -6.11,4.75 -1.88,1.15 -3.35,1.8 -4.42,1.96 -1.06,0.16 -1.61,-0.16 -1.65,-0.96 -0.03,-0.8 0.7,-2.13 2.21,-3.99 1.44,-1.7 2.84,-3.38 4.18,-5.03 1.35,-1.65 2.65,-3.34 3.9,-5.07 1.25,-1.73 2.46,-3.54 3.62,-5.43 1.16,-1.89 2.24,-3.93 3.24,-6.11 -0.94,-0.96 -1.41,-2.29 -1.41,-3.99 0,-1.12 0.36,-2.21 1.08,-3.28 0.72,-1.06 1.63,-1.97 2.73,-2.72 1.1,-0.74 2.3,-1.29 3.62,-1.64 1.32,-0.35 2.63,-0.41 3.95,-0.2 1.63,0.32 2.88,0.93 3.76,1.84 0.88,0.91 1.38,1.92 1.5,3.04 1.57,0.43 3.07,0.92 4.51,1.48 1.44,0.56 2.73,1.27 3.85,2.12 1.13,0.85 2,1.85 2.63,3 0.63,1.15 0.88,2.52 0.75,4.12 -0.13,1.49 -0.53,2.97 -1.22,4.43 -0.69,1.47 -1.54,2.92 -2.54,4.36 -1,1.44 -2.04,2.82 -3.1,4.15 -1.07,1.33 -2.04,2.64 -2.91,3.91 -0.63,0.91 -1.14,1.77 -1.55,2.6 -0.41,0.83 -0.56,1.45 -0.47,1.88 0.09,0.43 0.48,0.56 1.18,0.4 0.69,-0.16 1.85,-0.77 3.48,-1.84 2.69,-1.76 5.2,-3.7 7.52,-5.83 2.32,-2.13 4.64,-4.26 6.96,-6.39 0.44,-0.37 0.88,-0.75 1.32,-1.12 0.29,-0.25 0.62,-0.42 0.97,-0.55 0.33,-0.68 0.67,-1.35 1.05,-2.01 1.1,-1.92 2.27,-3.65 3.53,-5.19 1.25,-1.49 2.65,-2.97 4.18,-4.44 1.54,-1.46 3.21,-2.8 5.03,-3.99 1.82,-1.2 3.74,-2.21 5.78,-3.04 2.04,-0.83 4.18,-1.35 6.44,-1.56 2.63,-0.26 5.18,0.07 7.66,1 2.47,0.93 4.4,2.41 5.78,4.44 1.32,1.92 1.93,3.89 1.83,5.91 -0.09,2.02 -0.66,3.97 -1.69,5.83 -1.03,1.86 -2.43,3.58 -4.18,5.15 -1.76,1.57 -3.6,2.84 -5.55,3.8 -3.2,1.6 -6.38,2.49 -9.54,2.68 -3.17,0.19 -6.35,-0.12 -9.54,-0.92 -0.5,1.23 -0.77,2.37 -0.8,3.44 -0.03,1.07 0.39,1.89 1.27,2.48 1.5,0.96 3.21,1.43 5.12,1.4 1.91,-0.03 3.9,-0.36 5.97,-1 2.07,-0.64 4.15,-1.51 6.25,-2.6 2.1,-1.09 4.09,-2.25 5.97,-3.48 1.88,-1.22 3.57,-2.44 5.08,-3.64 1.5,-1.2 2.69,-2.22 3.57,-3.08 0.63,-0.64 1.25,-1 1.88,-1.08 0.02,0 0.04,0 0.06,0 1.39,-1.8 2.81,-3.6 4.26,-5.4 0.5,-0.64 1.06,-1.32 1.69,-2.04 0.63,-0.72 1.25,-1.45 1.88,-2.2 0.63,-0.75 1.19,-1.48 1.69,-2.2 0.5,-0.72 0.88,-1.4 1.13,-2.04 0.63,-1.65 1.71,-2.77 3.24,-3.36 1.54,-0.59 3.04,-0.73 4.51,-0.44 1.47,0.29 2.69,0.97 3.67,2.04 0.97,1.07 1.21,2.45 0.7,4.15 -0.63,2.03 -1.68,3.96 -3.15,5.79 -1.47,1.84 -2.93,3.61 -4.37,5.31 -1.76,2.24 -3.46,4.37 -5.12,6.39 -1.66,2.02 -2.99,4.15 -4,6.39 -0.69,1.55 -0.75,2.6 -0.19,3.16 0.56,0.56 1.66,0.36 3.29,-0.6 1.5,-0.85 3.2,-2.04 5.08,-3.56 1.88,-1.52 3.71,-3.05 5.5,-4.59 1.79,-1.54 3.37,-2.94 4.75,-4.2 0.16,-0.14 0.28,-0.26 0.43,-0.39 0.27,-0.69 0.52,-1.39 0.79,-2.08 1.38,-3.46 2.8,-6.81 4.28,-10.04 1.47,-3.23 2.93,-6.3 4.37,-9.19 1.44,-2.89 2.76,-5.51 3.95,-7.84 0.94,-1.8 2.05,-3.84 3.34,-6.09 1.28,-2.26 2.71,-4.47 4.28,-6.66 1.57,-2.18 3.24,-4.17 5.03,-5.98 1.79,-1.8 3.65,-3.12 5.59,-3.95 1.94,-0.83 3.92,-1.03 5.92,-0.62 2.01,0.41 4.01,1.75 6.02,4 1.69,1.88 2.8,4.06 3.34,6.54 0.53,2.48 0.67,5.02 0.42,7.61 -0.25,2.6 -0.8,5.15 -1.64,7.67 -0.85,2.52 -1.83,4.79 -2.96,6.83 -1.19,2.18 -2.59,4.21 -4.18,6.09 -1.6,1.88 -3.31,3.54 -5.12,4.96 1.32,2.86 2.12,5.81 2.4,8.86 0.28,3.05 0.17,6.11 -0.33,9.19 0.88,-0.45 1.93,-1.35 3.15,-2.71 1.22,-1.35 2.44,-2.86 3.67,-4.51 1.22,-1.65 2.4,-3.29 3.53,-4.91 0.67,-0.95 1.26,-1.77 1.79,-2.47 0.15,-0.33 0.3,-0.66 0.46,-0.99 1.53,-3.19 3.21,-6.33 5.03,-9.43 0.56,-1.04 1.41,-2.51 2.54,-4.44 1.13,-1.92 2.41,-3.99 3.86,-6.2 1.44,-2.21 3.04,-4.39 4.79,-6.55 1.75,-2.15 3.56,-3.95 5.41,-5.38 1.85,-1.43 3.7,-2.35 5.55,-2.76 1.85,-0.4 3.65,0.03 5.41,1.29 1.44,1.09 2.21,2.47 2.3,4.13 0.09,1.67 -0.28,3.45 -1.13,5.34 -0.85,1.89 -2.01,3.83 -3.48,5.81 -1.47,1.98 -3.02,3.83 -4.65,5.56 -1.63,1.72 -3.18,3.22 -4.65,4.48 -1.47,1.26 -2.65,2.15 -3.53,2.67 -2.69,4.6 -4.93,8.54 -6.72,11.85 -1.79,3.3 -3.12,6.5 -3.99,9.61 -0.5,1.84 -0.31,2.96 0.56,3.36 0.88,0.4 2,0.08 3.38,-0.95 2.82,-2.18 5.39,-4.59 7.71,-7.24 2.32,-2.64 4.61,-5.2 6.86,-7.67 0.48,-0.52 0.98,-0.79 1.49,-0.87 0.3,-0.6 0.61,-1.19 0.95,-1.78 2.19,-3.81 4.95,-7.15 8.27,-10.03 1.57,-1.38 3.27,-2.65 5.12,-3.8 1.85,-1.14 3.84,-2.04 5.97,-2.68 0.63,-0.21 1.38,-0.39 2.26,-0.52 0.88,-0.13 1.77,-0.21 2.68,-0.24 0.91,-0.03 1.79,0.04 2.63,0.2 0.85,0.16 1.61,0.43 2.3,0.8 1.63,0.11 3.2,0.6 4.7,1.48 1.5,0.88 2.79,1.96 3.85,3.24 4.26,0.69 8.23,0.93 11.89,0.72 2.13,-0.12 4.3,-0.35 6.5,-0.65 0.5,-1.24 1.34,-2.13 2.57,-2.62 1.44,-0.59 2.9,-0.75 4.37,-0.48 1.47,0.27 2.74,0.91 3.81,1.92 1.06,1.01 1.47,2.29 1.22,3.84 0.5,-0.53 1,-1.04 1.5,-1.52 0.5,-0.48 1,-0.96 1.5,-1.44 1.06,-0.96 2.27,-1.88 3.62,-2.76 1.35,-0.88 2.76,-1.53 4.23,-1.96 1.47,-0.43 2.98,-0.6 4.51,-0.52 1.53,0.08 3.02,0.6 4.47,1.56 1.94,1.28 3.15,2.78 3.62,4.51 0.47,1.73 0.49,3.53 0.05,5.39 0.94,-1.12 1.93,-2.22 2.96,-3.32 1.03,-1.09 2.12,-2.14 3.24,-3.16 1.13,-1.01 2.43,-1.93 3.9,-2.76 1.47,-0.82 2.99,-1.44 4.56,-1.84 1.57,-0.4 3.15,-0.48 4.75,-0.24 1.6,0.24 3.12,0.92 4.56,2.04 1.19,0.96 2,2.01 2.44,3.16 0.44,1.15 0.63,2.34 0.56,3.6 -0.06,1.25 -0.33,2.49 -0.8,3.72 -0.47,1.23 -0.99,2.37 -1.55,3.44 -0.75,1.33 -1.63,2.72 -2.63,4.15 -1,1.44 -2.04,2.85 -3.1,4.23 -1.07,1.39 -2.13,2.74 -3.2,4.08 -1.07,1.33 -2.01,2.56 -2.82,3.67 -0.56,0.75 -0.94,1.41 -1.13,2 -0.19,0.59 -0.17,1.03 0.05,1.32 0.22,0.29 0.66,0.35 1.32,0.16 0.66,-0.19 1.58,-0.71 2.77,-1.56 1.32,-0.96 2.84,-2.16 4.56,-3.6 1.72,-1.44 3.38,-2.85 4.98,-4.23 1.6,-1.38 3.01,-2.65 4.23,-3.8 1.22,-1.14 2.02,-1.88 2.4,-2.2 0.38,-0.36 0.77,-0.59 1.19,-0.7 1.48,-2.11 3.14,-4.14 5.02,-6.05 3.32,-3.38 7.11,-6.27 11.37,-8.67 1.94,-1.12 4.12,-2.12 6.53,-3 2.41,-0.88 4.87,-1.48 7.38,-1.8 2.51,-0.32 4.98,-0.28 7.43,0.12 2.44,0.4 4.7,1.32 6.77,2.76 0.81,0.59 1.3,1.27 1.46,2.04 0.16,0.77 0.06,1.51 -0.28,2.2 -0.34,0.69 -0.91,1.27 -1.69,1.72 -0.79,0.45 -1.71,0.63 -2.77,0.52 -3.2,-0.32 -6.25,-0.05 -9.17,0.8 -2.91,0.85 -5.62,2.07 -8.13,3.64 -2.51,1.57 -4.78,3.36 -6.82,5.35 -2.04,2 -3.78,4.01 -5.22,6.03 -2.51,3.51 -3.71,5.82 -3.62,6.91 0.09,1.09 0.95,1.27 2.58,0.52 1.63,-0.74 3.74,-2.26 6.35,-4.55 2.6,-2.29 5.18,-5.03 7.75,-8.23 0.63,-0.74 1.3,-1.52 2.02,-2.32 0.72,-0.8 1.5,-1.53 2.35,-2.2 0.85,-0.66 1.8,-1.22 2.87,-1.68 1.06,-0.45 2.22,-0.73 3.48,-0.84 1.5,-0.11 2.77,0.05 3.81,0.48 1.03,0.43 1.82,1.03 2.35,1.8 0.53,0.77 0.75,1.69 0.66,2.76 -0.09,1.07 -0.55,2.18 -1.36,3.36 -0.38,0.59 -0.88,1.27 -1.5,2.04 -0.62,0.77 -1.27,1.61 -1.93,2.52 -0.66,0.91 -1.29,1.83 -1.88,2.76 -0.6,0.93 -1.08,1.83 -1.46,2.68 -0.5,1.17 -0.38,1.72 0.38,1.64 0.75,-0.08 1.75,-0.57 3.01,-1.48 2.38,-1.7 4.56,-3.53 6.53,-5.47 1.97,-1.94 3.87,-3.74 5.69,-5.39 0.3,-0.25 0.61,-0.4 0.93,-0.48 0.01,-0.01 0.01,-0.02 0.01,-0.03 0.63,-1.36 1.33,-2.78 2.12,-4.28 0.78,-1.49 1.66,-3.1 2.63,-4.83 0.97,-1.73 2.08,-3.64 3.34,-5.71 -0.88,-0.11 -1.71,-0.27 -2.49,-0.48 -0.78,-0.21 -1.43,-0.53 -1.93,-0.96 -0.75,-0.69 -0.91,-1.5 -0.47,-2.44 0.44,-0.93 1.22,-1.8 2.35,-2.6 1.13,-0.8 2.49,-1.45 4.09,-1.96 1.6,-0.51 3.18,-0.68 4.75,-0.52 0.88,-1.06 1.83,-2.1 2.87,-3.12 1.03,-1.01 2.15,-1.92 3.34,-2.72 0.94,-0.64 2.08,-1.14 3.43,-1.52 1.35,-0.37 2.65,-0.52 3.9,-0.44 1.25,0.08 2.38,0.43 3.38,1.04 1,0.61 1.63,1.59 1.88,2.92 0.25,1.28 0.05,2.48 -0.61,3.6 -0.66,1.12 -1.43,2.16 -2.3,3.12 0.69,0.21 1.41,0.39 2.16,0.52 0.75,0.13 1.47,0.2 2.16,0.2 1.06,0 1.79,0.33 2.16,1 0.37,0.62 0.37,1.28 0,1.92 z m -292.09,16.9 c -0.02,0.04 -0.03,0.08 -0.05,0.12 -0.07,0.06 -0.14,0.12 -0.21,0.19 0.09,-0.1 0.18,-0.21 0.26,-0.31 z"
   id="path68" />
	<path
   class="st9"
   d="m 337.55,161.97 c -1.88,1.23 -3.6,2.65 -5.17,4.28 -1.57,1.63 -2.95,3.29 -4.14,4.99 l -3.48,6.31 c -0.88,2.18 -1.41,4.08 -1.6,5.67 -0.19,1.6 0.05,2.7 0.71,3.32 0.66,0.61 1.86,0.36 3.62,-0.76 1.5,-1.01 2.87,-2.06 4.09,-3.16 1.22,-1.09 2.4,-2.3 3.53,-3.64 1.19,-1.33 2.29,-2.73 3.29,-4.2 1,-1.46 1.88,-2.97 2.63,-4.51 0.31,-0.74 0.63,-1.53 0.94,-2.36 0.31,-0.83 0.53,-1.72 0.66,-2.68 -0.94,-0.26 -1.83,-0.65 -2.68,-1.16 -0.85,-0.51 -1.65,-1.2 -2.4,-2.1 z m -0.62,6.45 c -0.64,1.3 -1.39,2.59 -2.25,3.83 -0.89,1.3 -1.87,2.55 -2.93,3.74 -0.03,0.03 -0.05,0.06 -0.08,0.09 -0.82,0.96 -1.67,1.86 -2.54,2.68 0.72,-1.68 1.65,-3.34 2.8,-4.95 1.05,-1.5 2.29,-2.99 3.69,-4.45 0.48,-0.5 0.99,-0.98 1.51,-1.45 -0.06,0.18 -0.13,0.34 -0.2,0.51 z"
   id="path70" />
	<path
   class="st9"
   d="m 189.08,171.64 c 2.44,-0.8 4.54,-2.1 6.3,-3.92 0.44,-0.42 0.97,-1.06 1.6,-1.92 0.63,-0.85 1.03,-1.68 1.22,-2.48 0.31,-0.9 0.19,-1.45 -0.38,-1.64 -0.56,-0.19 -1.22,-0.17 -1.97,0.04 -1.07,0.27 -2.08,0.73 -3.06,1.4 -0.97,0.67 -1.83,1.29 -2.58,1.88 -1.32,1.07 -2.54,2.21 -3.67,3.44 -1.13,1.22 -2.16,2.48 -3.1,3.75 2,0.16 3.88,-0.02 5.64,-0.55 z"
   id="path72" />
	<path
   class="st9"
   d="m 275.47,140.93 c 0.12,-1.13 0.15,-2.14 0.09,-3.05 -0.06,-0.9 -0.28,-1.52 -0.66,-1.86 -0.38,-0.34 -0.97,-0.17 -1.79,0.51 -1.13,0.98 -2.27,2.37 -3.43,4.17 -1.16,1.81 -2.29,3.72 -3.38,5.75 -1.1,2.03 -2.12,4.04 -3.06,6.04 -0.94,1.99 -1.72,3.67 -2.35,5.02 1.19,-0.38 2.38,-0.43 3.57,-0.17 1.19,0.26 2.29,0.7 3.29,1.3 1.94,-2.18 3.43,-4.49 4.47,-6.94 1.03,-2.44 1.93,-5.02 2.68,-7.73 0.26,-0.9 0.44,-1.91 0.57,-3.04 z"
   id="path74" />
	<path
   class="st9"
   d="m 262.12,169.92 c -1.25,-0.45 -2.27,-1.02 -3.06,-1.69 -0.78,-0.68 -1.3,-1.77 -1.55,-3.27 -1.25,2.86 -2.49,5.75 -3.71,8.69 -1.22,2.93 -2.37,5.91 -3.43,8.91 0.75,0.15 1.46,0.45 2.11,0.9 0.66,0.45 1.28,0.92 1.88,1.41 0.59,0.49 1.21,1 1.83,1.52 0.63,0.53 1.28,0.94 1.97,1.24 1.13,-1.2 2.08,-2.52 2.87,-3.95 0.78,-1.43 1.36,-2.91 1.74,-4.46 0.38,-1.54 0.52,-3.1 0.42,-4.68 -0.08,-1.57 -0.44,-3.11 -1.07,-4.62 z"
   id="path76" />
	<path
   class="st9"
   d="m 232.57,148.9 c 0.22,0.25 0.46,0.48 0.73,0.69 0.91,0.69 2.01,1.14 3.29,1.36 0.5,0.08 1,0.11 1.49,0.12 0.76,0 1.5,-0.08 2.23,-0.28 1.19,-0.32 2.26,-0.9 3.2,-1.76 0.94,-0.85 1.54,-2.02 1.79,-3.52 0.38,-1.86 0,-3.33 -1.13,-4.39 -1.13,-1.06 -2.49,-1.72 -4.09,-1.96 -1.6,-0.24 -3.21,-0.05 -4.84,0.56 -1.63,0.61 -2.76,1.67 -3.38,3.16 -0.63,1.54 -0.77,2.88 -0.42,3.99 0.23,0.78 0.62,1.45 1.13,2.03 z"
   id="path78" />
	<linearGradient
   id="SVGID_1_"
   gradientUnits="userSpaceOnUse"
   x1="238.3385"
   y1="139.0517"
   x2="238.3385"
   y2="151.0668">
		<stop
   offset="1"
   style="stop-color:#F8BE41"
   id="stop80" />
		<stop
   offset="1"
   style="stop-color:#F8DF77"
   id="stop82" />
		<stop
   offset="1"
   style="stop-color:#F7EF91"
   id="stop84" />
	</linearGradient>
	<path
   class="st10"
   d="m 232.57,148.9 c 0.22,0.25 0.46,0.48 0.73,0.69 0.91,0.69 2.01,1.14 3.29,1.36 0.5,0.08 1,0.11 1.49,0.12 0.76,0 1.5,-0.08 2.23,-0.28 1.19,-0.32 2.26,-0.9 3.2,-1.76 0.94,-0.85 1.54,-2.02 1.79,-3.52 0.38,-1.86 0,-3.33 -1.13,-4.39 -1.13,-1.06 -2.49,-1.72 -4.09,-1.96 -1.6,-0.24 -3.21,-0.05 -4.84,0.56 -1.63,0.61 -2.76,1.67 -3.38,3.16 -0.63,1.54 -0.77,2.88 -0.42,3.99 0.23,0.78 0.62,1.45 1.13,2.03 z"
   id="path87"
   style="fill:url(#SVGID_1_)" />
	<path
   class="st9"
   d="m 118.82,174.29 c 0.45,-0.79 0.88,-1.59 1.31,-2.4 0.94,-1.8 1.8,-3.62 2.58,-5.46 0.78,-1.84 1.39,-3.69 1.83,-5.53 0.69,-2.54 0.69,-4.85 0,-6.91 -0.69,-2.06 -1.88,-3.22 -3.57,-3.49 -1.82,-0.35 -3.59,0.2 -5.31,1.65 -1.72,1.45 -3.32,3.31 -4.79,5.59 -1.47,2.28 -2.79,4.74 -3.95,7.37 -1.16,2.63 -2.08,4.92 -2.77,6.84 -1.75,4.47 -3.26,9.26 -4.51,14.35 -0.94,0.53 -2.26,1.23 -3.95,2.11 -1.69,0.88 -3.46,1.54 -5.31,1.97 -1.85,0.44 -3.6,0.55 -5.26,0.33 -1.66,-0.22 -2.87,-1.12 -3.62,-2.7 -0.88,-1.75 -1.25,-3.69 -1.13,-5.79 0.13,-2.1 0.5,-4.23 1.13,-6.38 0.63,-2.15 1.39,-4.19 2.3,-6.12 0.91,-1.93 1.74,-3.55 2.49,-4.87 2.63,-4.83 5.8,-9.59 9.49,-14.28 3.7,-4.69 7.72,-8.77 12.08,-12.24 4.36,-3.46 8.9,-6.07 13.63,-7.83 4.73,-1.75 9.42,-2.11 14.05,-1.05 1.13,0.26 1.91,-0.15 2.35,-1.25 0.44,-1.1 0.5,-2.22 0.19,-3.36 -0.63,-2.02 -1.52,-3.75 -2.68,-5.2 -1.16,-1.45 -2.46,-2.63 -3.9,-3.55 -1.44,-0.92 -2.95,-1.62 -4.51,-2.1 -1.57,-0.48 -3.04,-0.72 -4.42,-0.72 -3.2,-0.09 -6.49,0.51 -9.87,1.78 -3.38,1.27 -6.74,3.05 -10.06,5.33 -3.32,2.28 -6.58,5 -9.78,8.16 -3.2,3.16 -6.17,6.6 -8.93,10.33 -2.76,3.73 -5.25,7.61 -7.47,11.65 -2.23,4.04 -4.06,8.07 -5.5,12.11 -1.13,3.16 -2.02,6.58 -2.68,10.27 -0.66,3.69 -0.93,7.3 -0.8,10.86 0.12,3.55 0.74,6.93 1.83,10.13 1.1,3.2 2.77,5.99 5.03,8.36 1.75,1.84 3.57,3.07 5.45,3.69 1.88,0.61 3.78,0.83 5.69,0.66 1.91,-0.17 3.84,-0.74 5.78,-1.71 1.94,-0.97 3.82,-2.11 5.64,-3.42 -0.13,1.23 -0.22,2.65 -0.28,4.28 -0.06,1.62 -0.05,3.22 0.05,4.8 0.09,1.58 0.34,2.98 0.75,4.21 0.41,1.23 1.05,2.06 1.93,2.5 0.75,0.35 1.42,0.39 2.02,0.13 0.6,-0.26 1.11,-0.7 1.55,-1.32 0.44,-0.62 0.81,-1.36 1.13,-2.24 0.31,-0.88 0.59,-1.76 0.85,-2.63 1.79,-7.39 3.96,-14.67 6.49,-21.82 0.92,-2.61 1.89,-5.21 2.91,-7.79 0.88,-1.32 1.83,-2.81 2.87,-4.47 0.56,-0.95 1.11,-1.88 1.65,-2.83 z"
   id="path89" />
	<linearGradient
   id="SVGID_2_"
   gradientUnits="userSpaceOnUse"
   x1="102.8688"
   y1="113.242"
   x2="102.8688"
   y2="217.52271">
		<stop
   offset="0.5915"
   style="stop-color:#F8BE41"
   id="stop91" />
		<stop
   offset="0.6608"
   style="stop-color:#F8DF77"
   id="stop93" />
		<stop
   offset="0.7024"
   style="stop-color:#F7EF91"
   id="stop95" />
	</linearGradient>
	<path
   class="st11"
   d="m 118.82,174.29 c 0.45,-0.79 0.88,-1.59 1.31,-2.4 0.94,-1.8 1.8,-3.62 2.58,-5.46 0.78,-1.84 1.39,-3.69 1.83,-5.53 0.69,-2.54 0.69,-4.85 0,-6.91 -0.69,-2.06 -1.88,-3.22 -3.57,-3.49 -1.82,-0.35 -3.59,0.2 -5.31,1.65 -1.72,1.45 -3.32,3.31 -4.79,5.59 -1.47,2.28 -2.79,4.74 -3.95,7.37 -1.16,2.63 -2.08,4.92 -2.77,6.84 -1.75,4.47 -3.26,9.26 -4.51,14.35 -0.94,0.53 -2.26,1.23 -3.95,2.11 -1.69,0.88 -3.46,1.54 -5.31,1.97 -1.85,0.44 -3.6,0.55 -5.26,0.33 -1.66,-0.22 -2.87,-1.12 -3.62,-2.7 -0.88,-1.75 -1.25,-3.69 -1.13,-5.79 0.13,-2.1 0.5,-4.23 1.13,-6.38 0.63,-2.15 1.39,-4.19 2.3,-6.12 0.91,-1.93 1.74,-3.55 2.49,-4.87 2.63,-4.83 5.8,-9.59 9.49,-14.28 3.7,-4.69 7.72,-8.77 12.08,-12.24 4.36,-3.46 8.9,-6.07 13.63,-7.83 4.73,-1.75 9.42,-2.11 14.05,-1.05 1.13,0.26 1.91,-0.15 2.35,-1.25 0.44,-1.1 0.5,-2.22 0.19,-3.36 -0.63,-2.02 -1.52,-3.75 -2.68,-5.2 -1.16,-1.45 -2.46,-2.63 -3.9,-3.55 -1.44,-0.92 -2.95,-1.62 -4.51,-2.1 -1.57,-0.48 -3.04,-0.72 -4.42,-0.72 -3.2,-0.09 -6.49,0.51 -9.87,1.78 -3.38,1.27 -6.74,3.05 -10.06,5.33 -3.32,2.28 -6.58,5 -9.78,8.16 -3.2,3.16 -6.17,6.6 -8.93,10.33 -2.76,3.73 -5.25,7.61 -7.47,11.65 -2.23,4.04 -4.06,8.07 -5.5,12.11 -1.13,3.16 -2.02,6.58 -2.68,10.27 -0.66,3.69 -0.93,7.3 -0.8,10.86 0.12,3.55 0.74,6.93 1.83,10.13 1.1,3.2 2.77,5.99 5.03,8.36 1.75,1.84 3.57,3.07 5.45,3.69 1.88,0.61 3.78,0.83 5.69,0.66 1.91,-0.17 3.84,-0.74 5.78,-1.71 1.94,-0.97 3.82,-2.11 5.64,-3.42 -0.13,1.23 -0.22,2.65 -0.28,4.28 -0.06,1.62 -0.05,3.22 0.05,4.8 0.09,1.58 0.34,2.98 0.75,4.21 0.41,1.23 1.05,2.06 1.93,2.5 0.75,0.35 1.42,0.39 2.02,0.13 0.6,-0.26 1.11,-0.7 1.55,-1.32 0.44,-0.62 0.81,-1.36 1.13,-2.24 0.31,-0.88 0.59,-1.76 0.85,-2.63 1.79,-7.39 3.96,-14.67 6.49,-21.82 0.92,-2.61 1.89,-5.21 2.91,-7.79 0.88,-1.32 1.83,-2.81 2.87,-4.47 0.56,-0.95 1.11,-1.88 1.65,-2.83 z"
   id="path98"
   style="fill:url(#SVGID_2_)" />
	<path
   class="st9"
   d="m 525.38,150.78 c -0.69,0 -1.41,-0.07 -2.16,-0.2 -0.75,-0.13 -1.47,-0.31 -2.16,-0.52 0.88,-0.96 1.64,-2 2.3,-3.12 0.66,-1.12 0.86,-2.32 0.61,-3.6 -0.25,-1.33 -0.88,-2.3 -1.88,-2.92 -1,-0.61 -2.13,-0.96 -3.38,-1.04 -1.26,-0.08 -2.55,0.07 -3.9,0.44 -1.35,0.37 -2.49,0.88 -3.43,1.52 -1.19,0.8 -2.3,1.7 -3.34,2.72 -1.03,1.01 -1.99,2.05 -2.87,3.12 -1.57,-0.16 -3.15,0.01 -4.75,0.52 -1.6,0.51 -2.96,1.16 -4.09,1.96 -1.13,0.8 -1.91,1.67 -2.35,2.6 -0.44,0.93 -0.28,1.75 0.47,2.44 0.5,0.43 1.14,0.75 1.93,0.96 0.78,0.21 1.61,0.37 2.49,0.48 -1.25,2.08 -2.37,3.98 -3.34,5.71 -0.97,1.73 -1.85,3.34 -2.63,4.83 -0.79,1.49 -1.49,2.92 -2.12,4.28 -0.01,0.01 -0.01,0.02 -0.01,0.03 -0.32,0.09 -0.63,0.23 -0.93,0.48 -1.82,1.65 -3.71,3.45 -5.69,5.39 -1.98,1.95 -4.15,3.77 -6.53,5.47 -1.26,0.91 -2.26,1.4 -3.01,1.48 -0.75,0.08 -0.88,-0.47 -0.38,-1.64 0.38,-0.85 0.86,-1.74 1.46,-2.68 0.6,-0.93 1.22,-1.85 1.88,-2.76 0.66,-0.9 1.3,-1.74 1.93,-2.52 0.63,-0.78 1.13,-1.45 1.5,-2.04 0.81,-1.17 1.27,-2.29 1.36,-3.36 0.09,-1.06 -0.13,-1.98 -0.66,-2.76 -0.53,-0.77 -1.32,-1.37 -2.35,-1.8 -1.03,-0.42 -2.3,-0.58 -3.81,-0.48 -1.26,0.11 -2.41,0.39 -3.48,0.84 -1.07,0.45 -2.02,1.01 -2.87,1.68 -0.85,0.67 -1.63,1.4 -2.35,2.2 -0.72,0.8 -1.4,1.57 -2.02,2.32 -2.57,3.2 -5.16,5.94 -7.75,8.23 -2.6,2.29 -4.72,3.81 -6.35,4.55 -1.63,0.75 -2.49,0.57 -2.58,-0.52 -0.09,-1.09 1.11,-3.4 3.62,-6.91 1.44,-2.02 3.18,-4.04 5.22,-6.03 2.04,-2 4.31,-3.78 6.82,-5.35 2.51,-1.57 5.22,-2.78 8.13,-3.64 2.91,-0.85 5.97,-1.12 9.17,-0.8 1.06,0.11 1.99,-0.07 2.77,-0.52 0.78,-0.45 1.35,-1.03 1.69,-1.72 0.34,-0.69 0.44,-1.42 0.28,-2.2 -0.16,-0.77 -0.64,-1.45 -1.46,-2.04 -2.07,-1.44 -4.33,-2.36 -6.77,-2.76 -2.44,-0.4 -4.92,-0.44 -7.43,-0.12 -2.51,0.32 -4.97,0.92 -7.38,1.8 -2.41,0.88 -4.59,1.88 -6.53,3 -4.26,2.4 -8.05,5.29 -11.37,8.67 -1.88,1.92 -3.54,3.94 -5.02,6.05 -0.41,0.1 -0.81,0.34 -1.19,0.7 -0.38,0.32 -1.18,1.05 -2.4,2.2 -1.22,1.14 -2.63,2.41 -4.23,3.8 -1.6,1.38 -3.26,2.8 -4.98,4.23 -1.72,1.44 -3.24,2.64 -4.56,3.6 -1.19,0.85 -2.12,1.37 -2.77,1.56 -0.66,0.19 -1.1,0.13 -1.32,-0.16 -0.22,-0.29 -0.23,-0.73 -0.05,-1.32 0.19,-0.59 0.56,-1.25 1.13,-2 0.81,-1.12 1.75,-2.34 2.82,-3.67 1.06,-1.33 2.13,-2.69 3.2,-4.08 1.06,-1.38 2.1,-2.8 3.1,-4.23 1,-1.44 1.88,-2.82 2.63,-4.15 0.56,-1.06 1.08,-2.21 1.55,-3.44 0.47,-1.22 0.74,-2.46 0.8,-3.72 0.06,-1.25 -0.13,-2.45 -0.56,-3.6 -0.44,-1.14 -1.25,-2.2 -2.44,-3.16 -1.44,-1.12 -2.96,-1.8 -4.56,-2.04 -1.6,-0.24 -3.18,-0.16 -4.75,0.24 -1.57,0.4 -3.09,1.01 -4.56,1.84 -1.47,0.83 -2.77,1.75 -3.9,2.76 -1.13,1.01 -2.21,2.06 -3.24,3.16 -1.03,1.09 -2.02,2.2 -2.96,3.32 0.44,-1.86 0.42,-3.66 -0.05,-5.39 -0.47,-1.73 -1.68,-3.24 -3.62,-4.51 -1.44,-0.96 -2.93,-1.48 -4.47,-1.56 -1.54,-0.08 -3.04,0.09 -4.51,0.52 -1.47,0.43 -2.88,1.08 -4.23,1.96 -1.35,0.88 -2.55,1.8 -3.62,2.76 -0.5,0.48 -1,0.96 -1.5,1.44 -0.5,0.48 -1,0.99 -1.5,1.52 0.25,-1.54 -0.16,-2.82 -1.22,-3.84 -1.07,-1.01 -2.33,-1.65 -3.81,-1.92 -1.47,-0.27 -2.93,-0.11 -4.37,0.48 -1.23,0.5 -2.07,1.39 -2.57,2.62 -2.2,0.3 -4.37,0.53 -6.5,0.65 -3.67,0.21 -7.63,-0.03 -11.89,-0.72 -1.07,-1.28 -2.35,-2.36 -3.85,-3.24 -1.5,-0.88 -3.07,-1.37 -4.7,-1.48 -0.69,-0.37 -1.46,-0.64 -2.3,-0.8 -0.85,-0.16 -1.72,-0.23 -2.63,-0.2 -0.91,0.03 -1.8,0.11 -2.68,0.24 -0.88,0.13 -1.63,0.31 -2.26,0.52 -2.13,0.64 -4.12,1.53 -5.97,2.68 -1.85,1.15 -3.56,2.41 -5.12,3.8 -3.32,2.88 -6.08,6.22 -8.27,10.03 -0.34,0.59 -0.65,1.19 -0.95,1.78 -0.51,0.08 -1.01,0.35 -1.49,0.87 -2.26,2.47 -4.55,5.03 -6.86,7.67 -2.32,2.64 -4.89,5.05 -7.71,7.24 -1.38,1.03 -2.51,1.35 -3.38,0.95 -0.88,-0.4 -1.07,-1.52 -0.56,-3.36 0.88,-3.1 2.21,-6.3 3.99,-9.61 1.79,-3.3 4.03,-7.25 6.72,-11.85 0.88,-0.52 2.05,-1.41 3.53,-2.67 1.47,-1.26 3.02,-2.76 4.65,-4.48 1.63,-1.72 3.18,-3.57 4.65,-5.56 1.47,-1.98 2.63,-3.92 3.48,-5.81 0.84,-1.9 1.22,-3.67 1.13,-5.34 -0.09,-1.66 -0.86,-3.04 -2.3,-4.13 -1.76,-1.26 -3.56,-1.69 -5.41,-1.29 -1.85,0.4 -3.7,1.32 -5.55,2.76 -1.85,1.44 -3.65,3.23 -5.41,5.38 -1.75,2.15 -3.35,4.34 -4.79,6.55 -1.44,2.21 -2.73,4.28 -3.86,6.2 -1.13,1.92 -1.98,3.4 -2.54,4.44 -1.82,3.1 -3.49,6.25 -5.03,9.43 -0.16,0.33 -0.3,0.66 -0.46,0.99 -0.53,0.71 -1.13,1.52 -1.79,2.47 -1.13,1.62 -2.3,3.25 -3.53,4.91 -1.22,1.66 -2.44,3.16 -3.67,4.51 -1.22,1.35 -2.27,2.26 -3.15,2.71 0.5,-3.08 0.61,-6.15 0.33,-9.19 -0.28,-3.05 -1.08,-6 -2.4,-8.86 1.82,-1.43 3.53,-3.08 5.12,-4.96 1.6,-1.88 2.99,-3.91 4.18,-6.09 1.13,-2.03 2.11,-4.3 2.96,-6.83 0.85,-2.52 1.39,-5.08 1.64,-7.67 0.25,-2.59 0.11,-5.13 -0.42,-7.61 -0.53,-2.48 -1.64,-4.66 -3.34,-6.54 -2.01,-2.26 -4.01,-3.59 -6.02,-4 -2.01,-0.41 -3.98,-0.21 -5.92,0.62 -1.94,0.83 -3.81,2.14 -5.59,3.95 -1.79,1.81 -3.46,3.8 -5.03,5.98 -1.57,2.18 -2.99,4.4 -4.28,6.66 -1.29,2.26 -2.4,4.29 -3.34,6.09 -1.19,2.33 -2.51,4.95 -3.95,7.84 -1.44,2.9 -2.9,5.96 -4.37,9.19 -1.47,3.24 -2.9,6.58 -4.28,10.04 -0.28,0.7 -0.53,1.39 -0.79,2.08 -0.14,0.13 -0.27,0.25 -0.43,0.39 -1.38,1.25 -2.96,2.65 -4.75,4.2 -1.79,1.55 -3.62,3.08 -5.5,4.59 -1.88,1.52 -3.57,2.7 -5.08,3.56 -1.63,0.96 -2.73,1.16 -3.29,0.6 -0.56,-0.56 -0.5,-1.61 0.19,-3.16 1,-2.24 2.33,-4.37 4,-6.39 1.66,-2.02 3.37,-4.16 5.12,-6.39 1.44,-1.7 2.9,-3.48 4.37,-5.31 1.47,-1.84 2.52,-3.77 3.15,-5.79 0.5,-1.7 0.27,-3.09 -0.7,-4.15 -0.97,-1.06 -2.19,-1.74 -3.67,-2.04 -1.47,-0.29 -2.98,-0.15 -4.51,0.44 -1.54,0.59 -2.62,1.7 -3.24,3.36 -0.25,0.64 -0.63,1.32 -1.13,2.04 -0.5,0.72 -1.07,1.45 -1.69,2.2 -0.63,0.75 -1.25,1.48 -1.88,2.2 -0.63,0.72 -1.19,1.4 -1.69,2.04 -1.45,1.8 -2.87,3.6 -4.26,5.4 -0.02,0 -0.04,0 -0.06,0 -0.63,0.08 -1.25,0.44 -1.88,1.08 -0.88,0.85 -2.07,1.88 -3.57,3.08 -1.5,1.2 -3.2,2.41 -5.08,3.64 -1.88,1.23 -3.87,2.38 -5.97,3.48 -2.1,1.09 -4.18,1.96 -6.25,2.6 -2.07,0.64 -4.06,0.97 -5.97,1 -1.91,0.03 -3.62,-0.44 -5.12,-1.4 -0.88,-0.58 -1.3,-1.41 -1.27,-2.48 0.03,-1.06 0.3,-2.21 0.8,-3.44 3.2,0.8 6.38,1.11 9.54,0.92 3.16,-0.19 6.34,-1.08 9.54,-2.68 1.94,-0.96 3.79,-2.22 5.55,-3.8 1.75,-1.57 3.15,-3.29 4.18,-5.15 1.03,-1.86 1.6,-3.81 1.69,-5.83 0.09,-2.02 -0.52,-3.99 -1.83,-5.91 -1.38,-2.02 -3.31,-3.5 -5.78,-4.44 -2.48,-0.93 -5.03,-1.26 -7.66,-1 -2.26,0.21 -4.4,0.73 -6.44,1.56 -2.04,0.83 -3.96,1.84 -5.78,3.04 -1.82,1.2 -3.49,2.53 -5.03,3.99 -1.54,1.47 -2.93,2.94 -4.18,4.44 -1.25,1.54 -2.43,3.28 -3.53,5.19 -0.38,0.66 -0.72,1.33 -1.05,2.01 -0.35,0.13 -0.68,0.3 -0.97,0.55 -0.44,0.37 -0.88,0.75 -1.32,1.12 -2.32,2.13 -4.64,4.26 -6.96,6.39 -2.32,2.13 -4.83,4.07 -7.52,5.83 -1.63,1.07 -2.79,1.68 -3.48,1.84 -0.69,0.16 -1.08,0.03 -1.18,-0.4 -0.09,-0.42 0.06,-1.05 0.47,-1.88 0.41,-0.83 0.92,-1.69 1.55,-2.6 0.88,-1.28 1.85,-2.58 2.91,-3.91 1.06,-1.33 2.1,-2.72 3.1,-4.15 1,-1.44 1.85,-2.89 2.54,-4.36 0.69,-1.46 1.1,-2.94 1.22,-4.43 0.12,-1.6 -0.13,-2.97 -0.75,-4.12 -0.63,-1.14 -1.5,-2.14 -2.63,-3 -1.13,-0.85 -2.41,-1.56 -3.85,-2.12 -1.44,-0.56 -2.95,-1.05 -4.51,-1.48 -0.13,-1.12 -0.63,-2.13 -1.5,-3.04 -0.88,-0.9 -2.13,-1.52 -3.76,-1.84 -1.32,-0.21 -2.63,-0.15 -3.95,0.2 -1.32,0.35 -2.52,0.89 -3.62,1.64 -1.1,0.75 -2.01,1.65 -2.73,2.72 -0.72,1.07 -1.08,2.16 -1.08,3.28 0,1.7 0.47,3.04 1.41,3.99 -1,2.18 -2.08,4.22 -3.24,6.11 -1.16,1.89 -2.37,3.7 -3.62,5.43 -1.25,1.73 -2.55,3.42 -3.9,5.07 -1.35,1.65 -2.74,3.33 -4.18,5.03 -1.5,1.86 -2.24,3.2 -2.21,3.99 0.03,0.8 0.58,1.12 1.65,0.96 1.07,-0.16 2.54,-0.81 4.42,-1.96 1.88,-1.14 3.92,-2.73 6.11,-4.75 1.19,-1.12 2.46,-2.34 3.81,-3.68 1.35,-1.33 2.68,-2.7 4,-4.11 1.32,-1.41 2.62,-2.85 3.9,-4.31 1.28,-1.46 2.49,-2.89 3.62,-4.28 0.5,0.11 1.16,0.21 1.97,0.32 0.81,0.11 1.22,0.37 1.22,0.8 0,0.8 -0.55,1.94 -1.64,3.44 -1.1,1.49 -2.29,3.17 -3.57,5.03 -1.29,1.87 -2.48,3.82 -3.57,5.87 -1.1,2.05 -1.65,3.98 -1.65,5.79 0,2.29 0.72,4.35 2.16,6.19 1.44,1.84 3.51,2.97 6.2,3.4 2.32,0.37 4.53,0.19 6.63,-0.56 2.1,-0.75 4.06,-1.8 5.88,-3.16 1.82,-1.36 3.46,-2.86 4.94,-4.52 1.47,-1.65 2.77,-3.2 3.9,-4.63 0.24,-0.32 0.6,-0.8 1.08,-1.44 -0.07,1.97 0.23,3.83 0.89,5.55 0.69,1.79 1.83,3.4 3.43,4.84 1.6,1.44 3.74,2.56 6.44,3.36 2.26,0.69 4.51,1 6.77,0.92 2.26,-0.08 4.48,-0.41 6.67,-1 2.19,-0.59 4.31,-1.37 6.34,-2.36 2.04,-0.98 3.93,-2.06 5.69,-3.24 1.73,-1.2 3.35,-2.52 4.87,-3.93 -0.04,0.58 -0.06,1.16 -0.03,1.73 0.09,1.68 0.63,3.22 1.6,4.63 0.97,1.41 2.62,2.46 4.94,3.16 2.07,0.69 4,0.9 5.78,0.64 1.79,-0.27 3.48,-0.82 5.08,-1.68 1.6,-0.85 3.07,-1.9 4.42,-3.16 1.35,-1.25 2.62,-2.52 3.81,-3.8 0.62,-0.66 1.38,-1.48 2.28,-2.44 -0.72,2.4 -1.34,4.77 -1.85,7.1 -0.72,3.27 -1.14,6.34 -1.27,9.19 -0.12,1.8 0.02,3.57 0.42,5.3 0.41,1.73 1.33,3.08 2.77,4.06 1.5,0.98 3.07,1.13 4.7,0.45 1.63,-0.68 2.79,-1.92 3.48,-3.72 0.63,-1.73 1.05,-3.52 1.27,-5.36 0.22,-1.84 0.55,-3.67 0.99,-5.47 1.38,1.73 2.98,3.01 4.79,3.84 2.07,0.9 4.21,1.41 6.44,1.52 2.22,0.11 4.45,-0.15 6.67,-0.79 2.22,-0.64 4.4,-1.62 6.53,-2.93 2.13,-1.32 4.14,-2.91 6.02,-4.79 1.99,-1.99 3.83,-4.19 5.53,-6.6 0,0.13 0,0.26 0.01,0.39 0.09,1.64 0.49,3.19 1.18,4.65 0.69,1.46 1.82,2.71 3.38,3.75 1.69,1.15 3.54,1.74 5.55,1.77 2,0.03 4.09,-0.49 6.25,-1.55 2.16,-1.06 4.33,-2.7 6.49,-4.91 2.16,-2.21 4.22,-4.95 6.16,-8.23 0,-0.01 0.01,-0.02 0.01,-0.02 0.1,1.72 0.53,3.36 1.35,4.92 1.22,2.32 2.95,4.21 5.17,5.67 2.22,1.47 4.78,2.4 7.66,2.8 2.88,0.4 5.83,0.04 8.84,-1.08 1.88,-0.69 3.63,-1.62 5.26,-2.8 1.63,-1.17 3.13,-2.46 4.51,-3.88 1.38,-1.41 2.65,-2.89 3.81,-4.44 1.16,-1.54 2.18,-3.09 3.06,-4.63 1.06,-1.86 2.05,-3.9 2.96,-6.11 0.91,-2.21 1.49,-4.43 1.74,-6.67 3.63,-0.32 7.35,-1.09 11.14,-2.32 0.13,-0.04 0.26,-0.09 0.39,-0.14 -0.45,0.57 -0.88,1.13 -1.29,1.66 -1.32,1.7 -2.6,3.4 -3.85,5.07 -1.25,1.68 -2.44,3.4 -3.57,5.15 -0.69,1.12 -1.54,2.54 -2.54,4.28 -1,1.73 -1.8,3.53 -2.4,5.39 -0.59,1.86 -0.8,3.65 -0.61,5.35 0.19,1.7 1.13,3.06 2.82,4.07 1.44,0.91 2.99,1.22 4.65,0.96 1.66,-0.26 3.02,-0.98 4.09,-2.16 0.56,-0.64 0.95,-1.37 1.18,-2.2 0.22,-0.83 0.64,-1.97 1.27,-3.44 0.63,-1.46 1.63,-3.33 3.01,-5.59 1.38,-2.26 3.51,-5.13 6.39,-8.59 0.56,-0.64 1.5,-1.54 2.82,-2.72 1.32,-1.17 2.73,-2.33 4.23,-3.48 1.5,-1.14 2.96,-2.14 4.37,-3 1.41,-0.85 2.46,-1.3 3.15,-1.36 0.69,-0.05 0.88,0.41 0.56,1.4 -0.31,0.99 -1.41,2.76 -3.29,5.31 -1.38,1.81 -2.73,3.64 -4.04,5.47 -1.32,1.84 -2.51,3.72 -3.57,5.63 -0.5,1.01 -0.99,2.17 -1.46,3.48 -0.47,1.31 -0.75,2.61 -0.85,3.91 -0.09,1.31 0.09,2.53 0.56,3.68 0.47,1.15 1.43,2.07 2.87,2.76 1,0.53 2.02,0.79 3.05,0.76 1.03,-0.03 1.96,-0.23 2.77,-0.6 0.81,-0.37 1.5,-0.89 2.07,-1.56 0.56,-0.67 0.91,-1.4 1.03,-2.2 0.12,-1.06 0.45,-2.08 0.99,-3.04 0.53,-0.96 1.11,-1.92 1.74,-2.88 1.44,-2.08 3.01,-4.09 4.7,-6.03 1.69,-1.94 3.48,-3.85 5.36,-5.71 1.5,-1.49 3.07,-2.97 4.7,-4.43 1.63,-1.46 3.35,-2.81 5.17,-4.04 3.38,-2.34 5.34,-3.22 5.88,-2.64 0.53,0.59 -0.77,2.69 -3.9,6.31 -1.44,1.71 -2.79,3.45 -4.04,5.23 -1.25,1.79 -2.35,3.64 -3.29,5.55 -0.69,1.38 -1.19,2.84 -1.5,4.35 -0.31,1.52 -0.33,3 -0.05,4.44 0.28,1.44 0.91,2.74 1.88,3.91 0.97,1.17 2.4,2.08 4.28,2.72 2.07,0.75 4.03,0.93 5.88,0.56 1.85,-0.37 3.59,-1.04 5.22,-2 1.63,-0.96 3.13,-2.12 4.51,-3.48 1.38,-1.36 2.63,-2.65 3.76,-3.88 0.81,-0.96 1.71,-2 2.68,-3.12 0.05,-0.06 0.11,-0.13 0.16,-0.19 -0.28,1.46 -0.37,2.9 -0.26,4.3 0.16,1.95 0.8,3.69 1.93,5.23 1.13,1.55 3.04,2.58 5.73,3.12 2.38,0.48 4.5,0.32 6.34,-0.48 1.85,-0.8 3.53,-1.94 5.03,-3.44 1.5,-1.49 2.85,-3.14 4.04,-4.95 1.19,-1.81 2.32,-3.49 3.38,-5.03 -0.38,1.01 -0.67,2.02 -0.89,3.04 -0.22,1.01 -0.33,2.02 -0.33,3.04 0,1.28 0.28,2.47 0.85,3.56 0.56,1.09 1.32,2.01 2.26,2.76 0.94,0.75 2.07,1.29 3.38,1.64 1.32,0.34 2.73,0.44 4.23,0.28 2.26,-0.27 4.64,-1.25 7.14,-2.96 2.51,-1.7 4.86,-3.7 7.05,-5.99 1.03,-1.08 2,-2.18 2.9,-3.3 -0.05,0.57 -0.08,1.14 -0.08,1.71 0,1.76 0.33,3.42 0.99,4.99 0.66,1.57 1.87,2.89 3.62,3.95 2.19,1.39 4.61,1.94 7.24,1.68 2.63,-0.27 5.01,-1.04 7.15,-2.32 1.75,-1.06 3.34,-2.33 4.75,-3.8 1.41,-1.46 2.69,-3.05 3.85,-4.75 1.16,-1.7 2.25,-3.48 3.29,-5.31 1.03,-1.84 2.05,-3.66 3.06,-5.47 0.44,-0.74 0.61,-1.41 0.52,-2 -0.09,-0.58 -0.34,-1 -0.75,-1.24 -0.41,-0.24 -0.94,-0.28 -1.6,-0.12 -0.66,0.16 -1.3,0.61 -1.93,1.36 -0.81,0.91 -1.77,1.94 -2.87,3.12 -1.1,1.17 -2.26,2.36 -3.48,3.56 -1.22,1.2 -2.51,2.36 -3.85,3.48 -1.35,1.12 -2.71,2.05 -4.09,2.8 -1.82,1.01 -3.02,1.27 -3.62,0.76 -0.6,-0.5 -0.61,-1.61 -0.05,-3.32 0.44,-1.65 1.24,-3.64 2.4,-5.95 1.16,-2.32 2.4,-4.63 3.71,-6.95 1.32,-2.32 2.63,-4.5 3.95,-6.55 1.32,-2.05 2.38,-3.66 3.2,-4.83 1.32,0.05 2.71,0.05 4.18,0 1.47,-0.05 2.9,-0.24 4.28,-0.56 1.38,-0.32 2.65,-0.79 3.81,-1.4 1.16,-0.61 2.08,-1.45 2.77,-2.52 0.38,-0.64 0.38,-1.29 0,-1.96 -0.38,-0.63 -1.1,-0.96 -2.16,-0.96 z m -338.84,17.66 c 1.13,-1.22 2.35,-2.37 3.67,-3.44 0.75,-0.59 1.61,-1.21 2.58,-1.88 0.97,-0.67 1.99,-1.13 3.06,-1.4 0.75,-0.21 1.41,-0.23 1.97,-0.04 0.56,0.19 0.69,0.73 0.38,1.64 -0.19,0.8 -0.6,1.63 -1.22,2.48 -0.63,0.85 -1.16,1.49 -1.6,1.92 -1.76,1.81 -3.85,3.12 -6.3,3.92 -1.76,0.53 -3.64,0.72 -5.64,0.56 0.94,-1.28 1.97,-2.54 3.1,-3.76 z m 76.24,10.79 c -0.38,1.54 -0.96,3.03 -1.74,4.46 -0.78,1.43 -1.74,2.74 -2.87,3.95 -0.69,-0.3 -1.35,-0.71 -1.97,-1.24 -0.63,-0.53 -1.24,-1.03 -1.83,-1.52 -0.6,-0.49 -1.22,-0.96 -1.88,-1.41 -0.66,-0.45 -1.36,-0.75 -2.11,-0.9 1.06,-3.01 2.21,-5.98 3.43,-8.91 1.22,-2.93 2.46,-5.83 3.71,-8.69 0.25,1.51 0.77,2.59 1.55,3.27 0.78,0.68 1.8,1.24 3.06,1.69 0.63,1.5 0.99,3.05 1.08,4.62 0.09,1.58 -0.06,3.14 -0.43,4.68 z m 4.98,-20.59 c -1,-0.6 -2.1,-1.03 -3.29,-1.3 -1.19,-0.26 -2.38,-0.21 -3.57,0.17 0.63,-1.35 1.41,-3.03 2.35,-5.02 0.94,-1.99 1.96,-4 3.06,-6.04 1.1,-2.03 2.22,-3.95 3.38,-5.75 1.16,-1.8 2.3,-3.19 3.43,-4.17 0.81,-0.68 1.41,-0.85 1.79,-0.51 0.38,0.34 0.59,0.96 0.66,1.86 0.06,0.9 0.03,1.92 -0.09,3.05 -0.13,1.13 -0.31,2.14 -0.56,3.05 -0.75,2.71 -1.65,5.28 -2.68,7.73 -1.05,2.44 -2.54,4.75 -4.48,6.93 z m 74.21,9.28 c -0.31,0.83 -0.63,1.61 -0.94,2.36 -0.75,1.54 -1.63,3.05 -2.63,4.51 -1,1.47 -2.1,2.86 -3.29,4.2 -1.13,1.33 -2.3,2.54 -3.53,3.64 -1.22,1.09 -2.58,2.15 -4.09,3.16 -1.75,1.12 -2.96,1.37 -3.62,0.76 -0.66,-0.61 -0.89,-1.72 -0.71,-3.32 0.19,-1.6 0.72,-3.49 1.6,-5.67 l 3.48,-6.31 c 1.19,-1.7 2.57,-3.37 4.14,-4.99 1.57,-1.62 3.29,-3.05 5.17,-4.28 0.75,0.91 1.55,1.61 2.4,2.12 0.85,0.51 1.74,0.89 2.68,1.16 -0.13,0.94 -0.35,1.83 -0.66,2.66 z"
   id="path100" />
	<linearGradient
   id="SVGID_3_"
   gradientUnits="userSpaceOnUse"
   x1="321.5741"
   y1="120.7014"
   x2="321.5741"
   y2="211.062">
		<stop
   offset="0.5915"
   style="stop-color:#F8BE41"
   id="stop102" />
		<stop
   offset="0.6608"
   style="stop-color:#F8DF77"
   id="stop104" />
		<stop
   offset="0.7024"
   style="stop-color:#F7EF91"
   id="stop106" />
	</linearGradient>
	<path
   class="st12"
   d="m 525.38,150.78 c -0.69,0 -1.41,-0.07 -2.16,-0.2 -0.75,-0.13 -1.47,-0.31 -2.16,-0.52 0.88,-0.96 1.64,-2 2.3,-3.12 0.66,-1.12 0.86,-2.32 0.61,-3.6 -0.25,-1.33 -0.88,-2.3 -1.88,-2.92 -1,-0.61 -2.13,-0.96 -3.38,-1.04 -1.26,-0.08 -2.55,0.07 -3.9,0.44 -1.35,0.37 -2.49,0.88 -3.43,1.52 -1.19,0.8 -2.3,1.7 -3.34,2.72 -1.03,1.01 -1.99,2.05 -2.87,3.12 -1.57,-0.16 -3.15,0.01 -4.75,0.52 -1.6,0.51 -2.96,1.16 -4.09,1.96 -1.13,0.8 -1.91,1.67 -2.35,2.6 -0.44,0.93 -0.28,1.75 0.47,2.44 0.5,0.43 1.14,0.75 1.93,0.96 0.78,0.21 1.61,0.37 2.49,0.48 -1.25,2.08 -2.37,3.98 -3.34,5.71 -0.97,1.73 -1.85,3.34 -2.63,4.83 -0.79,1.49 -1.49,2.92 -2.12,4.28 -0.01,0.01 -0.01,0.02 -0.01,0.03 -0.32,0.09 -0.63,0.23 -0.93,0.48 -1.82,1.65 -3.71,3.45 -5.69,5.39 -1.98,1.95 -4.15,3.77 -6.53,5.47 -1.26,0.91 -2.26,1.4 -3.01,1.48 -0.75,0.08 -0.88,-0.47 -0.38,-1.64 0.38,-0.85 0.86,-1.74 1.46,-2.68 0.6,-0.93 1.22,-1.85 1.88,-2.76 0.66,-0.9 1.3,-1.74 1.93,-2.52 0.63,-0.78 1.13,-1.45 1.5,-2.04 0.81,-1.17 1.27,-2.29 1.36,-3.36 0.09,-1.06 -0.13,-1.98 -0.66,-2.76 -0.53,-0.77 -1.32,-1.37 -2.35,-1.8 -1.03,-0.42 -2.3,-0.58 -3.81,-0.48 -1.26,0.11 -2.41,0.39 -3.48,0.84 -1.07,0.45 -2.02,1.01 -2.87,1.68 -0.85,0.67 -1.63,1.4 -2.35,2.2 -0.72,0.8 -1.4,1.57 -2.02,2.32 -2.57,3.2 -5.16,5.94 -7.75,8.23 -2.6,2.29 -4.72,3.81 -6.35,4.55 -1.63,0.75 -2.49,0.57 -2.58,-0.52 -0.09,-1.09 1.11,-3.4 3.62,-6.91 1.44,-2.02 3.18,-4.04 5.22,-6.03 2.04,-2 4.31,-3.78 6.82,-5.35 2.51,-1.57 5.22,-2.78 8.13,-3.64 2.91,-0.85 5.97,-1.12 9.17,-0.8 1.06,0.11 1.99,-0.07 2.77,-0.52 0.78,-0.45 1.35,-1.03 1.69,-1.72 0.34,-0.69 0.44,-1.42 0.28,-2.2 -0.16,-0.77 -0.64,-1.45 -1.46,-2.04 -2.07,-1.44 -4.33,-2.36 -6.77,-2.76 -2.44,-0.4 -4.92,-0.44 -7.43,-0.12 -2.51,0.32 -4.97,0.92 -7.38,1.8 -2.41,0.88 -4.59,1.88 -6.53,3 -4.26,2.4 -8.05,5.29 -11.37,8.67 -1.88,1.92 -3.54,3.94 -5.02,6.05 -0.41,0.1 -0.81,0.34 -1.19,0.7 -0.38,0.32 -1.18,1.05 -2.4,2.2 -1.22,1.14 -2.63,2.41 -4.23,3.8 -1.6,1.38 -3.26,2.8 -4.98,4.23 -1.72,1.44 -3.24,2.64 -4.56,3.6 -1.19,0.85 -2.12,1.37 -2.77,1.56 -0.66,0.19 -1.1,0.13 -1.32,-0.16 -0.22,-0.29 -0.23,-0.73 -0.05,-1.32 0.19,-0.59 0.56,-1.25 1.13,-2 0.81,-1.12 1.75,-2.34 2.82,-3.67 1.06,-1.33 2.13,-2.69 3.2,-4.08 1.06,-1.38 2.1,-2.8 3.1,-4.23 1,-1.44 1.88,-2.82 2.63,-4.15 0.56,-1.06 1.08,-2.21 1.55,-3.44 0.47,-1.22 0.74,-2.46 0.8,-3.72 0.06,-1.25 -0.13,-2.45 -0.56,-3.6 -0.44,-1.14 -1.25,-2.2 -2.44,-3.16 -1.44,-1.12 -2.96,-1.8 -4.56,-2.04 -1.6,-0.24 -3.18,-0.16 -4.75,0.24 -1.57,0.4 -3.09,1.01 -4.56,1.84 -1.47,0.83 -2.77,1.75 -3.9,2.76 -1.13,1.01 -2.21,2.06 -3.24,3.16 -1.03,1.09 -2.02,2.2 -2.96,3.32 0.44,-1.86 0.42,-3.66 -0.05,-5.39 -0.47,-1.73 -1.68,-3.24 -3.62,-4.51 -1.44,-0.96 -2.93,-1.48 -4.47,-1.56 -1.54,-0.08 -3.04,0.09 -4.51,0.52 -1.47,0.43 -2.88,1.08 -4.23,1.96 -1.35,0.88 -2.55,1.8 -3.62,2.76 -0.5,0.48 -1,0.96 -1.5,1.44 -0.5,0.48 -1,0.99 -1.5,1.52 0.25,-1.54 -0.16,-2.82 -1.22,-3.84 -1.07,-1.01 -2.33,-1.65 -3.81,-1.92 -1.47,-0.27 -2.93,-0.11 -4.37,0.48 -1.23,0.5 -2.07,1.39 -2.57,2.62 -2.2,0.3 -4.37,0.53 -6.5,0.65 -3.67,0.21 -7.63,-0.03 -11.89,-0.72 -1.07,-1.28 -2.35,-2.36 -3.85,-3.24 -1.5,-0.88 -3.07,-1.37 -4.7,-1.48 -0.69,-0.37 -1.46,-0.64 -2.3,-0.8 -0.85,-0.16 -1.72,-0.23 -2.63,-0.2 -0.91,0.03 -1.8,0.11 -2.68,0.24 -0.88,0.13 -1.63,0.31 -2.26,0.52 -2.13,0.64 -4.12,1.53 -5.97,2.68 -1.85,1.15 -3.56,2.41 -5.12,3.8 -3.32,2.88 -6.08,6.22 -8.27,10.03 -0.34,0.59 -0.65,1.19 -0.95,1.78 -0.51,0.08 -1.01,0.35 -1.49,0.87 -2.26,2.47 -4.55,5.03 -6.86,7.67 -2.32,2.64 -4.89,5.05 -7.71,7.24 -1.38,1.03 -2.51,1.35 -3.38,0.95 -0.88,-0.4 -1.07,-1.52 -0.56,-3.36 0.88,-3.1 2.21,-6.3 3.99,-9.61 1.79,-3.3 4.03,-7.25 6.72,-11.85 0.88,-0.52 2.05,-1.41 3.53,-2.67 1.47,-1.26 3.02,-2.76 4.65,-4.48 1.63,-1.72 3.18,-3.57 4.65,-5.56 1.47,-1.98 2.63,-3.92 3.48,-5.81 0.84,-1.9 1.22,-3.67 1.13,-5.34 -0.09,-1.66 -0.86,-3.04 -2.3,-4.13 -1.76,-1.26 -3.56,-1.69 -5.41,-1.29 -1.85,0.4 -3.7,1.32 -5.55,2.76 -1.85,1.44 -3.65,3.23 -5.41,5.38 -1.75,2.15 -3.35,4.34 -4.79,6.55 -1.44,2.21 -2.73,4.28 -3.86,6.2 -1.13,1.92 -1.98,3.4 -2.54,4.44 -1.82,3.1 -3.49,6.25 -5.03,9.43 -0.16,0.33 -0.3,0.66 -0.46,0.99 -0.53,0.71 -1.13,1.52 -1.79,2.47 -1.13,1.62 -2.3,3.25 -3.53,4.91 -1.22,1.66 -2.44,3.16 -3.67,4.51 -1.22,1.35 -2.27,2.26 -3.15,2.71 0.5,-3.08 0.61,-6.15 0.33,-9.19 -0.28,-3.05 -1.08,-6 -2.4,-8.86 1.82,-1.43 3.53,-3.08 5.12,-4.96 1.6,-1.88 2.99,-3.91 4.18,-6.09 1.13,-2.03 2.11,-4.3 2.96,-6.83 0.85,-2.52 1.39,-5.08 1.64,-7.67 0.25,-2.59 0.11,-5.13 -0.42,-7.61 -0.53,-2.48 -1.64,-4.66 -3.34,-6.54 -2.01,-2.26 -4.01,-3.59 -6.02,-4 -2.01,-0.41 -3.98,-0.21 -5.92,0.62 -1.94,0.83 -3.81,2.14 -5.59,3.95 -1.79,1.81 -3.46,3.8 -5.03,5.98 -1.57,2.18 -2.99,4.4 -4.28,6.66 -1.29,2.26 -2.4,4.29 -3.34,6.09 -1.19,2.33 -2.51,4.95 -3.95,7.84 -1.44,2.9 -2.9,5.96 -4.37,9.19 -1.47,3.24 -2.9,6.58 -4.28,10.04 -0.28,0.7 -0.53,1.39 -0.79,2.08 -0.14,0.13 -0.27,0.25 -0.43,0.39 -1.38,1.25 -2.96,2.65 -4.75,4.2 -1.79,1.55 -3.62,3.08 -5.5,4.59 -1.88,1.52 -3.57,2.7 -5.08,3.56 -1.63,0.96 -2.73,1.16 -3.29,0.6 -0.56,-0.56 -0.5,-1.61 0.19,-3.16 1,-2.24 2.33,-4.37 4,-6.39 1.66,-2.02 3.37,-4.16 5.12,-6.39 1.44,-1.7 2.9,-3.48 4.37,-5.31 1.47,-1.84 2.52,-3.77 3.15,-5.79 0.5,-1.7 0.27,-3.09 -0.7,-4.15 -0.97,-1.06 -2.19,-1.74 -3.67,-2.04 -1.47,-0.29 -2.98,-0.15 -4.51,0.44 -1.54,0.59 -2.62,1.7 -3.24,3.36 -0.25,0.64 -0.63,1.32 -1.13,2.04 -0.5,0.72 -1.07,1.45 -1.69,2.2 -0.63,0.75 -1.25,1.48 -1.88,2.2 -0.63,0.72 -1.19,1.4 -1.69,2.04 -1.45,1.8 -2.87,3.6 -4.26,5.4 -0.02,0 -0.04,0 -0.06,0 -0.63,0.08 -1.25,0.44 -1.88,1.08 -0.88,0.85 -2.07,1.88 -3.57,3.08 -1.5,1.2 -3.2,2.41 -5.08,3.64 -1.88,1.23 -3.87,2.38 -5.97,3.48 -2.1,1.09 -4.18,1.96 -6.25,2.6 -2.07,0.64 -4.06,0.97 -5.97,1 -1.91,0.03 -3.62,-0.44 -5.12,-1.4 -0.88,-0.58 -1.3,-1.41 -1.27,-2.48 0.03,-1.06 0.3,-2.21 0.8,-3.44 3.2,0.8 6.38,1.11 9.54,0.92 3.16,-0.19 6.34,-1.08 9.54,-2.68 1.94,-0.96 3.79,-2.22 5.55,-3.8 1.75,-1.57 3.15,-3.29 4.18,-5.15 1.03,-1.86 1.6,-3.81 1.69,-5.83 0.09,-2.02 -0.52,-3.99 -1.83,-5.91 -1.38,-2.02 -3.31,-3.5 -5.78,-4.44 -2.48,-0.93 -5.03,-1.26 -7.66,-1 -2.26,0.21 -4.4,0.73 -6.44,1.56 -2.04,0.83 -3.96,1.84 -5.78,3.04 -1.82,1.2 -3.49,2.53 -5.03,3.99 -1.54,1.47 -2.93,2.94 -4.18,4.44 -1.25,1.54 -2.43,3.28 -3.53,5.19 -0.38,0.66 -0.72,1.33 -1.05,2.01 -0.35,0.13 -0.68,0.3 -0.97,0.55 -0.44,0.37 -0.88,0.75 -1.32,1.12 -2.32,2.13 -4.64,4.26 -6.96,6.39 -2.32,2.13 -4.83,4.07 -7.52,5.83 -1.63,1.07 -2.79,1.68 -3.48,1.84 -0.69,0.16 -1.08,0.03 -1.18,-0.4 -0.09,-0.42 0.06,-1.05 0.47,-1.88 0.41,-0.83 0.92,-1.69 1.55,-2.6 0.88,-1.28 1.85,-2.58 2.91,-3.91 1.06,-1.33 2.1,-2.72 3.1,-4.15 1,-1.44 1.85,-2.89 2.54,-4.36 0.69,-1.46 1.1,-2.94 1.22,-4.43 0.12,-1.6 -0.13,-2.97 -0.75,-4.12 -0.63,-1.14 -1.5,-2.14 -2.63,-3 -1.13,-0.85 -2.41,-1.56 -3.85,-2.12 -1.44,-0.56 -2.95,-1.05 -4.51,-1.48 -0.13,-1.12 -0.63,-2.13 -1.5,-3.04 -0.88,-0.9 -2.13,-1.52 -3.76,-1.84 -1.32,-0.21 -2.63,-0.15 -3.95,0.2 -1.32,0.35 -2.52,0.89 -3.62,1.64 -1.1,0.75 -2.01,1.65 -2.73,2.72 -0.72,1.07 -1.08,2.16 -1.08,3.28 0,1.7 0.47,3.04 1.41,3.99 -1,2.18 -2.08,4.22 -3.24,6.11 -1.16,1.89 -2.37,3.7 -3.62,5.43 -1.25,1.73 -2.55,3.42 -3.9,5.07 -1.35,1.65 -2.74,3.33 -4.18,5.03 -1.5,1.86 -2.24,3.2 -2.21,3.99 0.03,0.8 0.58,1.12 1.65,0.96 1.07,-0.16 2.54,-0.81 4.42,-1.96 1.88,-1.14 3.92,-2.73 6.11,-4.75 1.19,-1.12 2.46,-2.34 3.81,-3.68 1.35,-1.33 2.68,-2.7 4,-4.11 1.32,-1.41 2.62,-2.85 3.9,-4.31 1.28,-1.46 2.49,-2.89 3.62,-4.28 0.5,0.11 1.16,0.21 1.97,0.32 0.81,0.11 1.22,0.37 1.22,0.8 0,0.8 -0.55,1.94 -1.64,3.44 -1.1,1.49 -2.29,3.17 -3.57,5.03 -1.29,1.87 -2.48,3.82 -3.57,5.87 -1.1,2.05 -1.65,3.98 -1.65,5.79 0,2.29 0.72,4.35 2.16,6.19 1.44,1.84 3.51,2.97 6.2,3.4 2.32,0.37 4.53,0.19 6.63,-0.56 2.1,-0.75 4.06,-1.8 5.88,-3.16 1.82,-1.36 3.46,-2.86 4.94,-4.52 1.47,-1.65 2.77,-3.2 3.9,-4.63 0.24,-0.32 0.6,-0.8 1.08,-1.44 -0.07,1.97 0.23,3.83 0.89,5.55 0.69,1.79 1.83,3.4 3.43,4.84 1.6,1.44 3.74,2.56 6.44,3.36 2.26,0.69 4.51,1 6.77,0.92 2.26,-0.08 4.48,-0.41 6.67,-1 2.19,-0.59 4.31,-1.37 6.34,-2.36 2.04,-0.98 3.93,-2.06 5.69,-3.24 1.73,-1.2 3.35,-2.52 4.87,-3.93 -0.04,0.58 -0.06,1.16 -0.03,1.73 0.09,1.68 0.63,3.22 1.6,4.63 0.97,1.41 2.62,2.46 4.94,3.16 2.07,0.69 4,0.9 5.78,0.64 1.79,-0.27 3.48,-0.82 5.08,-1.68 1.6,-0.85 3.07,-1.9 4.42,-3.16 1.35,-1.25 2.62,-2.52 3.81,-3.8 0.62,-0.66 1.38,-1.48 2.28,-2.44 -0.72,2.4 -1.34,4.77 -1.85,7.1 -0.72,3.27 -1.14,6.34 -1.27,9.19 -0.12,1.8 0.02,3.57 0.42,5.3 0.41,1.73 1.33,3.08 2.77,4.06 1.5,0.98 3.07,1.13 4.7,0.45 1.63,-0.68 2.79,-1.92 3.48,-3.72 0.63,-1.73 1.05,-3.52 1.27,-5.36 0.22,-1.84 0.55,-3.67 0.99,-5.47 1.38,1.73 2.98,3.01 4.79,3.84 2.07,0.9 4.21,1.41 6.44,1.52 2.22,0.11 4.45,-0.15 6.67,-0.79 2.22,-0.64 4.4,-1.62 6.53,-2.93 2.13,-1.32 4.14,-2.91 6.02,-4.79 1.99,-1.99 3.83,-4.19 5.53,-6.6 0,0.13 0,0.26 0.01,0.39 0.09,1.64 0.49,3.19 1.18,4.65 0.69,1.46 1.82,2.71 3.38,3.75 1.69,1.15 3.54,1.74 5.55,1.77 2,0.03 4.09,-0.49 6.25,-1.55 2.16,-1.06 4.33,-2.7 6.49,-4.91 2.16,-2.21 4.22,-4.95 6.16,-8.23 0,-0.01 0.01,-0.02 0.01,-0.02 0.1,1.72 0.53,3.36 1.35,4.92 1.22,2.32 2.95,4.21 5.17,5.67 2.22,1.47 4.78,2.4 7.66,2.8 2.88,0.4 5.83,0.04 8.84,-1.08 1.88,-0.69 3.63,-1.62 5.26,-2.8 1.63,-1.17 3.13,-2.46 4.51,-3.88 1.38,-1.41 2.65,-2.89 3.81,-4.44 1.16,-1.54 2.18,-3.09 3.06,-4.63 1.06,-1.86 2.05,-3.9 2.96,-6.11 0.91,-2.21 1.49,-4.43 1.74,-6.67 3.63,-0.32 7.35,-1.09 11.14,-2.32 0.13,-0.04 0.26,-0.09 0.39,-0.14 -0.45,0.57 -0.88,1.13 -1.29,1.66 -1.32,1.7 -2.6,3.4 -3.85,5.07 -1.25,1.68 -2.44,3.4 -3.57,5.15 -0.69,1.12 -1.54,2.54 -2.54,4.28 -1,1.73 -1.8,3.53 -2.4,5.39 -0.59,1.86 -0.8,3.65 -0.61,5.35 0.19,1.7 1.13,3.06 2.82,4.07 1.44,0.91 2.99,1.22 4.65,0.96 1.66,-0.26 3.02,-0.98 4.09,-2.16 0.56,-0.64 0.95,-1.37 1.18,-2.2 0.22,-0.83 0.64,-1.97 1.27,-3.44 0.63,-1.46 1.63,-3.33 3.01,-5.59 1.38,-2.26 3.51,-5.13 6.39,-8.59 0.56,-0.64 1.5,-1.54 2.82,-2.72 1.32,-1.17 2.73,-2.33 4.23,-3.48 1.5,-1.14 2.96,-2.14 4.37,-3 1.41,-0.85 2.46,-1.3 3.15,-1.36 0.69,-0.05 0.88,0.41 0.56,1.4 -0.31,0.99 -1.41,2.76 -3.29,5.31 -1.38,1.81 -2.73,3.64 -4.04,5.47 -1.32,1.84 -2.51,3.72 -3.57,5.63 -0.5,1.01 -0.99,2.17 -1.46,3.48 -0.47,1.31 -0.75,2.61 -0.85,3.91 -0.09,1.31 0.09,2.53 0.56,3.68 0.47,1.15 1.43,2.07 2.87,2.76 1,0.53 2.02,0.79 3.05,0.76 1.03,-0.03 1.96,-0.23 2.77,-0.6 0.81,-0.37 1.5,-0.89 2.07,-1.56 0.56,-0.67 0.91,-1.4 1.03,-2.2 0.12,-1.06 0.45,-2.08 0.99,-3.04 0.53,-0.96 1.11,-1.92 1.74,-2.88 1.44,-2.08 3.01,-4.09 4.7,-6.03 1.69,-1.94 3.48,-3.85 5.36,-5.71 1.5,-1.49 3.07,-2.97 4.7,-4.43 1.63,-1.46 3.35,-2.81 5.17,-4.04 3.38,-2.34 5.34,-3.22 5.88,-2.64 0.53,0.59 -0.77,2.69 -3.9,6.31 -1.44,1.71 -2.79,3.45 -4.04,5.23 -1.25,1.79 -2.35,3.64 -3.29,5.55 -0.69,1.38 -1.19,2.84 -1.5,4.35 -0.31,1.52 -0.33,3 -0.05,4.44 0.28,1.44 0.91,2.74 1.88,3.91 0.97,1.17 2.4,2.08 4.28,2.72 2.07,0.75 4.03,0.93 5.88,0.56 1.85,-0.37 3.59,-1.04 5.22,-2 1.63,-0.96 3.13,-2.12 4.51,-3.48 1.38,-1.36 2.63,-2.65 3.76,-3.88 0.81,-0.96 1.71,-2 2.68,-3.12 0.05,-0.06 0.11,-0.13 0.16,-0.19 -0.28,1.46 -0.37,2.9 -0.26,4.3 0.16,1.95 0.8,3.69 1.93,5.23 1.13,1.55 3.04,2.58 5.73,3.12 2.38,0.48 4.5,0.32 6.34,-0.48 1.85,-0.8 3.53,-1.94 5.03,-3.44 1.5,-1.49 2.85,-3.14 4.04,-4.95 1.19,-1.81 2.32,-3.49 3.38,-5.03 -0.38,1.01 -0.67,2.02 -0.89,3.04 -0.22,1.01 -0.33,2.02 -0.33,3.04 0,1.28 0.28,2.47 0.85,3.56 0.56,1.09 1.32,2.01 2.26,2.76 0.94,0.75 2.07,1.29 3.38,1.64 1.32,0.34 2.73,0.44 4.23,0.28 2.26,-0.27 4.64,-1.25 7.14,-2.96 2.51,-1.7 4.86,-3.7 7.05,-5.99 1.03,-1.08 2,-2.18 2.9,-3.3 -0.05,0.57 -0.08,1.14 -0.08,1.71 0,1.76 0.33,3.42 0.99,4.99 0.66,1.57 1.87,2.89 3.62,3.95 2.19,1.39 4.61,1.94 7.24,1.68 2.63,-0.27 5.01,-1.04 7.15,-2.32 1.75,-1.06 3.34,-2.33 4.75,-3.8 1.41,-1.46 2.69,-3.05 3.85,-4.75 1.16,-1.7 2.25,-3.48 3.29,-5.31 1.03,-1.84 2.05,-3.66 3.06,-5.47 0.44,-0.74 0.61,-1.41 0.52,-2 -0.09,-0.58 -0.34,-1 -0.75,-1.24 -0.41,-0.24 -0.94,-0.28 -1.6,-0.12 -0.66,0.16 -1.3,0.61 -1.93,1.36 -0.81,0.91 -1.77,1.94 -2.87,3.12 -1.1,1.17 -2.26,2.36 -3.48,3.56 -1.22,1.2 -2.51,2.36 -3.85,3.48 -1.35,1.12 -2.71,2.05 -4.09,2.8 -1.82,1.01 -3.02,1.27 -3.62,0.76 -0.6,-0.5 -0.61,-1.61 -0.05,-3.32 0.44,-1.65 1.24,-3.64 2.4,-5.95 1.16,-2.32 2.4,-4.63 3.71,-6.95 1.32,-2.32 2.63,-4.5 3.95,-6.55 1.32,-2.05 2.38,-3.66 3.2,-4.83 1.32,0.05 2.71,0.05 4.18,0 1.47,-0.05 2.9,-0.24 4.28,-0.56 1.38,-0.32 2.65,-0.79 3.81,-1.4 1.16,-0.61 2.08,-1.45 2.77,-2.52 0.38,-0.64 0.38,-1.29 0,-1.96 -0.38,-0.63 -1.1,-0.96 -2.16,-0.96 z m -338.84,17.66 c 1.13,-1.22 2.35,-2.37 3.67,-3.44 0.75,-0.59 1.61,-1.21 2.58,-1.88 0.97,-0.67 1.99,-1.13 3.06,-1.4 0.75,-0.21 1.41,-0.23 1.97,-0.04 0.56,0.19 0.69,0.73 0.38,1.64 -0.19,0.8 -0.6,1.63 -1.22,2.48 -0.63,0.85 -1.16,1.49 -1.6,1.92 -1.76,1.81 -3.85,3.12 -6.3,3.92 -1.76,0.53 -3.64,0.72 -5.64,0.56 0.94,-1.28 1.97,-2.54 3.1,-3.76 z m 76.24,10.79 c -0.38,1.54 -0.96,3.03 -1.74,4.46 -0.78,1.43 -1.74,2.74 -2.87,3.95 -0.69,-0.3 -1.35,-0.71 -1.97,-1.24 -0.63,-0.53 -1.24,-1.03 -1.83,-1.52 -0.6,-0.49 -1.22,-0.96 -1.88,-1.41 -0.66,-0.45 -1.36,-0.75 -2.11,-0.9 1.06,-3.01 2.21,-5.98 3.43,-8.91 1.22,-2.93 2.46,-5.83 3.71,-8.69 0.25,1.51 0.77,2.59 1.55,3.27 0.78,0.68 1.8,1.24 3.06,1.69 0.63,1.5 0.99,3.05 1.08,4.62 0.09,1.58 -0.06,3.14 -0.43,4.68 z m 4.98,-20.59 c -1,-0.6 -2.1,-1.03 -3.29,-1.3 -1.19,-0.26 -2.38,-0.21 -3.57,0.17 0.63,-1.35 1.41,-3.03 2.35,-5.02 0.94,-1.99 1.96,-4 3.06,-6.04 1.1,-2.03 2.22,-3.95 3.38,-5.75 1.16,-1.8 2.3,-3.19 3.43,-4.17 0.81,-0.68 1.41,-0.85 1.79,-0.51 0.38,0.34 0.59,0.96 0.66,1.86 0.06,0.9 0.03,1.92 -0.09,3.05 -0.13,1.13 -0.31,2.14 -0.56,3.05 -0.75,2.71 -1.65,5.28 -2.68,7.73 -1.05,2.44 -2.54,4.75 -4.48,6.93 z m 74.21,9.28 c -0.31,0.83 -0.63,1.61 -0.94,2.36 -0.75,1.54 -1.63,3.05 -2.63,4.51 -1,1.47 -2.1,2.86 -3.29,4.2 -1.13,1.33 -2.3,2.54 -3.53,3.64 -1.22,1.09 -2.58,2.15 -4.09,3.16 -1.75,1.12 -2.96,1.37 -3.62,0.76 -0.66,-0.61 -0.89,-1.72 -0.71,-3.32 0.19,-1.6 0.72,-3.49 1.6,-5.67 l 3.48,-6.31 c 1.19,-1.7 2.57,-3.37 4.14,-4.99 1.57,-1.62 3.29,-3.05 5.17,-4.28 0.75,0.91 1.55,1.61 2.4,2.12 0.85,0.51 1.74,0.89 2.68,1.16 -0.13,0.94 -0.35,1.83 -0.66,2.66 z"
   id="path109"
   style="fill:url(#SVGID_3_)" />
</g>
<g
   id="g165"
   transform="matrix(1.2088374,0,0,1.2088374,-62.164186,-61.630785)">
	<path
   class="st13"
   d="m 264.98,211.94 h -5.31 l -0.61,3.04 h 4.58 l -0.39,1.97 h -4.58 l -0.63,3.15 h 5.41 l -0.39,1.97 h -7.67 l 2.43,-12.11 h 7.55 z"
   id="path113" />
	<path
   class="st13"
   d="m 267.33,222.08 h -2.11 l 1.72,-8.59 h 2.11 z m 2.07,-10.32 h -2.16 l 0.34,-1.75 h 2.18 z"
   id="path115" />
	<path
   class="st13"
   d="m 277.94,216.55 -1.11,5.53 h -2.11 l 1.09,-5.39 c 0.03,-0.2 0.07,-0.41 0.07,-0.58 0,-0.77 -0.51,-1.11 -1.05,-1.11 -0.61,0 -1.53,0.31 -1.8,1.7 l -1.09,5.38 h -2.11 l 1.77,-8.86 h 2.02 l -0.15,0.85 c 0.56,-0.61 1.41,-0.95 2.33,-0.95 1.04,0 2.26,0.7 2.26,2.45 0,0.32 -0.05,0.7 -0.12,0.98 z"
   id="path117" />
	<path
   class="st13"
   d="m 284.73,216.91 2.35,5.17 h -2.42 l -1.53,-3.86 -1.21,1.12 -0.54,2.74 h -2.11 l 2.42,-12.11 h 2.11 l -1.36,6.86 3.5,-3.61 h 2.5 z"
   id="path119" />
	<path
   class="st13"
   d="m 296.11,216.37 -1.16,5.72 h -2.02 l 0.15,-0.78 c -0.49,0.49 -1.17,0.87 -2.14,0.87 -1.55,0 -2.53,-0.99 -2.53,-2.33 0,-0.87 0.29,-1.58 0.8,-2.09 0.66,-0.65 1.57,-0.92 2.59,-0.92 h 2.11 l 0.12,-0.53 c 0.03,-0.17 0.05,-0.29 0.05,-0.46 0,-0.6 -0.42,-0.95 -1.31,-0.95 -0.87,0 -1.46,0.34 -1.91,0.83 l -1.09,-1.41 c 0.71,-0.73 1.63,-1.19 3.28,-1.19 1.48,0 3.15,0.58 3.15,2.47 -0.01,0.22 -0.04,0.53 -0.09,0.77 z m -4.12,1.9 c -0.95,0 -1.51,0.58 -1.51,1.36 0,0.49 0.36,0.83 1.12,0.83 0.58,0 1.05,-0.22 1.38,-0.54 0.27,-0.27 0.44,-0.68 0.53,-1.12 l 0.1,-0.53 z"
   id="path121" />
	<path
   class="st13"
   d="m 304.25,222.08 h -2.02 l 0.15,-0.85 c -0.56,0.61 -1.39,0.95 -2.31,0.95 -1.04,0 -2.28,-0.7 -2.28,-2.47 0,-0.34 0.07,-0.68 0.12,-0.97 l 1.1,-5.53 h 2.11 l -1.09,5.39 c -0.03,0.19 -0.07,0.39 -0.07,0.58 0,0.77 0.51,1.11 1.05,1.11 0.61,0 1.51,-0.31 1.8,-1.7 l 1.09,-5.38 h 2.11 z"
   id="path123" />
	<path
   class="st13"
   d="m 312.77,211.62 h -0.75 c -0.51,0 -0.85,0.27 -0.97,0.87 l -0.2,1 h 1.57 l -0.32,1.62 h -1.57 l -1.4,6.98 h -2.11 l 1.4,-6.98 h -0.87 l 0.32,-1.62 h 0.87 l 0.25,-1.22 c 0.31,-1.55 1.26,-2.43 2.89,-2.43 h 1.24 z"
   id="path125" />
	<path
   class="st13"
   d="m 320.07,218.29 h -5.31 c -0.03,0.2 -0.07,0.42 -0.07,0.63 0,0.87 0.49,1.48 1.51,1.48 0.85,0 1.5,-0.31 2.11,-0.9 l 1.11,1.39 c -0.92,0.85 -2.13,1.29 -3.45,1.29 -1.53,0 -3.28,-0.78 -3.28,-3.11 0,-2.98 1.45,-5.95 4.51,-5.95 1.87,0 3.15,1.24 3.15,3.16 -0.01,0.6 -0.13,1.33 -0.28,2.01 z m -2.99,-3.44 c -0.9,0 -1.65,0.58 -2.04,2.02 h 3.25 c 0.03,-0.19 0.05,-0.41 0.05,-0.6 -0.01,-0.92 -0.52,-1.42 -1.26,-1.42 z"
   id="path127" />
	<path
   class="st13"
   d="m 329.54,216.55 -1.11,5.53 h -2.11 l 1.09,-5.39 c 0.03,-0.2 0.07,-0.41 0.07,-0.58 0,-0.77 -0.51,-1.11 -1.05,-1.11 -0.61,0 -1.53,0.31 -1.8,1.7 l -1.09,5.38 h -2.11 l 1.77,-8.86 h 2.02 l -0.15,0.85 c 0.56,-0.61 1.41,-0.95 2.33,-0.95 1.04,0 2.26,0.7 2.26,2.45 0,0.32 -0.05,0.7 -0.12,0.98 z"
   id="path129" />
	<path
   class="st13"
   d="m 333.03,223.02 -2.67,1.87 1.05,-5.22 h 2.28 z"
   id="path131" />
	<path
   class="st13"
   d="m 348.03,222.08 h -1.67 l -0.7,-5.63 -2.91,5.63 h -1.7 l -0.83,-8.86 h 2.11 l 0.31,5.53 2.81,-5.53 h 1.53 l 0.65,5.53 2.42,-5.53 h 2.23 z"
   id="path133" />
	<path
   class="st13"
   d="m 359.63,216.37 -1.16,5.72 h -2.02 l 0.15,-0.78 c -0.49,0.49 -1.17,0.87 -2.14,0.87 -1.55,0 -2.53,-0.99 -2.53,-2.33 0,-0.87 0.29,-1.58 0.8,-2.09 0.66,-0.65 1.57,-0.92 2.59,-0.92 h 2.11 l 0.12,-0.53 c 0.03,-0.17 0.05,-0.29 0.05,-0.46 0,-0.6 -0.42,-0.95 -1.31,-0.95 -0.87,0 -1.46,0.34 -1.91,0.83 l -1.09,-1.41 c 0.71,-0.73 1.63,-1.19 3.28,-1.19 1.48,0 3.15,0.58 3.15,2.47 -0.01,0.22 -0.04,0.53 -0.09,0.77 z m -4.12,1.9 c -0.95,0 -1.51,0.58 -1.51,1.36 0,0.49 0.36,0.83 1.12,0.83 0.58,0 1.05,-0.22 1.38,-0.54 0.27,-0.27 0.44,-0.68 0.53,-1.12 l 0.1,-0.53 z"
   id="path135" />
	<path
   class="st13"
   d="m 368.97,216.55 -1.11,5.53 h -2.11 l 1.09,-5.39 c 0.03,-0.2 0.07,-0.41 0.07,-0.58 0,-0.77 -0.51,-1.11 -1.05,-1.11 -0.61,0 -1.53,0.31 -1.8,1.7 l -1.09,5.38 h -2.11 l 1.77,-8.86 h 2.02 l -0.15,0.85 c 0.56,-0.61 1.41,-0.95 2.33,-0.95 1.04,0 2.26,0.7 2.26,2.45 0,0.32 -0.05,0.7 -0.12,0.98 z"
   id="path137" />
	<path
   class="st13"
   d="m 378.39,216.55 -1.11,5.53 h -2.11 l 1.09,-5.39 c 0.03,-0.2 0.07,-0.41 0.07,-0.58 0,-0.77 -0.51,-1.11 -1.05,-1.11 -0.61,0 -1.53,0.31 -1.8,1.7 l -1.09,5.38 h -2.11 l 1.77,-8.86 h 2.02 l -0.15,0.85 c 0.56,-0.61 1.41,-0.95 2.33,-0.95 1.04,0 2.26,0.7 2.26,2.45 0,0.32 -0.05,0.7 -0.12,0.98 z"
   id="path139" />
	<path
   class="st13"
   d="m 383.34,213.56 h -1.99 l 0.71,-3.59 h 1.99 z"
   id="path141" />
	<path
   class="st13"
   d="m 390.12,215.48 c -0.41,-0.42 -1.05,-0.63 -1.68,-0.63 -1.07,0 -1.55,0.53 -1.55,1.07 0,0.38 0.27,0.58 0.82,0.66 l 1.14,0.19 c 1.58,0.26 2.14,1.07 2.14,2.3 0,0.88 -0.37,1.58 -0.95,2.14 -0.71,0.7 -1.94,0.97 -3.08,0.97 -1.58,0 -2.64,-0.48 -3.42,-1.33 l 1.51,-1.33 c 0.44,0.51 1.04,0.85 2.04,0.85 1.21,0 1.8,-0.58 1.8,-1.11 0,-0.48 -0.32,-0.65 -0.83,-0.73 l -1.16,-0.19 c -1.62,-0.27 -2.13,-1.17 -2.13,-2.01 0,-0.82 0.31,-1.62 0.9,-2.21 0.66,-0.66 1.68,-1.02 2.94,-1.02 1.26,0 2.18,0.31 2.94,1.09 z"
   id="path143" />
	<path
   class="st13"
   d="m 404.15,212.71 c -0.53,-0.63 -1.19,-0.88 -2.14,-0.88 -1.41,0 -2.25,0.95 -2.25,1.84 0,0.77 0.61,1.02 1.29,1.19 l 1,0.24 c 2.01,0.49 2.74,1.43 2.74,3.15 0,2.72 -2.3,3.95 -4.85,3.95 -1.91,0 -3.06,-0.46 -4.08,-1.67 l 1.63,-1.43 c 0.65,0.77 1.5,1.11 2.65,1.11 1.34,0 2.4,-0.77 2.4,-1.75 0,-0.87 -0.51,-1.16 -1.28,-1.34 l -1,-0.25 c -1.99,-0.49 -2.76,-1.63 -2.76,-2.88 0,-2.31 1.79,-4.1 4.75,-4.1 1.41,0 2.67,0.48 3.47,1.46 z"
   id="path145" />
	<path
   class="st13"
   d="m 413.92,217.64 c -0.36,1.82 -0.73,2.99 -1.41,3.67 -0.68,0.68 -1.45,0.87 -2.25,0.87 -0.8,0 -1.57,-0.27 -2.01,-0.95 l -0.82,4.1 h -2.11 l 2.42,-12.11 h 2.04 l -0.19,0.85 c 0.6,-0.68 1.36,-0.95 2.2,-0.95 1.87,0 2.4,1.34 2.4,2.45 0,0.42 -0.03,0.9 -0.27,2.07 z m -2.98,-2.63 c -1.26,0 -1.65,1.02 -1.97,2.64 -0.08,0.46 -0.19,1.05 -0.19,1.43 0,0.53 0.14,1.23 1.05,1.23 1.26,0 1.65,-1.04 1.97,-2.65 0.08,-0.46 0.19,-1.05 0.19,-1.43 0,-0.54 -0.13,-1.22 -1.05,-1.22 z"
   id="path147" />
	<path
   class="st13"
   d="m 422.79,216.37 -1.16,5.72 h -2.02 l 0.15,-0.78 c -0.49,0.49 -1.17,0.87 -2.14,0.87 -1.55,0 -2.54,-0.99 -2.54,-2.33 0,-0.87 0.29,-1.58 0.8,-2.09 0.66,-0.65 1.57,-0.92 2.59,-0.92 h 2.11 l 0.12,-0.53 c 0.03,-0.17 0.05,-0.29 0.05,-0.46 0,-0.6 -0.42,-0.95 -1.31,-0.95 -0.87,0 -1.46,0.34 -1.91,0.83 l -1.09,-1.41 c 0.71,-0.73 1.63,-1.19 3.28,-1.19 1.48,0 3.15,0.58 3.15,2.47 0.01,0.22 -0.02,0.53 -0.08,0.77 z m -4.11,1.9 c -0.95,0 -1.51,0.58 -1.51,1.36 0,0.49 0.36,0.83 1.12,0.83 0.58,0 1.05,-0.22 1.38,-0.54 0.27,-0.27 0.44,-0.68 0.53,-1.12 l 0.1,-0.53 z"
   id="path149" />
	<path
   class="st13"
   d="m 431.67,214.85 c 0.49,0.31 0.7,0.73 0.7,1.29 0,0.12 -0.02,0.31 -0.05,0.48 l -0.51,2.72 c -0.36,1.91 -1.34,2.74 -3.13,2.74 h -1 l 0.36,-1.77 h 0.46 c 0.31,0 0.54,-0.1 0.77,-0.27 0.22,-0.17 0.39,-0.49 0.46,-0.85 l 0.49,-2.52 c 0.02,-0.14 0.03,-0.25 0.03,-0.34 0,-0.51 -0.31,-0.7 -0.78,-0.7 h -0.53 l 0.34,-1.65 h 0.49 c 0.78,0 1.21,-0.66 1.21,-1.31 0,-0.24 -0.05,-0.46 -0.2,-0.63 -0.17,-0.2 -0.49,-0.36 -0.99,-0.36 -1.19,0 -1.67,0.65 -1.87,1.65 l -1.75,8.75 h -2.13 l 1.79,-8.92 c 0.51,-2.54 2.04,-3.3 4.2,-3.3 1.8,0 3.08,0.9 3.08,2.6 -0.01,0.86 -0.43,1.87 -1.44,2.39 z"
   id="path151" />
	<path
   class="st13"
   d="m 450.43,216.55 -1.11,5.53 h -2.11 l 1.07,-5.39 c 0.03,-0.19 0.07,-0.41 0.07,-0.58 0,-0.77 -0.53,-1.11 -1.05,-1.11 -0.6,0 -1.53,0.31 -1.8,1.7 l -1.07,5.38 h -2.11 l 1.07,-5.39 c 0.03,-0.19 0.07,-0.41 0.07,-0.58 0,-0.77 -0.51,-1.11 -1.04,-1.11 -0.6,0 -1.55,0.31 -1.82,1.7 l -1.07,5.38 h -2.11 l 1.77,-8.86 h 2.03 l -0.17,0.85 c 0.58,-0.59 1.41,-0.95 2.33,-0.95 0.63,0 1.45,0.29 1.92,1.14 0.61,-0.65 1.36,-1.14 2.77,-1.14 1.19,0 2.47,0.78 2.47,2.45 0,0.39 -0.05,0.71 -0.11,0.98 z"
   id="path153" />
	<path
   class="st13"
   d="m 459.33,216.37 -1.16,5.72 h -2.02 l 0.15,-0.78 c -0.49,0.49 -1.17,0.87 -2.14,0.87 -1.55,0 -2.54,-0.99 -2.54,-2.33 0,-0.87 0.29,-1.58 0.8,-2.09 0.66,-0.65 1.57,-0.92 2.59,-0.92 h 2.11 l 0.12,-0.53 c 0.03,-0.17 0.05,-0.29 0.05,-0.46 0,-0.6 -0.42,-0.95 -1.31,-0.95 -0.87,0 -1.46,0.34 -1.91,0.83 l -1.09,-1.41 c 0.71,-0.73 1.63,-1.19 3.28,-1.19 1.48,0 3.15,0.58 3.15,2.47 0,0.22 -0.03,0.53 -0.08,0.77 z m -4.12,1.9 c -0.95,0 -1.51,0.58 -1.51,1.36 0,0.49 0.36,0.83 1.12,0.83 0.58,0 1.05,-0.22 1.38,-0.54 0.27,-0.27 0.44,-0.68 0.53,-1.12 l 0.1,-0.53 z"
   id="path155" />
	<path
   class="st13"
   d="m 466.56,215.74 c -0.34,-0.46 -0.7,-0.73 -1.22,-0.73 -0.46,0 -0.88,0.17 -1.26,0.56 -0.46,0.48 -0.78,1.24 -0.94,2.08 -0.07,0.39 -0.12,0.73 -0.12,1.14 0,0.94 0.44,1.51 1.26,1.51 0.59,0 1.05,-0.26 1.55,-0.75 l 1.17,1.51 c -0.75,0.7 -1.79,1.12 -2.93,1.12 -1.68,0 -3.18,-1.07 -3.18,-3.17 0,-0.42 0.05,-0.92 0.14,-1.38 0.66,-3.61 2.71,-4.53 4.51,-4.53 1.29,0 2.08,0.54 2.6,1.22 z"
   id="path157" />
	<path
   class="st13"
   d="m 476.62,216.55 -1.11,5.53 h -2.11 l 1.09,-5.39 c 0.03,-0.19 0.07,-0.41 0.07,-0.58 0,-0.77 -0.53,-1.11 -1.07,-1.11 -0.6,0 -1.51,0.31 -1.79,1.7 l -1.09,5.38 h -2.11 l 2.42,-12.11 h 2.11 l -0.8,3.95 c 0.56,-0.51 1.31,-0.8 2.18,-0.8 1.09,0 2.33,0.7 2.33,2.45 0,0.32 -0.05,0.68 -0.12,0.98 z"
   id="path159" />
	<path
   class="st13"
   d="m 483.12,215.09 h -1.46 l -0.87,4.36 c -0.03,0.17 -0.03,0.24 -0.03,0.32 0,0.36 0.22,0.54 0.68,0.54 h 0.77 l -0.36,1.77 h -1.09 c -1.22,0 -2.14,-0.71 -2.14,-1.92 0,-0.31 0.03,-0.54 0.07,-0.73 l 0.87,-4.34 h -0.9 l 0.32,-1.6 h 0.9 l 0.53,-2.65 h 2.11 l -0.53,2.65 h 1.46 z"
   id="path161" />
	<path
   class="st13"
   d="m 486.93,222.08 h -2.23 l 0.44,-2.26 h 2.23 z m 0.39,-3.77 h -1.58 l 1.12,-8.34 h 2.6 z"
   id="path163" />
</g>
</svg>
