<?xml version="1.0" encoding="UTF-8" standalone="no"?>
<svg
   width="108.27455mm"
   height="150mm"
   viewBox="0 0 108.27455 150"
   version="1.1"
   id="svg8"
   inkscape:version="1.1.1 (1:1.1+202109281943+c3084ef5ed)"
   sodipodi:docname="Scan.svg"
   xmlns:inkscape="http://www.inkscape.org/namespaces/inkscape"
   xmlns:sodipodi="http://sodipodi.sourceforge.net/DTD/sodipodi-0.dtd"
   xmlns="http://www.w3.org/2000/svg"
   xmlns:svg="http://www.w3.org/2000/svg"
   xmlns:rdf="http://www.w3.org/1999/02/22-rdf-syntax-ns#"
   xmlns:cc="http://creativecommons.org/ns#"
   xmlns:dc="http://purl.org/dc/elements/1.1/">
  <defs
     id="defs2">
    <filter
       inkscape:collect="always"
       style="color-interpolation-filters:sRGB"
       id="filter949"
       x="-0.1737228"
       width="1.3474456"
       y="-3.7705437"
       height="8.5410874">
      <feGaussianBlur
         inkscape:collect="always"
         stdDeviation="7.8836014"
         id="feGaussianBlur951" />
    </filter>
  </defs>
  <sodipodi:namedview
     id="base"
     pagecolor="#ffffff"
     bordercolor="#666666"
     borderopacity="1.0"
     inkscape:pageopacity="0.0"
     inkscape:pageshadow="2"
     inkscape:zoom="0.98994949"
     inkscape:cx="197.48482"
     inkscape:cy="282.33764"
     inkscape:document-units="mm"
     inkscape:current-layer="layer1"
     inkscape:document-rotation="0"
     showgrid="false"
     inkscape:window-width="1848"
     inkscape:window-height="1016"
     inkscape:window-x="1152"
     inkscape:window-y="27"
     inkscape:window-maximized="1"
     fit-margin-top="0"
     fit-margin-left="0"
     fit-margin-right="0"
     fit-margin-bottom="0"
     inkscape:pagecheckerboard="1"
     showguides="true"
     inkscape:guide-bbox="true" />
  <metadata
     id="metadata5">
    <rdf:RDF>
      <cc:Work
         rdf:about="">
        <dc:format>image/svg+xml</dc:format>
        <dc:type
           rdf:resource="http://purl.org/dc/dcmitype/StillImage" />
      </cc:Work>
    </rdf:RDF>
  </metadata>
  <g
     inkscape:label="Ebene 1"
     inkscape:groupmode="layer"
     id="layer1"
     transform="translate(-41.145453,-73.925967)">
    <path
       style="fill:#000000;stroke-width:0.352778"
       d="m 82.084728,163.3051 c -0.09979,-0.33955 -0.366518,-1.92463 -0.592737,-3.52242 -0.405786,-2.86604 -0.314678,-3.97411 0.326757,-3.97411 0.180311,0 1.568961,1.03188 3.085895,2.29306 1.51693,1.26118 2.942449,2.29306 3.167817,2.29306 0.225369,0 0.609015,-0.24009 0.852541,-0.53352 0.341023,-0.41091 0.555678,-0.43982 0.934042,-0.12581 0.415375,0.34473 0.394522,0.51475 -0.135001,1.10065 -0.605694,0.67017 -0.588539,0.72444 0.522288,1.65249 1.660888,1.38759 0.383699,2.10747 -1.522779,0.8583 -0.81249,-0.53236 -0.926416,-0.53236 -1.514669,0 -0.349857,0.31661 -1.01049,0.57566 -1.468075,0.57566 h -0.831973 l 1.010423,-1.05465 c 0.55573,-0.58006 0.942618,-1.10479 0.859751,-1.16606 -0.08287,-0.0613 -1.08929,-0.89637 -2.236488,-1.85576 l -2.085812,-1.74436 0.233729,1.49931 c 0.128552,0.82461 0.333396,2.1343 0.45521,2.91041 0.178619,1.13805 0.114949,1.41111 -0.329004,1.41111 -0.302768,0 -0.632128,-0.27781 -0.731915,-0.61736 z m 3.132497,-11.42784 c -2.716389,-2.14936 -8.907638,-7.05301 -13.758333,-10.89699 -4.850694,-3.84399 -11.597569,-9.16776 -14.993055,-11.8306 -3.395486,-2.66283 -6.242403,-4.90032 -6.326481,-4.97219 -0.08408,-0.0719 0.02219,-0.30573 0.236162,-0.5197 0.283526,-0.28352 2.267221,1.08144 7.314388,5.03296 3.808944,2.9821 7.433296,5.81303 8.054115,6.29096 19.559907,15.05781 25.599935,19.92913 25.243298,20.35884 -0.213636,0.25742 -0.488054,0.46277 -0.609816,0.45635 -0.121764,-0.006 -2.443889,-1.77026 -5.160278,-3.91963 z m -3.559245,-6.58211 c -5.997554,-4.61394 -12.174643,-9.37414 -13.726865,-10.57822 -1.552223,-1.20407 -5.72421,-4.41967 -9.271084,-7.14577 -5.692678,-4.37535 -6.958311,-5.62925 -5.681931,-5.62925 0.193147,0 3.001591,2.01129 6.240985,4.46953 3.239394,2.45824 10.969807,8.30393 17.178696,12.99042 15.351679,11.58749 17.109722,12.94823 17.109722,13.24306 0,0.14027 -0.212598,0.43148 -0.47244,0.64713 -0.368639,0.30594 -2.868309,-1.45106 -11.377083,-7.9969 z m 19.89185,2.20841 c -2.544155,-1.32467 -4.514549,-3.35933 -4.514549,-4.66178 0,-1.48238 1.697129,-2.90821 3.461589,-2.90821 2.91478,0 7.59211,3.50374 7.59211,5.68717 0,2.62136 -3.29731,3.57076 -6.53915,1.88282 z m 4.80886,-0.71602 c 0.88627,-0.88627 0.65322,-1.74367 -0.84085,-3.09347 -2.8524,-2.57698 -5.820043,-3.42435 -6.848803,-1.95559 -0.92685,1.32326 0.160337,2.68673 3.803843,4.77048 1.67842,0.95991 3.1024,1.06199 3.88581,0.27858 z m -24.888272,-8.95 c -3.954116,-2.89908 -9.332429,-6.81927 -11.951804,-8.71155 -12.43708,-8.98474 -12.886977,-9.34988 -12.168007,-9.8756 0.363656,-0.26592 0.880181,-0.48348 1.147833,-0.48348 0.267652,0 3.432822,2.10344 7.033711,4.6743 3.60089,2.57087 9.038299,6.42056 12.083133,8.55486 3.044832,2.13431 7.308938,5.14207 9.475787,6.68391 l 3.939734,2.80334 -0.763425,0.81263 c -0.419879,0.44694 -0.953375,0.81262 -1.185541,0.81262 -0.232163,0 -3.657304,-2.37196 -7.611421,-5.27103 z m 27.836812,4.6288 c -0.91702,-0.36392 -0.20901,-1.25943 0.75406,-0.95376 0.99951,0.31723 2.49621,-0.65529 2.49621,-1.62199 0,-0.40275 -0.51593,-1.21541 -1.14653,-1.80591 l -1.14652,-1.07363 -0.17639,1.19668 c -0.36184,2.45484 -4.03501,3.0294 -6.22345,0.97347 -1.0432,-0.98004 -1.11221,-2.76534 -0.14087,-3.64439 1.79907,-1.62814 5.55868,-0.84723 8.43597,1.75223 1.8798,1.69829 2.0006,3.182 0.37072,4.55345 -1.07236,0.90234 -2.04639,1.09086 -3.2232,0.62385 z m -0.56987,-3.82216 c 0.90413,-0.81823 0.80923,-1.33204 -0.44026,-2.38341 -1.30003,-1.0939 -2.54091,-1.16755 -3.50071,-0.20775 -0.91339,0.91339 -0.88936,1.25938 0.16036,2.30909 1.02181,1.02182 2.81533,1.15563 3.78061,0.28207 z m -24.754857,-4.00569 c -4.365625,-3.10856 -9.128125,-6.46987 -10.583333,-7.46957 -7.33783,-5.04098 -13.052778,-9.19451 -13.052778,-9.48654 0,-0.73449 1.053209,-0.14 6.765041,3.81856 3.289581,2.27982 8.876438,6.12951 12.41524,8.55486 3.538798,2.42534 8.049397,5.52097 10.023552,6.87916 3.392869,2.33426 4.027442,3.05629 2.86971,3.26523 -0.274962,0.0496 -4.071807,-2.45314 -8.437432,-5.5617 z m 3.316182,-2.33554 c -4.443275,-3.03183 -11.491807,-7.80764 -15.663404,-10.61294 -4.171597,-2.80528 -7.822847,-5.3441 -8.113889,-5.6418 -0.472924,-0.48376 -0.435429,-0.52445 0.352778,-0.38291 0.676382,0.12146 30.902391,19.9083 32.205923,21.08295 0.153744,0.13854 0.05852,0.43532 -0.211593,0.6595 -0.391598,0.32499 -2.128368,-0.70955 -8.569815,-5.1048 z m 25.354855,3.64276 c -4.17188,-2.18453 -5.21153,-5.14443 -2.17833,-6.20181 1.15188,-0.40155 2.78785,-0.19608 2.78785,0.35014 0,0.17299 -0.62942,0.31454 -1.3987,0.31454 -1.04241,0 -1.49588,0.18157 -1.7802,0.71284 -0.41179,0.76943 -0.28063,1.14756 0.82343,2.37396 0.78938,0.87685 1.37417,1.0522 1.09658,0.32881 -0.0981,-0.25572 0.1565,-0.89072 0.56584,-1.41111 1.67456,-2.12887 6.64003,-0.55647 6.67905,2.11503 0.0306,2.09462 -3.75054,2.90733 -6.59552,1.4176 z m 4.51327,-0.25788 c 1.10032,-0.58887 0.86721,-2.00192 -0.46417,-2.81368 -1.42139,-0.86663 -2.08289,-0.87999 -3.09254,-0.0624 -1.04487,0.84609 -0.66953,2.07574 0.83316,2.72951 1.36003,0.59171 1.84324,0.61772 2.72355,0.1466 z m -35.955242,-10.33185 -15.98614,-10.62943 1.000066,-0.80029 c 0.550036,-0.44016 1.26942,-0.80108 1.59863,-0.80204 0.329212,-9.6e-4 3.107337,1.6126 6.173611,3.5857 3.066274,1.97311 8.750046,5.59463 12.630601,8.04784 15.251074,9.64141 13.662444,8.50478 12.965236,9.27636 -0.339908,0.37616 -1.018032,0.96909 -1.50694,1.31761 l -0.888925,0.63368 z m 11.943157,2.19973 c -4.171597,-2.70492 -9.013472,-5.80861 -10.759722,-6.89709 -10.404657,-6.48552 -13.229088,-8.3829 -12.927565,-8.68442 0.20077,-0.20077 2.962886,1.33982 7.156431,3.99156 3.756209,2.3752 7.702592,4.84637 8.769745,5.49151 9.567665,5.78401 16.533096,10.24694 16.448256,10.5388 -0.24821,0.85382 -1.54299,0.19199 -8.687145,-4.44036 z m 26.523865,4.23591 c -1.12401,-0.43883 -0.59712,-1.1256 0.65292,-0.85105 0.55223,0.12129 1.33087,0.0456 1.7303,-0.16814 1.66769,-0.89252 0.16176,-3.18608 -2.09194,-3.18608 -1.40397,0 -2.1207,0.5045 -2.1207,1.49274 0,1.23313 -1.02308,1.07192 -2.83737,-0.44709 l -1.78706,-1.49621 0.9893,-1.0398 c 1.30895,-1.37577 2.2019,-1.84787 2.64916,-1.40061 0.23068,0.23068 -0.0219,0.62393 -0.74343,1.15736 -1.28607,0.95084 -1.36781,1.46497 -0.34124,2.14659 0.68474,0.45465 0.8431,0.40751 1.78073,-0.53012 0.91461,-0.91461 1.20845,-1.00894 2.64011,-0.84757 2.20199,0.24819 3.44201,1.22895 3.57885,2.83059 0.0861,1.00824 -0.0578,1.37033 -0.70555,1.77506 -1.15322,0.72054 -2.44417,0.93518 -3.39408,0.56433 z M 94.389447,125.5731 c -8.817059,-5.57454 -8.57838,-5.42593 -17.197916,-10.70828 -3.249965,-1.99169 -5.909028,-3.72489 -5.909028,-3.85156 0,-0.32275 2.638975,-1.77171 3.223033,-1.76966 0.264624,9.2e-4 3.418009,1.76535 7.007523,3.92093 3.589514,2.15558 7.240763,4.32314 8.113888,4.8168 6.496262,3.67298 16.580553,9.73715 16.580553,9.97069 0,0.41012 -2.87745,2.81487 -3.32669,2.78019 -0.20761,-0.016 -4.028724,-2.33763 -8.491363,-5.15911 z m 30.592963,1.92506 c -0.19881,-0.24254 -0.54318,-1.15535 -0.76525,-2.02847 -0.66493,-2.6143 -1.08001,-3.41621 -1.98072,-3.8266 -1.59034,-0.72461 -3.61775,0.73829 -2.41107,1.73974 0.38346,0.31825 0.41827,0.53707 0.13038,0.81954 -0.28536,0.27998 -0.58145,0.15444 -1.08267,-0.45905 -0.60514,-0.74068 -0.63015,-0.93572 -0.20354,-1.5875 1.86213,-2.845 5.79914,-1.41506 6.41919,2.33149 0.13759,0.83135 0.32948,1.64499 0.42643,1.8081 0.097,0.1631 0.78182,-0.29474 1.52192,-1.01743 0.94153,-0.91939 1.53074,-1.24296 1.96199,-1.07748 0.52004,0.19956 0.34684,0.51015 -1.10837,1.98758 -1.79485,1.82224 -2.3014,2.05042 -2.90829,1.31008 z m -25.141544,-4.94737 c -10.133355,-6.02955 -11.395622,-6.77393 -18.063224,-10.65234 -3.249965,-1.89044 -5.909028,-3.576 -5.909028,-3.74569 0,-0.16968 0.364914,-0.40011 0.81092,-0.51205 0.601782,-0.15104 2.2167,0.60832 6.261805,2.94439 8.084813,4.66903 9.829021,5.66573 16.210608,9.26325 10.556123,5.95086 10.019973,5.58505 9.319673,6.35887 -0.33527,0.37047 -0.78341,0.66976 -0.99588,0.66509 -0.21246,-0.005 -3.64815,-1.94935 -7.634874,-4.32152 z m 4.757784,-3.20621 c -3.86881,-2.18211 -8.304203,-4.69095 -9.856425,-5.5752 -1.552222,-0.88425 -5.362222,-3.00194 -8.466666,-4.70598 -6.30252,-3.45949 -6.009083,-3.27861 -5.745935,-3.54176 0.193883,-0.19388 5.217502,2.45109 11.743157,6.18287 1.940277,1.10957 6.940902,3.85836 11.112499,6.10841 8.23908,4.44395 9.0984,4.97328 8.58695,5.28937 -0.18666,0.11537 -3.50477,-1.57561 -7.37358,-3.75771 z m 22.43277,2.57183 c -3.6336,-1.64823 -4.85027,-3.49564 -3.10653,-4.717 0.88736,-0.62154 2.2406,-0.72505 2.56733,-0.19639 0.12191,0.19725 -0.15025,0.35278 -0.6173,0.35278 -2.0416,0 -2.47696,1.51055 -0.75967,2.63576 0.82074,0.53777 0.87124,0.52353 1.19878,-0.33794 0.68756,-1.80844 3.66068,-1.8808 5.5197,-0.13434 2.45693,2.30817 -1.09253,4.07993 -4.80231,2.39713 z m 4.15275,-0.39783 c 0.64973,-0.64974 0.50796,-1.26884 -0.43153,-1.88442 -0.99272,-0.65046 -2.89166,-0.78962 -3.42992,-0.25136 -0.53101,0.53101 -0.0684,1.68732 0.85296,2.13201 1.06856,0.51572 2.49475,0.51751 3.00849,0.004 z m -20.56695,-2.11844 c -1.74625,-0.97299 -5.31812,-2.96452 -7.9375,-4.42562 -2.61937,-1.46109 -7.077627,-3.88172 -9.907233,-5.37918 -7.443244,-3.93905 -9.848317,-5.31584 -9.848317,-5.63772 0,-1.11406 2.563449,-0.048 10.406944,4.32793 1.74625,0.97424 3.889375,2.13861 4.7625,2.58748 0.873125,0.44887 5.127206,2.66563 9.453506,4.92614 7.59105,3.96634 7.84501,4.1332 7.26546,4.77359 -0.3303,0.36498 -0.695,0.64849 -0.81045,0.63003 -0.11545,-0.0185 -1.63866,-0.82965 -3.38491,-1.80265 z m -1.5875,-4.04874 c -3.78354,-2.03913 -10.530412,-5.61622 -14.99305,-7.9491 -4.462639,-2.33288 -8.271313,-4.38806 -8.463718,-4.56707 -0.227817,-0.21196 -0.169047,-0.43721 0.168501,-0.64582 0.370099,-0.22874 2.286102,0.59264 6.699829,2.87216 3.399825,1.75589 10.366128,5.31076 15.480678,7.89973 5.11455,2.58896 9.38373,4.79176 9.48708,4.89511 0.26813,0.26813 -0.62697,1.26921 -1.10237,1.23288 -0.21878,-0.0167 -3.4934,-1.69877 -7.27695,-3.73789 z m 15.875,-1.74771 c -3.00743,-1.46795 -7.75519,-3.76575 -10.55059,-5.10623 -2.79539,-1.34048 -4.99329,-2.52648 -4.88422,-2.63555 0.20626,-0.20626 21.00116,9.52776 21.59079,10.10656 0.8744,0.85836 -1.13053,0.0882 -6.15598,-2.36478 z m 12.42309,1.54725 c -0.19982,-0.24254 -0.76647,-1.35452 -1.25922,-2.47107 -1.06315,-2.40903 -2.2387,-3.11397 -3.65037,-2.18901 -0.69719,0.45681 -0.77799,0.65846 -0.43128,1.07623 0.56465,0.68036 0.13827,1.07309 -0.5473,0.50412 -0.75393,-0.62571 -0.66955,-1.28583 0.24636,-1.92735 1.83264,-1.28364 4.06911,-0.30821 5.17212,2.25581 0.42142,0.97962 0.89288,1.78113 1.04769,1.78113 0.15482,0 0.65432,-0.39688 1.11003,-0.88195 0.79985,-0.8514 1.76388,-1.17974 1.76388,-0.60076 0,0.31865 -2.56474,2.89382 -2.88209,2.89382 -0.11358,0 -0.37,-0.19844 -0.56982,-0.44097 z m -24.38811,-3.61418 c -6.77801,-3.46536 -8.39596,-4.40583 -7.5965,-4.41563 0.58187,-0.007 15.68097,7.53605 15.68097,7.83387 0,0.61409 -1.14171,0.13136 -8.08447,-3.41824 z m 8.2699,-1.45382 c -9.95317,-4.79249 -13.54205,-6.72308 -9.53404,-5.12872 3.90134,1.55193 20.43175,9.49127 20.55947,9.87445 0.0753,0.22575 0.005,0.39592 -0.15716,0.37814 -0.16169,-0.0178 -5.05241,-2.32352 -10.86827,-5.12387 z m -7.01453,0.15832 c -4.24108,-2.12459 -7.62828,-3.94567 -7.52712,-4.04683 0.18426,-0.18426 14.97763,6.74123 15.53348,7.27198 0.16243,0.15508 0.16243,0.36203 0,0.45987 -0.16242,0.0978 -3.76529,-1.56042 -8.00636,-3.68502 z m 23.00256,-0.39122 c -1.3501,-0.6989 -2.28387,-1.4218 -2.36224,-1.82877 -0.1406,-0.73004 0.80673,-1.61515 1.69023,-1.57922 0.34148,0.0139 0.24907,0.14329 -0.24381,0.34141 -0.96133,0.3864 -1.01701,1.08872 -0.14861,1.87461 0.84187,0.76188 1.20652,0.73641 1.74243,-0.12172 0.80919,-1.29572 4.91159,-0.65432 5.49219,0.85869 0.33845,0.88198 -0.75017,1.61076 -2.40608,1.61076 -1.04083,0 -2.24676,-0.37028 -3.76411,-1.15576 z m 5.23949,0.21887 c 0.31903,-0.83138 -1.12238,-1.88533 -2.57842,-1.88533 -0.6576,0 -1.19564,0.0664 -1.19564,0.14753 0,0.0812 -0.0919,0.38702 -0.20421,0.67971 -0.13254,0.34537 0.14609,0.72204 0.79375,1.07306 1.34325,0.72803 2.90222,0.7207 3.18452,-0.015 z m -23.54905,-2.90934 c -3.6002,-1.70444 -7.25145,-3.50932 -8.11389,-4.01084 -0.86244,-0.50151 -2.75869,-1.38298 -4.2139,-1.95882 -4.56393,-1.80597 -10.230555,-4.584303 -10.230555,-5.016014 0,-0.683541 1.424351,-0.145194 8.405815,3.177056 3.62298,1.724058 8.49224,3.962428 10.82057,4.974148 7.77855,3.37997 11.52449,5.24116 11.29525,5.61208 -0.41609,0.67325 -1.39671,0.33121 -7.96329,-2.77761 z m 1.95971,-1.56577 c -3.4925,-1.60339 -7.07706,-3.34276 -7.96569,-3.86526 -0.88863,-0.52251 -2.47613,-1.25137 -3.52778,-1.61969 -1.05165,-0.368325 -2.94396,-1.145008 -4.20514,-1.725963 -1.26118,-0.580955 -3.39112,-1.555589 -4.7332,-2.165852 -1.608246,-0.731299 -2.321217,-1.228486 -2.091322,-1.45838 0.364811,-0.364812 4.972532,1.532975 10.705072,4.409107 1.64924,0.827455 3.55424,1.685748 4.23334,1.907328 2.62701,0.85713 15.30609,6.6365 15.43985,7.03777 0.31329,0.93987 -1.79027,0.26528 -7.85513,-2.51906 z m 23.63611,1.92238 c 0.86741,-0.18944 1.05576,-0.40552 1.04406,-1.19774 -0.0157,-1.06052 0.64381,-1.11446 0.84639,-0.0692 0.15948,0.8229 -0.86568,1.59443 -2.04607,1.53985 -0.84379,-0.039 -0.83364,-0.0568 0.15562,-0.27288 z m -18.79549,-2.91322 c -2.18836,-0.99467 -3.92716,-1.86016 -3.864,-1.92332 0.13698,-0.13698 7.91527,3.16573 8.25442,3.50489 0.55103,0.55102 -0.65189,0.11769 -4.39042,-1.58157 z m 14.63292,1.5935 c -0.20263,-0.20262 1.21072,-1.54066 1.62738,-1.54066 0.0967,0 -0.008,0.39563 -0.23203,0.87919 -0.3969,0.85574 -0.94246,1.11437 -1.39535,0.66147 z m -44.432567,-3.32534 c -5.301834,-2.67729 -7.080373,-3.755028 -4.234363,-2.56589 2.126607,0.88855 10.31978,5.0448 10.31978,5.23504 0,0.35945 -0.66882,0.0661 -6.085417,-2.66915 z m 42.398177,2.12177 c -0.41973,-0.26044 -0.37239,-0.4476 0.27813,-1.09963 0.96786,-0.97009 1.32861,-0.70851 0.69832,0.50637 -0.34106,0.6574 -0.60988,0.82072 -0.97645,0.59326 z m -40.110385,-2.6885 c -2.573761,-1.28798 -4.623456,-2.397881 -4.55488,-2.466459 0.193873,-0.193871 8.974515,4.044509 9.227705,4.454169 0.12362,0.20004 0.17572,0.36153 0.11576,0.35888 -0.06,-0.003 -2.21482,-1.05862 -4.788585,-2.34659 z m 50.613815,1.29704 c 0.10091,-0.38587 0.31724,-0.61891 0.48073,-0.51787 0.34723,0.2146 0.0323,1.21946 -0.38219,1.21946 -0.15511,0 -0.19945,-0.31571 -0.0985,-0.70159 z m -7.27723,-1.97364 c 0.0169,-0.41097 0.10052,-0.49456 0.21314,-0.21314 0.1019,0.25466 0.0894,0.55893 -0.0278,0.67616 -0.11722,0.11722 -0.2006,-0.0911 -0.18528,-0.46302 z m 3.32354,0.20579 c -0.11992,-0.19403 -0.0593,-0.35278 0.13475,-0.35278 0.19403,0 0.45089,0.15875 0.5708,0.35278 0.11992,0.19402 0.0593,0.35277 -0.13475,0.35277 -0.19402,0 -0.45089,-0.15875 -0.5708,-0.35277 z m -42.8625,-1.05834 c -0.6791,-0.37179 -1.07597,-0.67598 -0.88194,-0.67598 0.19402,0 0.9084,0.30419 1.58749,0.67598 0.6791,0.37179 1.07598,0.67598 0.88195,0.67598 -0.19403,0 -0.9084,-0.30419 -1.5875,-0.67598 z m 27.69305,-1.735155 c -3.10444,-1.309358 -6.6668,-2.900862 -7.91636,-3.536675 -1.24955,-0.635813 -3.07518,-1.392595 -4.05694,-1.681737 -2.73932,-0.806764 -10.42808,-4.037961 -10.42808,-4.382396 0,-0.323615 0.69427,-0.428929 2.07022,-0.314032 0.45953,0.03837 1.83458,0.532194 3.05567,1.097383 1.22109,0.565188 2.29157,1.027615 2.37884,1.027615 0.0873,0 1.29507,0.624656 2.684,1.388124 1.38894,0.763468 3.43499,1.638584 4.54678,1.944703 1.11179,0.306118 4.92144,1.705525 8.46591,3.109793 4.68874,1.857616 6.41776,2.697377 6.34639,3.082377 -0.18035,0.97304 -1.4648,0.66118 -7.14643,-1.735155 z m 18.69723,-2.498176 c -0.11992,-0.194028 -0.0499,-0.352778 0.15556,-0.352778 0.20548,0 0.3736,0.15875 0.3736,0.352778 0,0.194028 -0.07,0.352778 -0.15556,0.352778 -0.0856,0 -0.25369,-0.15875 -0.3736,-0.352778 z m -7.9375,-7.260038 c -5.93568,-2.181044 -6.13449,-2.563072 -0.2767,-0.531686 5.70639,1.978882 6.89543,2.452899 6.09753,2.43081 -0.38806,-0.01074 -3.00743,-0.865349 -5.82083,-1.899124 z"
       id="path24" />
    <path
       id="path941"
       style="fill:#ff0000;fill-opacity:1;stroke:#ff0000;stroke-width:2.4;stroke-linecap:round;stroke-miterlimit:4;stroke-dasharray:none;stroke-opacity:1;filter:url(#filter949)"
       transform="matrix(0.69240978,-0.55161942,0.0928016,0.11116804,33.708744,158.87592)"
       d="M 143.7297,21.951672 A 57.910194,2.6681359 0 0 1 85.819504,24.619807 57.910194,2.6681359 0 0 1 27.909309,21.951672 57.910194,2.6681359 0 0 1 85.819504,19.283536 57.910194,2.6681359 0 0 1 143.7297,21.951672 Z" />
    <path
       id="rect10788"
       style="fill:none;stroke:#000000"
       d="m 83.981093,199.28049 15.502497,2.75316 -2.74033,-21.9161 h 16.40009 l -2.33253,21.9161 15.36043,-2.75316 -20.7699,21.31737 z"
       sodipodi:nodetypes="cccccccc" />
    <text
       xml:space="preserve"
       style="font-style:normal;font-weight:normal;font-size:8.99899px;line-height:1.25;font-family:sans-serif;fill:#000000;fill-opacity:1;stroke:none;stroke-width:0.224975"
       x="72.2341"
       y="175.25145"
       id="text17274"><tspan
         sodipodi:role="line"
         id="tspan17272"
         style="stroke-width:0.224975"
         x="72.2341"
         y="175.25145">unter der Kassa</tspan></text>
  </g>
</svg>
